<?xml version="1.0" encoding="UTF-8"?>
<svg viewBox="-15 -12.5969551561448 30 30.0000033527615" xmlns="http://www.w3.org/2000/svg" xmlns:xlink="http://www.w3.org/1999/xlink" xmlns:gmsvgsym="http://www.intergraph.com/GeoMedia/svgsym">
  <!-- Creator: SVG Document for Symbols-->
  <path id="LineString2d_1700" style=" stroke-width: 0.00120000007152558;stroke: #ffffff; fill: none; " d="M 1.08000006437302E-06 17.4030473573025 L -0.757529805152295 17.1570455426396 L -1.38341036245768 16.56599078741 L -2.19159577062929 15.1989862259302 L -2.6467550777589 14.0497852774325 L -2.94361301545301 13.1025255009714 L -3.16785090881863 12.2518524102673 L -3.36000356027182 11.4030291196735 L -3.54386337123072 10.4534546630745 L -3.7376181427794 9.24511483105179 L -3.95535803575771 7.4476712039158 L -4.12678296597543 5.1916155094444 L -4.85165260918103 5.10973674456404 L -6.49664246723007 4.86724349011032 L -7.79999878491616 4.61249847492633 L -8.95963217403569 4.33086157813947 L -10.1027481621707 3.99152999791373 L -11.3340904355644 3.53714289083015 L -12.7359053191191 2.85279821004002 L -14.2165461673722 1.72235986266065 L -14.7797620009425 0.921955734952844 L -14.9999984940696 0.00305124018186809 L -14.7825170811067 -0.91621349461058 L -14.2211032876438 -1.71747730236962 L -12.7411837594337 -2.84974192985786 L -11.3384026358215 -3.53535129072336 L -10.1057108423473 -3.99055787785578 L -8.96115797412664 -4.33045249811508 L -7.79999878491616 -4.61249847492633 L -6.49492742712784 -4.867540130128 L -4.84785916895492 -5.11020330459185 L -3.61372857539501 -5.24094955238494 L -3.54386097123057 -5.64737541660981 L -3.36000056027164 -6.59695047320889 L -3.16784790881845 -7.44577172380258 L -2.94360989545282 -8.29644373450658 L -2.6467517177587 -9.24370195096757 L -2.19159241062909 -10.3929004994651 L -1.38340772245753 -11.7599009809447 L -0.757527765152173 -12.3509538161742 L 1.08000006437302E-06 -12.596954430837 L 0.757530165152316 -12.3509527361742 L 1.38340952245763 -11.7598997809446 L 2.19159385062917 -10.3928991794651 L 2.64675291775877 -9.24370099096751 L 2.94361085545288 -8.29644301450654 L 3.16784886881851 -7.44577136380256 L 3.36000140027169 -6.59695047320889 L 3.54386193123063 -5.64737445660975 L 3.61374489539598 -5.24094811238485 L 4.84786156895507 -5.11020306459184 L 6.49492982712798 -4.86753965012797 L 7.80000106491629 -4.61249799492631 L 8.96116001412676 -4.33045189811505 L 10.1057127623474 -3.99055727785575 L 11.3384041958216 -3.53535057072332 L 12.7411848394338 -2.84974132985782 L 14.2211037676438 -1.7174768223696 L 14.7825175611067 -0.916212414610516 L 14.9999984940696 0.00305124018186809 L 14.7797621209425 0.92195549495283 L 14.2165465273722 1.72235938266062 L 12.7359065191192 2.85279761003999 L 11.3340919955645 3.5371421708301 L 10.1027499621708 3.99152939791369 L 8.95963421403581 4.33086109813944 L 7.80000106491629 4.61249799492631 L 6.4966447472302 4.86724301011029 L 4.85165488918117 5.10973650456403 L 4.12678536597558 5.19161670944447 L 3.95535863575775 7.44767276391589 L 3.73761886277945 9.24511579105184 L 3.54386421123077 10.4534551430745 L 3.36000440027187 11.4030291196735 L 3.16785186881869 12.2518521702673 L 2.94361409545307 13.1025247809713 L 2.64675627775897 14.0497841974324 L 2.19159721062937 15.1989849059301 L 1.38341216245779 16.5659894674099 L 0.757531605152402 17.1570448226396 L 1.08000006437302E-06 17.4030473573025 " xmlns="http://www.w3.org/2000/svg" />
  <g id="ComplexString2d_1701" style=" fill-rule: evenodd; stroke-width: 0;stroke: #ffffff; fill: #ffffff; " xmlns="http://www.w3.org/2000/svg">
    <path d="M 1.08000006437302E-06 17.4030473573025 L -0.757529805152295 17.1570455426396 L -1.38341036245768 16.56599078741 L -2.19159577062929 15.1989862259302 L -2.6467550777589 14.0497852774325 L -2.94361301545301 13.1025255009714 L -3.16785090881863 12.2518524102673 L -3.36000356027182 11.4030291196735 L -3.54386337123072 10.4534546630745 L -3.7376181427794 9.24511483105179 L -3.95535803575771 7.4476712039158 L -4.12678296597543 5.1916155094444 L -4.85165260918103 5.10973674456404 L -6.49664246723007 4.86724349011032 L -7.79999878491616 4.61249847492633 L -8.95963217403569 4.33086157813947 L -10.1027481621707 3.99152999791373 L -11.3340904355644 3.53714289083015 L -12.7359053191191 2.85279821004002 L -14.2165461673722 1.72235986266065 L -14.7797620009425 0.921955734952844 L -14.9999984940696 0.00305124018186809 L -14.7825170811067 -0.91621349461058 L -14.2211032876438 -1.71747730236962 L -12.7411837594337 -2.84974192985786 L -11.3384026358215 -3.53535129072336 L -10.1057108423473 -3.99055787785578 L -8.96115797412664 -4.33045249811508 L -7.79999878491616 -4.61249847492633 L -6.49492742712784 -4.867540130128 L -4.84785916895492 -5.11020330459185 L -3.61372857539501 -5.24094955238494 L -3.54386097123057 -5.64737541660981 L -3.36000056027164 -6.59695047320889 L -3.16784790881845 -7.44577172380258 L -2.94360989545282 -8.29644373450658 L -2.6467517177587 -9.24370195096757 L -2.19159241062909 -10.3929004994651 L -1.38340772245753 -11.7599009809447 L -0.757527765152173 -12.3509538161742 L 1.08000006437302E-06 -12.596954430837 L 0.757530165152316 -12.3509527361742 L 1.38340952245763 -11.7598997809446 L 2.19159385062917 -10.3928991794651 L 2.64675291775877 -9.24370099096751 L 2.94361085545288 -8.29644301450654 L 3.16784886881851 -7.44577136380256 L 3.36000140027169 -6.59695047320889 L 3.54386193123063 -5.64737445660975 L 3.61374489539598 -5.24094811238485 L 4.84786156895507 -5.11020306459184 L 6.49492982712798 -4.86753965012797 L 7.80000106491629 -4.61249799492631 L 8.96116001412676 -4.33045189811505 L 10.1057127623474 -3.99055727785575 L 11.3384041958216 -3.53535057072332 L 12.7411848394338 -2.84974132985782 L 14.2211037676438 -1.7174768223696 L 14.7825175611067 -0.916212414610516 L 14.9999984940696 0.00305124018186809 L 14.7797621209425 0.92195549495283 L 14.2165465273722 1.72235938266062 L 12.7359065191192 2.85279761003999 L 11.3340919955645 3.5371421708301 L 10.1027499621708 3.99152939791369 L 8.95963421403581 4.33086109813944 L 7.80000106491629 4.61249799492631 L 6.4966447472302 4.86724301011029 L 4.85165488918117 5.10973650456403 L 4.12678536597558 5.19161670944447 L 3.95535863575775 7.44767276391589 L 3.73761886277945 9.24511579105184 L 3.54386421123077 10.4534551430745 L 3.36000440027187 11.4030291196735 L 3.16785186881869 12.2518521702673 L 2.94361409545307 13.1025247809713 L 2.64675627775897 14.0497841974324 L 2.19159721062937 15.1989849059301 L 1.38341216245779 16.5659894674099 L 0.757531605152402 17.1570448226396 L 1.08000006437302E-06 17.4030473573025 " />
  </g>
</svg>