<?xml version="1.0" encoding="UTF-8"?>
<svg viewBox="-15 -15 30 30" xmlns="http://www.w3.org/2000/svg" xmlns:xlink="http://www.w3.org/1999/xlink" xmlns:gmsvgsym="http://www.intergraph.com/GeoMedia/svgsym">
  <!-- Creator: SVG Document for Symbols-->
  <g id="ComplexString2d_1611" style=" fill-rule: evenodd; stroke-width: 0;stroke: #000000; fill: #000000; " xmlns="http://www.w3.org/2000/svg">
    <path d="M 14.9999989382923 0 L 14.9066378949005 -1.67096178172846 L 14.605262116232 -3.41852105803532 L 14.0668193043433 -5.20812473136625 L 13.2692297607971 -6.99482005490303 L 12.769276946184 -7.87054849291852 L 12.2014917363721 -8.72488213244834 L 11.5668339812935 -9.55030462402451 L 10.8673462308036 -10.3392822181803 L 10.1061768346796 -11.0844556154365 L 9.28756404262143 -11.7788421662875 L 8.41677450425636 -12.4160329711868 L 7.49999946914617 -12.9903800805342 L 6.54421273679725 -13.4971569946643 L 5.55699440667307 -13.9326875138372 L 4.5463316782083 -14.2944337882326 L 3.52040795082371 -14.5810389179465 L 2.48738952394129 -14.7923244029917 L 1.45522384699851 -14.9292428933005 L 0.431456519461285 -14.9937925387316 L -0.576923059165088 -14.9889001390779 L -2.52304122141784 -14.7862852534191 L -4.34210489266358 -14.3577885337483 L -6.00622367487639 -13.7450079771212 L -7.49999946914617 -12.9903800805342 L -8.90041437002408 -12.0740461953928 L -10.2631572235684 -10.939267475713 L -11.5437779329254 -9.57816052205286 L -12.692306851632 -7.99408008417489 L -13.2007334656453 -7.12324389581312 L -13.6567154333706 -6.20436061085216 L -14.0542235052348 -5.24201977896714 L -14.3877540316274 -4.24175684976626 L -14.6525086628879 -3.20997817279609 L -14.8445585992945 -2.15384534754972 L -14.9609872410536 -1.08112402347748 L -14.9999989382923 0 L -14.9609872410536 1.08112402347748 L -14.8445585992945 2.15384534754972 L -14.6525086628879 3.20997817279609 L -14.3877540316274 4.24175684976626 L -14.0542235052348 5.24201977896714 L -13.6567154333706 6.20436061085216 L -13.2007334656453 7.12324389581312 L -12.692306851632 7.99408008417489 L -11.5437779329254 9.57816052205286 L -10.2631572235684 10.939267475713 L -8.90041437002408 12.0740461953928 L -7.49999946914617 12.9903800805342 L -6.00622367487639 13.7450079771212 L -4.34210489266358 14.3577885337483 L -2.52304122141784 14.7862852534191 L -0.576923059165088 14.9889001390779 L 0.431456519461285 14.9937925387316 L 1.45522384699851 14.9292428933005 L 2.48738952394129 14.7923244029917 L 3.52040795082371 14.5810389179465 L 4.5463316782083 14.2944337882326 L 5.55699440667307 13.9326875138372 L 6.54421273679725 13.4971569946643 L 7.49999946914617 12.9903800805342 L 8.41677450425636 12.4160329711868 L 9.28756404262143 11.7788421662875 L 10.1061768346796 11.0844556154365 L 10.8673462308036 10.3392822181803 L 11.5668339812935 9.55030462402451 L 12.2014917363721 8.72488213244834 L 12.769276946184 7.87054849291852 L 13.2692297607971 6.99482005490303 L 14.0668193043433 5.20812473136625 L 14.605262116232 3.41852105803532 L 14.9066378949005 1.67096178172846 L 14.9999989382923 0 " />
  </g>
  <g id="ComplexString2d_1612" style=" fill-rule: evenodd; stroke-width: 0;stroke: #ffffff; fill: #ffffff; " xmlns="http://www.w3.org/2000/svg">
    <path d="M 12.7499990975485 0 L 12.6706422031654 -1.42031749946919 L 12.4144728212972 -2.90574294433002 L 11.9567964536918 -4.42690603666131 L 11.2788454016775 -5.94559712916757 L 10.3712679159163 -7.41614992508108 L 9.23724429618309 -8.78838987795323 L 8.59025039197765 -9.42178733312103 L 7.89442954122821 -10.0120158413444 L 7.15425834361791 -10.5536280030088 L 6.37499954877424 -11.0418230684541 L 5.56258085627766 -11.4725834379646 L 4.72344521567211 -11.8427843117616 L 3.86438192647705 -12.1502686899977 L 2.99234678820015 -12.3938830727546 L 1.23694026244873 -12.6898564518054 L -0.490384615290324 -12.7405651482162 L -2.14458509820516 -12.5683425104062 L -3.69078918876404 -12.2041203361861 L -5.10529013864493 -11.6832567730531 L -6.37499954877424 -11.0418230684541 L -7.56535221452047 -10.2629392735839 L -8.72368363253317 -9.29837739185605 L -9.81221135548662 -8.14143647374493 L -10.7884607863872 -6.79496801904866 L -11.608208178365 -5.27370652672433 L -12.2295909343832 -3.60549319480133 L -12.4546323184547 -2.72848135687668 L -12.6178747569003 -1.83076862041725 L -12.7168391998956 -0.91895543495586 L -12.7499990975485 0 L -12.7168391998956 0.91895543495586 L -12.6178747569003 1.83076862041725 L -12.4546323184547 2.72848135687668 L -12.2295909343832 3.60549319480133 L -11.608208178365 5.27370652672433 L -10.7884607863872 6.79496801904866 L -9.81221135548662 8.14143647374493 L -8.72368363253317 9.29837739185605 L -7.56535221452047 10.2629392735839 L -6.37499954877424 11.0418230684541 L -5.10529013864493 11.6832567730531 L -3.69078918876404 12.2041203361861 L -2.14458509820516 12.5683425104062 L -0.490384615290324 12.7405651482162 L 1.23694026244873 12.6898564518054 L 2.99234678820015 12.3938830727546 L 3.86438192647705 12.1502686899977 L 4.72344521567211 11.8427843117616 L 5.56258085627766 11.4725834379646 L 6.37499954877424 11.0418230684541 L 7.15425834361791 10.5536280030088 L 7.89442954122821 10.0120158413444 L 8.59025039197765 9.42178733312103 L 9.23724429618309 8.78838987795323 L 10.3712679159163 7.41614992508108 L 11.2788454016775 5.94559712916757 L 11.9567964536918 4.42690603666131 L 12.4144728212972 2.90574294433002 L 12.6706422031654 1.42031749946919 L 12.7499990975485 0 " />
  </g>
  <g id="ComplexString2d_1613" style=" fill-rule: evenodd; stroke-width: 0;stroke: #000000; fill: #000000; " xmlns="http://www.w3.org/2000/svg">
    <path d="M 5.24999962840232 0 L 5.24206912896364 -0.288457029582863 L 5.21732333071516 -0.584836608604963 L 5.17435928375618 -0.887976387148573 L 5.11184168818121 -1.19648241531236 L 5.02854294407714 -1.50872524321165 L 4.92338680152014 -1.82284367097819 L 4.79549441057243 -2.13675689875924 L 4.64423037127898 -2.44818702671606 L 4.46924698366439 -2.75469205502148 L 4.27052204773025 -3.05370878385692 L 4.04839186345274 -3.34260666340858 L 3.80357118078127 -3.6187486938631 L 3.53716189963786 -3.87955952540278 L 3.2506473699175 -4.12259475820062 L 2.94587109148972 -4.34561159241537 L 2.62499981420116 -4.54663302818697 L 2.29047448787903 -4.72400501563249 L 1.94494801233558 -4.87644055484302 L 1.5912160873729 -5.00305179588141 L 1.2321428127883 -5.10336368878129 L 0.870586288379454 -5.17731353354708 L 0.509328263949483 -5.22523493015518 L 0.151009789311449 -5.24782732855608 L -0.20192308570778 -5.24611507867727 L -0.547261461264552 -5.22139838042673 L -0.88306448749624 -5.17519988369668 L -1.20767706451999 -5.10920858836758 L -1.51973674243225 -5.02522599431191 L -1.81816952130902 -4.92511480139784 L -2.10217830120674 -4.81075285949243 L -2.37122338216359 -4.68399356846452 L -2.62499981420116 -4.54663302818697 L -2.87084574680006 -4.39553653888166 L -3.11514502950843 -4.22591625088747 L -3.35618976244716 -4.03713841424926 L -3.59210494574896 -3.82874357899956 L -3.82086587955714 -3.60048334515593 L -4.0403223140239 -3.3523562127185 L -4.24823294930788 -3.08464148166749 L -4.44230743557119 -2.79792805196121 L -4.62025677297584 -2.49313542353459 L -4.77985046167972 -2.17152629629825 L -4.91897815183219 -1.8347068701385 L -5.03571399356957 -1.4846148449182 L -5.12837798701076 -1.12349227047864 L -5.19559553225307 -0.753845946642395 L -5.23634557936876 -0.378393423217118 L -5.24999962840232 0 L -5.23634557936876 0.378393423217118 L -5.19559553225307 0.753845946642395 L -5.12837798701076 1.12349227047864 L -5.03571399356957 1.4846148449182 L -4.91897815183219 1.8347068701385 L -4.77985046167972 2.17152629629825 L -4.62025677297584 2.49313542353459 L -4.44230743557119 2.79792805196121 L -4.24823294930788 3.08464148166749 L -4.0403223140239 3.3523562127185 L -3.82086587955714 3.60048334515593 L -3.59210494574896 3.82874357899956 L -3.35618976244716 4.03713841424926 L -3.11514502950843 4.22591625088747 L -2.87084574680006 4.39553653888166 L -2.62499981420116 4.54663302818697 L -2.37122338216359 4.68399356846452 L -2.10217830120674 4.81075285949243 L -1.81816952130902 4.92511480139784 L -1.51973674243225 5.02522599431191 L -1.20767706451999 5.10920858836758 L -0.88306448749624 5.17519988369668 L -0.547261461264552 5.22139838042673 L -0.20192308570778 5.24611507867727 L 0.151009789311449 5.24782732855608 L 0.509328263949483 5.22523493015518 L 0.870586288379454 5.17731353354708 L 1.2321428127883 5.10336368878129 L 1.5912160873729 5.00305179588141 L 1.94494801233558 4.87644055484302 L 2.29047448787903 4.72400501563249 L 2.62499981420116 4.54663302818697 L 2.94587109148972 4.34561159241537 L 3.2506473699175 4.12259475820062 L 3.53716189963786 3.87955952540278 L 3.80357118078127 3.6187486938631 L 4.04839186345274 3.34260666340858 L 4.27052204773025 3.05370878385692 L 4.46924698366439 2.75469205502148 L 4.64423037127898 2.44818702671606 L 4.79549441057243 2.13675689875924 L 4.92338680152014 1.82284367097819 L 5.02854294407714 1.50872524321165 L 5.11184168818121 1.19648241531236 L 5.17435928375618 0.887976387148573 L 5.21732333071516 0.584836608604963 L 5.24206912896364 0.288457029582863 L 5.24999962840232 0 " />
  </g>
  <polyline points="14.9999989382923,0 14.9066378949005,-1.67096178172846 14.605262116232,-3.41852105803532 14.0668193043433,-5.20812473136625 13.2692297607971,-6.99482005490303 12.769276946184,-7.87054849291852 12.2014917363721,-8.72488213244834 11.5668339812935,-9.55030462402451 10.8673462308036,-10.3392822181803 10.1061768346796,-11.0844556154365 9.28756404262143,-11.7788421662875 8.41677450425636,-12.4160329711868 7.49999946914617,-12.9903800805342 6.54421273679725,-13.4971569946643 5.55699440667307,-13.9326875138372 4.5463316782083,-14.2944337882326 3.52040795082371,-14.5810389179465 2.48738952394129,-14.7923244029917 1.45522384699851,-14.9292428933005 0.431456519461285,-14.9937925387316 -0.576923059165088,-14.9889001390779 -2.52304122141784,-14.7862852534191 -4.34210489266358,-14.3577885337483 -6.00622367487639,-13.7450079771212 -7.49999946914617,-12.9903800805342 -8.90041437002408,-12.0740461953928 -10.2631572235684,-10.939267475713 -11.5437779329254,-9.57816052205286 -12.692306851632,-7.99408008417489 -13.2007334656453,-7.12324389581312 -13.6567154333706,-6.20436061085216 -14.0542235052348,-5.24201977896714 -14.3877540316274,-4.24175684976626 -14.6525086628879,-3.20997817279609 -14.8445585992945,-2.15384534754972 -14.9609872410536,-1.08112402347748 -14.9999989382923,0 -14.9609872410536,1.08112402347748 -14.8445585992945,2.15384534754972 -14.6525086628879,3.20997817279609 -14.3877540316274,4.24175684976626 -14.0542235052348,5.24201977896714 -13.6567154333706,6.20436061085216 -13.2007334656453,7.12324389581312 -12.692306851632,7.99408008417489 -11.5437779329254,9.57816052205286 -10.2631572235684,10.939267475713 -8.90041437002408,12.0740461953928 -7.49999946914617,12.9903800805342 -6.00622367487639,13.7450079771212 -4.34210489266358,14.3577885337483 -2.52304122141784,14.7862852534191 -0.576923059165088,14.9889001390779 0.431456519461285,14.9937925387316 1.45522384699851,14.9292428933005 2.48738952394129,14.7923244029917 3.52040795082371,14.5810389179465 4.5463316782083,14.2944337882326 5.55699440667307,13.9326875138372 6.54421273679725,13.4971569946643 7.49999946914617,12.9903800805342 8.41677450425636,12.4160329711868 9.28756404262143,11.7788421662875 10.1061768346796,11.0844556154365 10.8673462308036,10.3392822181803 11.5668339812935,9.55030462402451 12.2014917363721,8.72488213244834 12.769276946184,7.87054849291852 13.2692297607971,6.99482005490303 14.0668193043433,5.20812473136625 14.605262116232,3.41852105803532 14.9066378949005,1.67096178172846 14.9999989382923,0" style=" stroke-width: 0.00149999989382923;stroke: #000000; fill: none; " xmlns="http://www.w3.org/2000/svg" />
  <polyline points="12.7499990975485,0 12.6706422031654,-1.42031749946919 12.4144728212972,-2.90574294433002 11.9567964536918,-4.42690603666131 11.2788454016775,-5.94559712916757 10.3712679159163,-7.41614992508108 9.23724429618309,-8.78838987795323 8.59025039197765,-9.42178733312103 7.89442954122821,-10.0120158413444 7.15425834361791,-10.5536280030088 6.37499954877424,-11.0418230684541 5.56258085627766,-11.4725834379646 4.72344521567211,-11.8427843117616 3.86438192647705,-12.1502686899977 2.99234678820015,-12.3938830727546 1.23694026244873,-12.6898564518054 -0.490384615290324,-12.7405651482162 -2.14458509820516,-12.5683425104062 -3.69078918876404,-12.2041203361861 -5.10529013864493,-11.6832567730531 -6.37499954877424,-11.0418230684541 -7.56535221452047,-10.2629392735839 -8.72368363253317,-9.29837739185605 -9.81221135548662,-8.14143647374493 -10.7884607863872,-6.79496801904866 -11.608208178365,-5.27370652672433 -12.2295909343832,-3.60549319480133 -12.4546323184547,-2.72848135687668 -12.6178747569003,-1.83076862041725 -12.7168391998956,-0.91895543495586 -12.7499990975485,0 -12.7168391998956,0.91895543495586 -12.6178747569003,1.83076862041725 -12.4546323184547,2.72848135687668 -12.2295909343832,3.60549319480133 -11.608208178365,5.27370652672433 -10.7884607863872,6.79496801904866 -9.81221135548662,8.14143647374493 -8.72368363253317,9.29837739185605 -7.56535221452047,10.2629392735839 -6.37499954877424,11.0418230684541 -5.10529013864493,11.6832567730531 -3.69078918876404,12.2041203361861 -2.14458509820516,12.5683425104062 -0.490384615290324,12.7405651482162 1.23694026244873,12.6898564518054 2.99234678820015,12.3938830727546 3.86438192647705,12.1502686899977 4.72344521567211,11.8427843117616 5.56258085627766,11.4725834379646 6.37499954877424,11.0418230684541 7.15425834361791,10.5536280030088 7.89442954122821,10.0120158413444 8.59025039197765,9.42178733312103 9.23724429618309,8.78838987795323 10.3712679159163,7.41614992508108 11.2788454016775,5.94559712916757 11.9567964536918,4.42690603666131 12.4144728212972,2.90574294433002 12.6706422031654,1.42031749946919 12.7499990975485,0" style=" stroke-width: 0.00149999989382923;stroke: #ffffff; fill: none; " xmlns="http://www.w3.org/2000/svg" />
  <polyline points="5.24999962840232,0 5.24206912896364,-0.288457029582863 5.21732333071516,-0.584836608604963 5.17435928375618,-0.887976387148573 5.11184168818121,-1.19648241531236 5.02854294407714,-1.50872524321165 4.92338680152014,-1.82284367097819 4.79549441057243,-2.13675689875924 4.64423037127898,-2.44818702671606 4.46924698366439,-2.75469205502148 4.27052204773025,-3.05370878385692 4.04839186345274,-3.34260666340858 3.80357118078127,-3.6187486938631 3.53716189963786,-3.87955952540278 3.2506473699175,-4.12259475820062 2.94587109148972,-4.34561159241537 2.62499981420116,-4.54663302818697 2.29047448787903,-4.72400501563249 1.94494801233558,-4.87644055484302 1.5912160873729,-5.00305179588141 1.2321428127883,-5.10336368878129 0.870586288379454,-5.17731353354708 0.509328263949483,-5.22523493015518 0.151009789311449,-5.24782732855608 -0.20192308570778,-5.24611507867727 -0.547261461264552,-5.22139838042673 -0.88306448749624,-5.17519988369668 -1.20767706451999,-5.10920858836758 -1.51973674243225,-5.02522599431191 -1.81816952130902,-4.92511480139784 -2.10217830120674,-4.81075285949243 -2.37122338216359,-4.68399356846452 -2.62499981420116,-4.54663302818697 -2.87084574680006,-4.39553653888166 -3.11514502950843,-4.22591625088747 -3.35618976244716,-4.03713841424926 -3.59210494574896,-3.82874357899956 -3.82086587955714,-3.60048334515593 -4.0403223140239,-3.3523562127185 -4.24823294930788,-3.08464148166749 -4.44230743557119,-2.79792805196121 -4.62025677297584,-2.49313542353459 -4.77985046167972,-2.17152629629825 -4.91897815183219,-1.8347068701385 -5.03571399356957,-1.4846148449182 -5.12837798701076,-1.12349227047864 -5.19559553225307,-0.753845946642395 -5.23634557936876,-0.378393423217118 -5.24999962840232,0 -5.23634557936876,0.378393423217118 -5.19559553225307,0.753845946642395 -5.12837798701076,1.12349227047864 -5.03571399356957,1.4846148449182 -4.91897815183219,1.8347068701385 -4.77985046167972,2.17152629629825 -4.62025677297584,2.49313542353459 -4.44230743557119,2.79792805196121 -4.24823294930788,3.08464148166749 -4.0403223140239,3.3523562127185 -3.82086587955714,3.60048334515593 -3.59210494574896,3.82874357899956 -3.35618976244716,4.03713841424926 -3.11514502950843,4.22591625088747 -2.87084574680006,4.39553653888166 -2.62499981420116,4.54663302818697 -2.37122338216359,4.68399356846452 -2.10217830120674,4.81075285949243 -1.81816952130902,4.92511480139784 -1.51973674243225,5.02522599431191 -1.20767706451999,5.10920858836758 -0.88306448749624,5.17519988369668 -0.547261461264552,5.22139838042673 -0.20192308570778,5.24611507867727 0.151009789311449,5.24782732855608 0.509328263949483,5.22523493015518 0.870586288379454,5.17731353354708 1.2321428127883,5.10336368878129 1.5912160873729,5.00305179588141 1.94494801233558,4.87644055484302 2.29047448787903,4.72400501563249 2.62499981420116,4.54663302818697 2.94587109148972,4.34561159241537 3.2506473699175,4.12259475820062 3.53716189963786,3.87955952540278 3.80357118078127,3.6187486938631 4.04839186345274,3.34260666340858 4.27052204773025,3.05370878385692 4.46924698366439,2.75469205502148 4.64423037127898,2.44818702671606 4.79549441057243,2.13675689875924 4.92338680152014,1.82284367097819 5.02854294407714,1.50872524321165 5.11184168818121,1.19648241531236 5.17435928375618,0.887976387148573 5.21732333071516,0.584836608604963 5.24206912896364,0.288457029582863 5.24999962840232,0" style=" stroke-width: 0.00149999989382923;stroke: #000000; fill: none; " xmlns="http://www.w3.org/2000/svg" />
  <polyline points="2.99999978765847,0 2.98132763898009,-0.334192326345695 2.92105239324641,-0.683704151607068 2.81336380086866,-1.04162497627325 2.65384601215941,-1.39896395098061 2.5538554192368,-1.57410963858371 2.44029837727442,-1.74497642648967 2.31336673625871,-1.91006086480491 2.17346924616073,-2.06785650363605 2.02123530693592,-2.2168910930873 1.85751286852428,-2.3557684332575 1.68335493085127,-2.48320662423735 1.49999989382923,-2.59807601610684 1.30884260735945,-2.69943145893285 1.11139882133462,-2.78653750276744 0.90926633564166,-2.85888669764653 0.704081650164738,-2.91620784358931 0.497477964788253,-2.95846494059833 0.291044829399697,-2.98584863866009 0.0862912438922613,-2.99875853774632 -0.115384641833016,-2.99778008781558 -0.50460821428357,-2.95725699068383 -0.868421038532711,-2.87155764674967 -1.20124476497528,-2.74900165542425 -1.49999989382923,-2.59807601610684 -1.78008287400482,-2.41480917907856 -2.05263150471368,-2.1878534951426 -2.30875558658509,-1.91563216441057 -2.5384613703264,-1.59881598683498 -2.64014666312906,-1.42464874916263 -2.73134305667413,-1.24087206217044 -2.81084470104696,-1.04840392579343 -2.87755074632547,-0.848351339953255 -2.93050179257757,-0.64199560455922 -2.9689116898589,-0.430769069509943 -2.99219738821073,-0.216224834695495 -2.99999978765847,0 -2.99219738821073,0.216224834695495 -2.9689116898589,0.430769069509943 -2.93050179257757,0.64199560455922 -2.87755074632547,0.848351339953255 -2.81084470104696,1.04840392579343 -2.73134305667413,1.24087206217044 -2.64014666312906,1.42464874916263 -2.5384613703264,1.59881598683498 -2.30875558658509,1.91563216441057 -2.05263150471368,2.1878534951426 -1.78008287400482,2.41480917907856 -1.49999989382923,2.59807601610684 -1.20124476497528,2.74900165542425 -0.868421038532711,2.87155764674967 -0.50460821428357,2.95725699068383 -0.115384641833016,2.99778008781558 0.0862912438922613,2.99875853774632 0.291044829399697,2.98584863866009 0.497477964788253,2.95846494059833 0.704081650164738,2.91620784358931 0.90926633564166,2.85888669764653 1.11139882133462,2.78653750276744 1.30884260735945,2.69943145893285 1.49999989382923,2.59807601610684 1.68335493085127,2.48320662423735 1.85751286852428,2.3557684332575 2.02123530693592,2.2168910930873 2.17346924616073,2.06785650363605 2.31336673625871,1.91006086480491 2.44029837727442,1.74497642648967 2.5538554192368,1.57410963858371 2.65384601215941,1.39896395098061 2.81336380086866,1.04162497627325 2.92105239324641,0.683704151607068 2.98132763898009,0.334192326345695 2.99999978765847,0" style=" stroke-width: 0.00149999989382923;stroke: #ffffff; fill: none; " xmlns="http://www.w3.org/2000/svg" />
  <g id="ComplexString2d_1614" style=" fill-rule: evenodd; stroke-width: 0;stroke: #ffffff; fill: #ffffff; " xmlns="http://www.w3.org/2000/svg">
    <path d="M 2.99999978765847 0 L 2.98132763898009 -0.334192326345695 L 2.92105239324641 -0.683704151607068 L 2.81336380086866 -1.04162497627325 L 2.65384601215941 -1.39896395098061 L 2.5538554192368 -1.57410963858371 L 2.44029837727442 -1.74497642648967 L 2.31336673625871 -1.91006086480491 L 2.17346924616073 -2.06785650363605 L 2.02123530693592 -2.2168910930873 L 1.85751286852428 -2.3557684332575 L 1.68335493085127 -2.48320662423735 L 1.49999989382923 -2.59807601610684 L 1.30884260735945 -2.69943145893285 L 1.11139882133462 -2.78653750276744 L 0.90926633564166 -2.85888669764653 L 0.704081650164738 -2.91620784358931 L 0.497477964788253 -2.95846494059833 L 0.291044829399697 -2.98584863866009 L 0.0862912438922613 -2.99875853774632 L -0.115384641833016 -2.99778008781558 L -0.50460821428357 -2.95725699068383 L -0.868421038532711 -2.87155764674967 L -1.20124476497528 -2.74900165542425 L -1.49999989382923 -2.59807601610684 L -1.78008287400482 -2.41480917907856 L -2.05263150471368 -2.1878534951426 L -2.30875558658509 -1.91563216441057 L -2.5384613703264 -1.59881598683498 L -2.64014666312906 -1.42464874916263 L -2.73134305667413 -1.24087206217044 L -2.81084470104696 -1.04840392579343 L -2.87755074632547 -0.848351339953255 L -2.93050179257757 -0.64199560455922 L -2.9689116898589 -0.430769069509943 L -2.99219738821073 -0.216224834695495 L -2.99999978765847 0 L -2.99219738821073 0.216224834695495 L -2.9689116898589 0.430769069509943 L -2.93050179257757 0.64199560455922 L -2.87755074632547 0.848351339953255 L -2.81084470104696 1.04840392579343 L -2.73134305667413 1.24087206217044 L -2.64014666312906 1.42464874916263 L -2.5384613703264 1.59881598683498 L -2.30875558658509 1.91563216441057 L -2.05263150471368 2.1878534951426 L -1.78008287400482 2.41480917907856 L -1.49999989382923 2.59807601610684 L -1.20124476497528 2.74900165542425 L -0.868421038532711 2.87155764674967 L -0.50460821428357 2.95725699068383 L -0.115384641833016 2.99778008781558 L 0.0862912438922613 2.99875853774632 L 0.291044829399697 2.98584863866009 L 0.497477964788253 2.95846494059833 L 0.704081650164738 2.91620784358931 L 0.90926633564166 2.85888669764653 L 1.11139882133462 2.78653750276744 L 1.30884260735945 2.69943145893285 L 1.49999989382923 2.59807601610684 L 1.68335493085127 2.48320662423735 L 1.85751286852428 2.3557684332575 L 2.02123530693592 2.2168910930873 L 2.17346924616073 2.06785650363605 L 2.31336673625871 1.91006086480491 L 2.44029837727442 1.74497642648967 L 2.5538554192368 1.57410963858371 L 2.65384601215941 1.39896395098061 L 2.81336380086866 1.04162497627325 L 2.92105239324641 0.683704151607068 L 2.98132763898009 0.334192326345695 L 2.99999978765847 0 " />
  </g>
</svg>