<?xml version="1.0" encoding="UTF-8"?>
<svg viewBox="-13.125001018634 -18.1249979142257 30 31.2500000970128" xmlns="http://www.w3.org/2000/svg" xmlns:xlink="http://www.w3.org/1999/xlink" xmlns:gmsvgsym="http://www.intergraph.com/GeoMedia/svgsym">
  <!-- Creator: SVG Document for Symbols-->
  <path id="LineString2d_1630" style=" stroke-width: 0.00124999989212181;stroke: #00ccff; fill: none; " d="M -13.124999367279 13.1250008672788 L -13.124999367279 -13.1249983672791 L -9.3749990659136 -18.1249964357664 L 16.8749980436445 -18.1249964357664 L 16.8749980436445 8.125008298791 L 13.1249983672791 13.1250008672788 L -13.124999367279 13.1250008672788 " xmlns="http://www.w3.org/2000/svg" />
  <g id="ComplexString2d_1631" style=" fill-rule: evenodd; stroke-width: 0;stroke: #00ccff; fill: #00ccff; " xmlns="http://www.w3.org/2000/svg">
    <path d="M -13.124999367279 13.1250008672788 L -13.124999367279 -13.1249983672791 L -9.3749990659136 -18.1249964357664 L 16.8749980436445 -18.1249964357664 L 16.8749980436445 8.125008298791 L 13.1249983672791 13.1250008672788 L -13.124999367279 13.1250008672788 " />
  </g>
  <path id="LineString2d_1632" style=" stroke-width: 0.00124999989212181;stroke: #ffffff; fill: none; " d="M -9.99999751197463 -13.1249983672791 L -8.1250001737917 -15.6249901515234 L 13.1645237388679 -15.6249901515234 L 11.0811969186644 -13.1249983672791 L -9.99999751197463 -13.1249983672791 " xmlns="http://www.w3.org/2000/svg" />
  <g id="ComplexString2d_1633" style=" fill-rule: evenodd; stroke-width: 0;stroke: #ffffff; fill: #ffffff; " xmlns="http://www.w3.org/2000/svg">
    <path d="M -9.99999751197463 -13.1249983672791 L -8.1250001737917 -15.6249901515234 L 13.1645237388679 -15.6249901515234 L 11.0811969186644 -13.1249983672791 L -9.99999751197463 -13.1249983672791 " />
  </g>
  <path id="LineString2d_1634" style=" stroke-width: 0.00124999989212181;stroke: #ffffff; fill: none; " d="M 13.1249983672791 8.95834022687232 L 13.1249983672791 -11.6724342426391 L 14.3749993844008 -13.1724352381851 L 14.3749993844008 7.2916748707098 L 13.1249983672791 8.95834022687232 " xmlns="http://www.w3.org/2000/svg" />
  <g id="ComplexString2d_1635" style=" fill-rule: evenodd; stroke-width: 0;stroke: #ffffff; fill: #ffffff; " xmlns="http://www.w3.org/2000/svg">
    <path d="M 13.1249983672791 8.95834022687232 L 13.1249983672791 -11.6724342426391 L 14.3749993844008 -13.1724352381851 L 14.3749993844008 7.2916748707098 L 13.1249983672791 8.95834022687232 " />
  </g>
  <path id="LineString2d_1636" style=" stroke-width: 0.00124999989212181;stroke: #ffffff; fill: none; " d="M -10.6249990830354 10.6249990830354 L -10.6249990830354 -10.6249990830354 L 10.6249990830354 -10.6249990830354 L 10.6249990830354 10.6249990830354 L -10.6249990830354 10.6249990830354 " xmlns="http://www.w3.org/2000/svg" />
  <g id="ComplexString2d_1637" style=" fill-rule: evenodd; stroke-width: 0;stroke: #ffffff; fill: #ffffff; " xmlns="http://www.w3.org/2000/svg">
    <path d="M -10.6249990830354 10.6249990830354 L -10.6249990830354 -10.6249990830354 L 10.6249990830354 -10.6249990830354 L 10.6249990830354 10.6249990830354 L -10.6249990830354 10.6249990830354 " />
  </g>
</svg>