<?xml version="1.0" encoding="UTF-8"?>
<svg viewBox="-15 -15 30 30" xmlns="http://www.w3.org/2000/svg" xmlns:xlink="http://www.w3.org/1999/xlink" xmlns:gmsvgsym="http://www.intergraph.com/GeoMedia/svgsym">
  <!-- Creator: SVG Document for Symbols-->
  <polyline points="14.9999985391542,0 14.9773399699323,-0.824163026877841 14.9066375839608,-1.67096169440835 14.7838832744873,-2.53707521720064 14.6052616847403,-3.41852098849973 14.3672651722045,-4.31064343733045 14.0668189514648,-5.20812463563928 13.7014121299089,-6.10501944114808 13.2692294934276,-6.99481989020494 12.7692766492607,-7.87054830491798 12.2014913474143,-8.72488190028609 11.5668336949377,-9.55030439132699 10.8673458344892,-10.3392819216315 10.1061765871907,-11.0844553847736 9.28756388120093,-11.7788417457189 8.4167742160069,-12.416032683663 7.49999926957708,-12.9903798420132 6.54421264837517,-13.497156614087 5.55699428023439,-13.9326871430993 4.54633155723399,-14.2944333221547 3.52040783571985,-14.581038508528 2.48738943632524,-14.792323987951 1.45522378684757,-14.9292424746165 0.431456529409136,-14.9937920754729 -0.576922979527911,-14.9888997188065 -1.5636041334353,-14.9182806899698 -2.52304121856741,-14.7862848813962 -3.45050580681331,-14.5977383283302 -4.34210486283786,-14.3577881731274 -5.19477002979702,-14.0717560938412 -6.00622345076979,-13.7450076970917 -6.77492376876342,-13.3828384109347 -7.49999926957708,-12.9903798420132 -8.20241609402604,-12.558675276914 -8.90041402604821,-12.0740458955405 -9.58911324469026,-11.5346808766405 -10.2631569290453,-10.9392671846277 -10.9167593653912,-10.2870948909997 -11.5437776257546,-9.57816024575697 -12.1378079964736,-8.81326124882171 -12.6923064067568,-7.99407982860156 -13.200733071527,-7.12324377055491 -13.6567151342619,-6.20436046718757 -14.054223131263,-5.24201959662397 -14.3877536702091,-4.24175669403931 -14.6525082515676,-3.20997804452396 -14.8445581614353,-2.15384539738043 -14.9609868643821,-1.08112393042392 -14.9999985391542,0 -14.9609868643821,1.08112393042392 -14.8445581614353,2.15384539738043 -14.6525082515676,3.20997804452396 -14.3877536702091,4.24175669403931 -14.054223131263,5.24201959662397 -13.6567151342619,6.20436046718757 -13.200733071527,7.12324377055491 -12.6923064067568,7.99407982860156 -12.1378079964736,8.81326124882171 -11.5437776257546,9.57816024575697 -10.9167593653912,10.2870948909997 -10.2631569290453,10.9392671846277 -9.58911324469026,11.5346808766405 -8.90041402604821,12.0740458955405 -8.20241609402604,12.558675276914 -7.49999926957708,12.9903798420132 -6.77492376876342,13.3828384109347 -6.00622345076979,13.7450076970917 -5.19477002979702,14.0717560938412 -4.34210486283786,14.3577881731274 -3.45050580681331,14.5977383283302 -2.52304121856741,14.7862848813962 -1.5636041334353,14.9182806899698 -0.576922979527911,14.9888997188065 0.431456529409136,14.9937920754729 1.45522378684757,14.9292424746165 2.48738943632524,14.792323987951 3.52040783571985,14.581038508528 4.54633155723399,14.2944333221547 5.55699428023439,13.9326871430993 6.54421264837517,13.497156614087 7.49999926957708,12.9903798420132 8.4167742160069,12.416032683663 9.28756388120093,11.7788417457189 10.1061765871907,11.0844553847736 10.8673458344892,10.3392819216315 11.5668336949377,9.55030439132699 12.2014913474143,8.72488190028609 12.7692766492607,7.87054830491798 13.2692294934276,6.99481989020494 13.7014121299089,6.10501944114808 14.0668189514648,5.20812463563928 14.3672651722045,4.31064343733045 14.6052616847403,3.41852098849973 14.7838832744873,2.53707521720064 14.9066375839608,1.67096169440835 14.9773399699323,0.824163026877841 14.9999985391542,0" style=" stroke-width: 0.00107142846708244;stroke: #ffffff; fill: none; " xmlns="http://www.w3.org/2000/svg" />
  <g id="ComplexString2d_1695" style=" fill-rule: evenodd; stroke-width: 0;stroke: #ffffff; fill: #ffffff; " xmlns="http://www.w3.org/2000/svg">
    <path d="M 14.9999985391542 0 L 14.9773399699323 -0.824163026877841 L 14.9066375839608 -1.67096169440835 L 14.7838832744873 -2.53707521720064 L 14.6052616847403 -3.41852098849973 L 14.3672651722045 -4.31064343733045 L 14.0668189514648 -5.20812463563928 L 13.7014121299089 -6.10501944114808 L 13.2692294934276 -6.99481989020494 L 12.7692766492607 -7.87054830491798 L 12.2014913474143 -8.72488190028609 L 11.5668336949377 -9.55030439132699 L 10.8673458344892 -10.3392819216315 L 10.1061765871907 -11.0844553847736 L 9.28756388120093 -11.7788417457189 L 8.4167742160069 -12.416032683663 L 7.49999926957708 -12.9903798420132 L 6.54421264837517 -13.497156614087 L 5.55699428023439 -13.9326871430993 L 4.54633155723399 -14.2944333221547 L 3.52040783571985 -14.581038508528 L 2.48738943632524 -14.792323987951 L 1.45522378684757 -14.9292424746165 L 0.431456529409136 -14.9937920754729 L -0.576922979527911 -14.9888997188065 L -1.5636041334353 -14.9182806899698 L -2.52304121856741 -14.7862848813962 L -3.45050580681331 -14.5977383283302 L -4.34210486283786 -14.3577881731274 L -5.19477002979702 -14.0717560938412 L -6.00622345076979 -13.7450076970917 L -6.77492376876342 -13.3828384109347 L -7.49999926957708 -12.9903798420132 L -8.20241609402604 -12.558675276914 L -8.90041402604821 -12.0740458955405 L -9.58911324469026 -11.5346808766405 L -10.2631569290453 -10.9392671846277 L -10.9167593653912 -10.2870948909997 L -11.5437776257546 -9.57816024575697 L -12.1378079964736 -8.81326124882171 L -12.6923064067568 -7.99407982860156 L -13.200733071527 -7.12324377055491 L -13.6567151342619 -6.20436046718757 L -14.054223131263 -5.24201959662397 L -14.3877536702091 -4.24175669403931 L -14.6525082515676 -3.20997804452396 L -14.8445581614353 -2.15384539738043 L -14.9609868643821 -1.08112393042392 L -14.9999985391542 0 L -14.9609868643821 1.08112393042392 L -14.8445581614353 2.15384539738043 L -14.6525082515676 3.20997804452396 L -14.3877536702091 4.24175669403931 L -14.054223131263 5.24201959662397 L -13.6567151342619 6.20436046718757 L -13.200733071527 7.12324377055491 L -12.6923064067568 7.99407982860156 L -12.1378079964736 8.81326124882171 L -11.5437776257546 9.57816024575697 L -10.9167593653912 10.2870948909997 L -10.2631569290453 10.9392671846277 L -9.58911324469026 11.5346808766405 L -8.90041402604821 12.0740458955405 L -8.20241609402604 12.558675276914 L -7.49999926957708 12.9903798420132 L -6.77492376876342 13.3828384109347 L -6.00622345076979 13.7450076970917 L -5.19477002979702 14.0717560938412 L -4.34210486283786 14.3577881731274 L -3.45050580681331 14.5977383283302 L -2.52304121856741 14.7862848813962 L -1.5636041334353 14.9182806899698 L -0.576922979527911 14.9888997188065 L 0.431456529409136 14.9937920754729 L 1.45522378684757 14.9292424746165 L 2.48738943632524 14.792323987951 L 3.52040783571985 14.581038508528 L 4.54633155723399 14.2944333221547 L 5.55699428023439 13.9326871430993 L 6.54421264837517 13.497156614087 L 7.49999926957708 12.9903798420132 L 8.4167742160069 12.416032683663 L 9.28756388120093 11.7788417457189 L 10.1061765871907 11.0844553847736 L 10.8673458344892 10.3392819216315 L 11.5668336949377 9.55030439132699 L 12.2014913474143 8.72488190028609 L 12.7692766492607 7.87054830491798 L 13.2692294934276 6.99481989020494 L 13.7014121299089 6.10501944114808 L 14.0668189514648 5.20812463563928 L 14.3672651722045 4.31064343733045 L 14.6052616847403 3.41852098849973 L 14.7838832744873 2.53707521720064 L 14.9066375839608 1.67096169440835 L 14.9773399699323 0.824163026877841 L 14.9999985391542 0 " />
  </g>
</svg>