<?xml version="1.0" encoding="UTF-8"?>
<svg viewBox="-14.9999967129826 -15.8823258716212 30 30.882309436534" xmlns="http://www.w3.org/2000/svg" xmlns:xlink="http://www.w3.org/1999/xlink" xmlns:gmsvgsym="http://www.intergraph.com/GeoMedia/svgsym">
  <!-- Creator: SVG Document for Symbols-->
  <path id="LineString2d_1620" style=" stroke-width: 0.00176470404626367;stroke: #3a8bbd; fill: none; " d="M -14.9999760991322 13.1282249289518 L -1.87175134665084 0 L -8.8900299856476 -7.01827863899676 L -14.9999948049951 -0.908313819649255 L -14.9999948049951 -8.3953190297822 L -7.51298959486216 -15.8823242399152 L -3.76948690156048 -12.1388215466135 L -7.01827863899676 -8.8900299856476 L 0 -1.87175134665084 L 7.01828199193445 -8.89003316211488 L 3.76949360743586 -12.1388215466135 L 7.51299612426713 -15.8823242399152 L 15.0000013344001 -8.3953190297822 L 15.0000013344001 -0.908313819649255 L 8.89003316211488 -7.01828199193445 L 1.87175134665084 0 L 14.9999824520668 13.1282311054159 L 13.1282311054159 14.9999824520668 L 0 1.87175134665084 L -13.1282249289518 14.9999760991322 L -14.9999760991322 13.1282249289518 " xmlns="http://www.w3.org/2000/svg" />
  <g id="ComplexString2d_1621" style=" fill-rule: evenodd; stroke-width: 0;stroke: #3a8bbd; fill: #3a8bbd; " xmlns="http://www.w3.org/2000/svg">
    <path d="M -14.9999760991322 13.1282249289518 L -1.87175134665084 0 L -8.8900299856476 -7.01827863899676 L -14.9999948049951 -0.908313819649255 L -14.9999948049951 -8.3953190297822 L -7.51298959486216 -15.8823242399152 L -3.76948690156048 -12.1388215466135 L -7.01827863899676 -8.8900299856476 L 0 -1.87175134665084 L 7.01828199193445 -8.89003316211488 L 3.76949360743586 -12.1388215466135 L 7.51299612426713 -15.8823242399152 L 15.0000013344001 -8.3953190297822 L 15.0000013344001 -0.908313819649255 L 8.89003316211488 -7.01828199193445 L 1.87175134665084 0 L 14.9999824520668 13.1282311054159 L 13.1282311054159 14.9999824520668 L 0 1.87175134665084 L -13.1282249289518 14.9999760991322 L -14.9999760991322 13.1282249289518 " />
  </g>
</svg>