<?xml version="1.0" encoding="UTF-8"?>
<svg viewBox="-15.0000028063847 -15.1660551866199 30 30.8343381749706" xmlns="http://www.w3.org/2000/svg" xmlns:xlink="http://www.w3.org/1999/xlink" xmlns:gmsvgsym="http://www.intergraph.com/GeoMedia/svgsym">
  <!-- Creator: SVG Document for Symbols-->
  <path id="LineString2d_1702" style=" stroke-width: 0.000753333159961122;stroke: #ffffff; fill: none; " d="M -1.35599968793002E-06 14.3678214893873 L -0.44525289352943 14.7507206959335 L -1.05611621361192 15.1538346938275 L -1.7866963014761 15.4820280516303 L -2.65512196894982 15.6682814640993 L -3.60762082240825 15.581206471472 L -4.45013521917852 15.0907116276879 L -4.94063593896127 14.2482005455836 L -5.02771582825403 13.2957012401252 L -4.84146490178451 12.4272732373187 L -4.5132717699816 11.6966895334554 L -4.11015649142128 11.0858228233737 L -3.65110584906726 10.5628636143943 L -3.128145962088 10.1038141773733 L -2.95481251464565 9.9763154780492 L -3.06330205701119 9.69395031436609 L -15.0000020285639 9.69395031436609 L -3.76666564913898 -5.8598999934017 L -3.76665547914132 -11.399388334543 L -3.63830965667885 -12.3742724828497 L -3.26201831194526 -13.2827207071126 L -2.66342505637228 -14.0628228829131 L -1.88332295590509 -14.6614164398193 L -0.974874731642177 -15.0377080858862 L 1.03206642914674E-05 -15.1660541343486 L 0.974895297637444 -15.0377080858862 L 1.88334352190036 -14.6614164398193 L 2.66344562236754 -14.0628228829131 L 3.26203887794053 -13.2827207071126 L 3.63833022267411 -12.3742724828497 L 3.76666595047224 -11.390641232556 L 3.76666595047224 -5.85989193273689 L 14.9999964538985 9.69395031436609 L 3.06329723567896 9.69395031436609 L 2.95480912464643 9.97631201271666 L 3.12814603742132 10.1038140267067 L 3.65110426706763 10.5628651963939 L 4.11015249875553 11.0858250833732 L 4.51326468864989 11.6966914167883 L 4.84145435512027 12.4272732373187 L 5.02770211759052 13.2956975487928 L 4.94062087229807 14.2481918822522 L 4.4501224125148 15.0906988210242 L 3.60761321374333 15.5811932881417 L 2.65511918161712 15.6682712187683 L 1.7866963014761 15.4820217989651 L 1.05611689161176 15.1538319064948 L 0.445252968862745 14.7507206206002 L -1.35599968793002E-06 14.3678214893873 " xmlns="http://www.w3.org/2000/svg" />
  <g id="ComplexString2d_1703" style=" fill-rule: evenodd; stroke-width: 0;stroke: #ffffff; fill: #ffffff; " xmlns="http://www.w3.org/2000/svg">
    <path d="M -1.35599968793002E-06 14.3678214893873 L -0.44525289352943 14.7507206959335 L -1.05611621361192 15.1538346938275 L -1.7866963014761 15.4820280516303 L -2.65512196894982 15.6682814640993 L -3.60762082240825 15.581206471472 L -4.45013521917852 15.0907116276879 L -4.94063593896127 14.2482005455836 L -5.02771582825403 13.2957012401252 L -4.84146490178451 12.4272732373187 L -4.5132717699816 11.6966895334554 L -4.11015649142128 11.0858228233737 L -3.65110584906726 10.5628636143943 L -3.128145962088 10.1038141773733 L -2.95481251464565 9.9763154780492 L -3.06330205701119 9.69395031436609 L -15.0000020285639 9.69395031436609 L -3.76666564913898 -5.8598999934017 L -3.76665547914132 -11.399388334543 L -3.63830965667885 -12.3742724828497 L -3.26201831194526 -13.2827207071126 L -2.66342505637228 -14.0628228829131 L -1.88332295590509 -14.6614164398193 L -0.974874731642177 -15.0377080858862 L 1.03206642914674E-05 -15.1660541343486 L 0.974895297637444 -15.0377080858862 L 1.88334352190036 -14.6614164398193 L 2.66344562236754 -14.0628228829131 L 3.26203887794053 -13.2827207071126 L 3.63833022267411 -12.3742724828497 L 3.76666595047224 -11.390641232556 L 3.76666595047224 -5.85989193273689 L 14.9999964538985 9.69395031436609 L 3.06329723567896 9.69395031436609 L 2.95480912464643 9.97631201271666 L 3.12814603742132 10.1038140267067 L 3.65110426706763 10.5628651963939 L 4.11015249875553 11.0858250833732 L 4.51326468864989 11.6966914167883 L 4.84145435512027 12.4272732373187 L 5.02770211759052 13.2956975487928 L 4.94062087229807 14.2481918822522 L 4.4501224125148 15.0906988210242 L 3.60761321374333 15.5811932881417 L 2.65511918161712 15.6682712187683 L 1.7866963014761 15.4820217989651 L 1.05611689161176 15.1538319064948 L 0.445252968862745 14.7507206206002 L -1.35599968793002E-06 14.3678214893873 " />
  </g>
</svg>