<?xml version="1.0" encoding="UTF-8"?>
<svg viewBox="-15.0000029053431 -59.9220786978423 30 59.9220786978423" xmlns="http://www.w3.org/2000/svg" xmlns:xlink="http://www.w3.org/1999/xlink" xmlns:gmsvgsym="http://www.intergraph.com/GeoMedia/svgsym">
  <!-- Creator: SVG Document for Symbols-->
  <path id="LineString2d_1656" style=" stroke-width: 0.00249567072654148;stroke: #000000; fill: none; " d="M -2.49567072654148 0 L -2.49567072654148 -38.8969961095168 L -11.4705895645434 -29.9220772715149 L -15.0000010471402 -33.4514887541117 L -3.52941422783463 -44.9220755734173 L -15.0000012967073 -56.3926626422899 L -11.4705900636775 -59.9220741248868 L -2.74523779919562E-06 -48.451486806447 L 11.4705845732019 -59.9220741248868 L 14.9999958062317 -56.3926626422899 L 3.52940873735904 -44.9220755734173 L 14.9999955566646 -33.4514887541117 L 11.4705840740678 -29.9220772715149 L 2.49567072654148 -38.8969906190412 L 2.49567072654148 0 L -2.49567072654148 0 " xmlns="http://www.w3.org/2000/svg" />
  <g id="ComplexString2d_1657" style=" fill-rule: evenodd; stroke-width: 0;stroke: #000000; fill: #000000; " xmlns="http://www.w3.org/2000/svg">
    <path d="M -2.49567072654148 0 L -2.49567072654148 -38.8969961095168 L -11.4705895645434 -29.9220772715149 L -15.0000010471402 -33.4514887541117 L -3.52941422783463 -44.9220755734173 L -15.0000012967073 -56.3926626422899 L -11.4705900636775 -59.9220741248868 L -2.74523779919562E-06 -48.451486806447 L 11.4705845732019 -59.9220741248868 L 14.9999958062317 -56.3926626422899 L 3.52940873735904 -44.9220755734173 L 14.9999955566646 -33.4514887541117 L 11.4705840740678 -29.9220772715149 L 2.49567072654148 -38.8969906190412 L 2.49567072654148 0 L -2.49567072654148 0 " />
  </g>
</svg>