<?xml version="1.0" encoding="UTF-8"?>
<svg viewBox="-14.9999930150818 -17.3432898685159 30 34.6865937068681" xmlns="http://www.w3.org/2000/svg" xmlns:xlink="http://www.w3.org/1999/xlink" xmlns:gmsvgsym="http://www.intergraph.com/GeoMedia/svgsym">
  <!-- Creator: SVG Document for Symbols-->
  <path id="LineString2d_1594" style=" stroke-width: 0.0009374998463318;stroke: #000000; fill: none; " d="M 1.68749972339724E-06 14.7153138067221 L -0.716553070047799 15.5245224240825 L -0.973845121624345 15.8422200282578 L -1.22912004853152 16.1151035460287 L -1.50200534755214 16.3703752854364 L -1.8197032329774 16.6276625557637 L -2.22348132304301 16.8995037612055 L -2.77373701409907 17.1743243411589 L -3.50667645646094 17.3433013759614 L -4.21220002831661 17.1094608830408 L -4.4460561774846 16.4039464049337 L -4.27708664268087 15.6710040563223 L -4.00226662522738 15.1207422715172 L -3.7304237322859 14.7169589314525 L -3.47313327445909 14.399255983528 L -3.21785787880199 14.1263663720081 L -2.94497004853179 13.8710877888515 L -2.6272674756073 13.6137924560255 L -2.22348132304301 13.3419419693353 L -1.67321241323911 13.0671114518835 L -1.52184462555023 13.011841617193 L -1.7118086256627 12.6579131127064 L -2.68828915310507 9.84420729265868 L -14.99999041631 9.84420729265868 L -2.81249241399657 -7.03078994131372 L -2.81249241399657 -14.5308004307162 L -2.71665499220555 -15.258731280149 L -2.43568066326083 -15.9370527314635 L -1.98871814277369 -16.5195383547367 L -1.40622801950127 -16.9664931877251 L -0.727906568186816 -17.2474586104212 L 1.9781246757601E-05 -17.3432882509635 L 0.727944443180608 -17.2474522354223 L 1.40626130074581 -16.9664822189769 L 1.98874504901928 -16.5195257922387 L 2.43570128825745 -15.9370418564653 L 2.71667102345292 -15.2587249989001 L 2.81250666399423 -14.5308004307162 L 2.81250666399423 -7.03078994131372 L 15.0000046663076 9.84420729265868 L 2.69306580857212 9.84420729265868 L 1.7118220319105 12.6579141439562 L 1.52185859429794 13.011841617193 L 1.67322638198682 13.0671114518835 L 2.22349529179072 13.3419419693353 L 2.62728144435501 13.6137924560255 L 2.9449840172795 13.8710877888515 L 3.2178718475497 14.1263663720081 L 3.4731472432068 14.399255983528 L 3.73043770103361 14.7169589314525 L 4.0022805002251 15.1207422715172 L 4.27710061142858 15.6710040563223 L 4.44607014623231 16.4039464049337 L 4.21221399706432 17.1094608830408 L 3.50669042520865 17.3433013759614 L 2.77375098284678 17.1743243411589 L 2.22349529179072 16.8995037612055 L 1.81971720172511 16.6276625557637 L 1.50201931629985 16.3703752854364 L 1.22913401727923 16.1151035460287 L 0.973859090372056 15.8422200282578 L 0.71656703879551 15.5245224240825 L 1.68749972339724E-06 14.7153138067221 " xmlns="http://www.w3.org/2000/svg" />
  <g id="ComplexString2d_1595" style=" fill-rule: evenodd; stroke-width: 0;stroke: #000000; fill: #000000; " xmlns="http://www.w3.org/2000/svg">
    <path d="M 1.68749972339724E-06 14.7153138067221 L -0.716553070047799 15.5245224240825 L -0.973845121624345 15.8422200282578 L -1.22912004853152 16.1151035460287 L -1.50200534755214 16.3703752854364 L -1.8197032329774 16.6276625557637 L -2.22348132304301 16.8995037612055 L -2.77373701409907 17.1743243411589 L -3.50667645646094 17.3433013759614 L -4.21220002831661 17.1094608830408 L -4.4460561774846 16.4039464049337 L -4.27708664268087 15.6710040563223 L -4.00226662522738 15.1207422715172 L -3.7304237322859 14.7169589314525 L -3.47313327445909 14.399255983528 L -3.21785787880199 14.1263663720081 L -2.94497004853179 13.8710877888515 L -2.6272674756073 13.6137924560255 L -2.22348132304301 13.3419419693353 L -1.67321241323911 13.0671114518835 L -1.52184462555023 13.011841617193 L -1.7118086256627 12.6579131127064 L -2.68828915310507 9.84420729265868 L -14.99999041631 9.84420729265868 L -2.81249241399657 -7.03078994131372 L -2.81249241399657 -14.5308004307162 L -2.71665499220555 -15.258731280149 L -2.43568066326083 -15.9370527314635 L -1.98871814277369 -16.5195383547367 L -1.40622801950127 -16.9664931877251 L -0.727906568186816 -17.2474586104212 L 1.9781246757601E-05 -17.3432882509635 L 0.727944443180608 -17.2474522354223 L 1.40626130074581 -16.9664822189769 L 1.98874504901928 -16.5195257922387 L 2.43570128825745 -15.9370418564653 L 2.71667102345292 -15.2587249989001 L 2.81250666399423 -14.5308004307162 L 2.81250666399423 -7.03078994131372 L 15.0000046663076 9.84420729265868 L 2.69306580857212 9.84420729265868 L 1.7118220319105 12.6579141439562 L 1.52185859429794 13.011841617193 L 1.67322638198682 13.0671114518835 L 2.22349529179072 13.3419419693353 L 2.62728144435501 13.6137924560255 L 2.9449840172795 13.8710877888515 L 3.2178718475497 14.1263663720081 L 3.4731472432068 14.399255983528 L 3.73043770103361 14.7169589314525 L 4.0022805002251 15.1207422715172 L 4.27710061142858 15.6710040563223 L 4.44607014623231 16.4039464049337 L 4.21221399706432 17.1094608830408 L 3.50669042520865 17.3433013759614 L 2.77375098284678 17.1743243411589 L 2.22349529179072 16.8995037612055 L 1.81971720172511 16.6276625557637 L 1.50201931629985 16.3703752854364 L 1.22913401727923 16.1151035460287 L 0.973859090372056 15.8422200282578 L 0.71656703879551 15.5245224240825 L 1.68749972339724E-06 14.7153138067221 " />
  </g>
</svg>