<?xml version="1.0" encoding="UTF-8"?>
<svg viewBox="-15 -63.9999930461251 30 67.9999935428304" xmlns="http://www.w3.org/2000/svg" xmlns:xlink="http://www.w3.org/1999/xlink" xmlns:gmsvgsym="http://www.intergraph.com/GeoMedia/svgsym">
  <!-- Creator: SVG Document for Symbols-->
  <path id="LineString2d_1730" style=" stroke-width: 0.00199999992052714;stroke: #ffffff; fill: none; " d="M -14.9999994039536 3.99999984105429 L -14.9999994039536 -15.9999993642171 L -12.9999960834266 -15.9999993642171 L -12.9999960834266 -50.9999887734425 L -12.557017501029 -54.3646316397436 L -11.2583115526349 -57.4999873151558 L -9.19236723472814 -60.1923782081698 L -6.49997594171416 -62.2583213260766 L -3.36462006630201 -63.5570262744707 L 3.01999987999599E-05 -63.999988256869 L 3.36467886629967 -63.5570206744709 L 6.50003054171199 -62.258311726077 L 9.1924162347262 -60.1923668081702 L 11.2583549526332 -57.4999775151562 L 12.5570569010274 -54.3646258397439 L 12.8737192884444 -52.8077019016105 L 12.8737192884444 -15.9999993642171 L 14.9999994039536 -15.9999993642171 L 14.9999994039536 3.99999984105429 L -14.9999994039536 3.99999984105429 " xmlns="http://www.w3.org/2000/svg" />
  <g id="ComplexString2d_1731" style=" fill-rule: evenodd; stroke-width: 0;stroke: #ffffff; fill: #ffffff; " xmlns="http://www.w3.org/2000/svg">
    <path d="M -14.9999994039536 3.99999984105429 L -14.9999994039536 -15.9999993642171 L -12.9999960834266 -15.9999993642171 L -12.9999960834266 -50.9999887734425 L -12.557017501029 -54.3646316397436 L -11.2583115526349 -57.4999873151558 L -9.19236723472814 -60.1923782081698 L -6.49997594171416 -62.2583213260766 L -3.36462006630201 -63.5570262744707 L 3.01999987999599E-05 -63.999988256869 L 3.36467886629967 -63.5570206744709 L 6.50003054171199 -62.258311726077 L 9.1924162347262 -60.1923668081702 L 11.2583549526332 -57.4999775151562 L 12.5570569010274 -54.3646258397439 L 12.8737192884444 -52.8077019016105 L 12.8737192884444 -15.9999993642171 L 14.9999994039536 -15.9999993642171 L 14.9999994039536 3.99999984105429 L -14.9999994039536 3.99999984105429 " />
  </g>
</svg>