<?xml version="1.0" encoding="UTF-8"?>
<svg viewBox="-15.000029336659 -15.0000027939675 30 30" xmlns="http://www.w3.org/2000/svg" xmlns:xlink="http://www.w3.org/1999/xlink" xmlns:gmsvgsym="http://www.intergraph.com/GeoMedia/svgsym">
  <!-- Creator: SVG Document for Symbols-->
  <polyline points="14.9999701382944,-2.39999983012677E-06 14.9773105398982,-0.82416594166511 14.9066089449025,-1.67096388172831 14.7838537535912,-2.5370782204243 14.6052325662341,-3.41852375803513 14.3672365830796,-4.31064569489028 14.0667902043453,-5.2081268313661 13.701383030209,-6.10502236788337 13.2692006607991,-6.99482230490287 12.7692470961861,-7.87055104291834 12.2014623363742,-8.72488498244814 11.5668051812956,-9.55030732402432 10.8673168308057,-10.3392844681801 10.1061472846817,-11.0844580154363 9.28753494262349,-11.7788451662873 8.41674540425842,-12.4160355211866 7.49997066914821,-12.990383080534 6.54418393679929,-13.4971598446641 5.55696560667511,-13.932690213837 4.54630287821034,-14.2944361882324 3.52037855082579,-14.5810417679463 2.48735982394339,-14.7923269529915 1.4551942970006,-14.9292457433003 0.431427569463334,-14.9937949387315 -0.576952759162986,-14.9889025390777 -1.56363348932522,-14.9182837440762 -2.52307062141576,-14.786287353419 -3.45053495576936,-14.5977409667644 -4.34213489266145,-14.3577913837481 -5.1947996323094,-14.0717594039936 -6.00625277487433,-13.7450102271211 -6.7749535204653,-13.3828406527556 -7.50002826914413,-12.990383080534 -8.20244581942666,-12.5586783110903 -8.900443770022,-12.0740487453926 -9.58914292127552,-11.5346835835691 -10.2631864735664,-10.9392700257128 -10.916789227304,-10.2870976718739 -11.5438071829234,-9.57816292205269 -12.1378371408776,-8.81326377619265 -12.6923367016299,-7.99408263417471 -13.2007622656432,-7.12324629581295 -13.6567442333686,-6.20436316085198 -14.0542526052328,-5.24202202896698 -14.3877829816253,-4.24175969976606 -14.6525377628858,-3.20998057279592 -14.8445881492924,-2.15384744754957 -14.9610169410515,-1.08112672347729 -15.0000277382903,-2.39999983012677E-06 -14.9610169410515,1.08112192347763 -14.8445881492924,2.15384264754991 -14.6525377628858,3.20997577279626 -14.3877829816253,4.24175369976649 -14.0542526052328,5.24201722896732 -13.6567442333686,6.20435836085232 -13.2007622656432,7.12324149581329 -12.6923367016299,7.99407783417505 -12.1378371408776,8.81325897619299 -11.5438071829234,9.57815812205303 -10.916789227304,10.2870928718743 -10.2631864735664,10.9392652257132 -9.58914292127552,11.5346787835695 -8.900443770022,12.0740439453929 -8.20244581942666,12.5586735110906 -7.50002826914413,12.9903770805344 -6.7749535204653,13.382835852756 -6.00625277487433,13.7450054271214 -5.1947996323094,14.071754603994 -4.34213489266145,14.3577865837485 -3.45053495576936,14.5977361667647 -2.52307062141576,14.7862825534193 -1.56363348932522,14.9182789440765 -0.576952759162986,14.9888977390781 0.431427569463334,14.9937901387318 1.4551942970006,14.9292409433006 2.48735982394339,14.7923221529918 3.52037855082579,14.5810369679467 4.54630287821034,14.2944313882328 5.55696560667511,13.9326854138373 6.54418393679929,13.4971550446644 7.49997066914821,12.9903770805344 8.41674540425842,12.4160307211869 9.28753494262349,11.7788391662877 10.1061472846817,11.0844532154367 10.8673168308057,10.3392796681805 11.5668051812956,9.55030252402466 12.2014623363742,8.72488018244848 12.7692470961861,7.87054624291868 13.2692006607991,6.99481750490321 13.701383030209,6.10501756788371 14.0667902043453,5.20812203136644 14.3672365830796,4.31064089489062 14.6052325662341,3.41851895803546 14.7838537535912,2.53707342042464 14.9066089449025,1.67095908172865 14.9773105398982,0.82416114166545 14.9999701382944,-2.39999983012677E-06" style=" stroke-width: 0.0119999991506339;stroke: #000000; fill: none; " xmlns="http://www.w3.org/2000/svg" />
  <g id="ComplexString2d_1737" style=" fill-rule: evenodd; stroke-width: 0;stroke: #000000; fill: #000000; " xmlns="http://www.w3.org/2000/svg">
    <path d="M 14.9999701382944 -2.39999983012677E-06 L 14.9773105398982 -0.82416594166511 L 14.9066089449025 -1.67096388172831 L 14.7838537535912 -2.5370782204243 L 14.6052325662341 -3.41852375803513 L 14.3672365830796 -4.31064569489028 L 14.0667902043453 -5.2081268313661 L 13.701383030209 -6.10502236788337 L 13.2692006607991 -6.99482230490287 L 12.7692470961861 -7.87055104291834 L 12.2014623363742 -8.72488498244814 L 11.5668051812956 -9.55030732402432 L 10.8673168308057 -10.3392844681801 L 10.1061472846817 -11.0844580154363 L 9.28753494262349 -11.7788451662873 L 8.41674540425842 -12.4160355211866 L 7.49997066914821 -12.990383080534 L 6.54418393679929 -13.4971598446641 L 5.55696560667511 -13.932690213837 L 4.54630287821034 -14.2944361882324 L 3.52037855082579 -14.5810417679463 L 2.48735982394339 -14.7923269529915 L 1.4551942970006 -14.9292457433003 L 0.431427569463334 -14.9937949387315 L -0.576952759162986 -14.9889025390777 L -1.56363348932522 -14.9182837440762 L -2.52307062141576 -14.786287353419 L -3.45053495576936 -14.5977409667644 L -4.34213489266145 -14.3577913837481 L -5.1947996323094 -14.0717594039936 L -6.00625277487433 -13.7450102271211 L -6.7749535204653 -13.3828406527556 L -7.50002826914413 -12.990383080534 L -8.20244581942666 -12.5586783110903 L -8.900443770022 -12.0740487453926 L -9.58914292127552 -11.5346835835691 L -10.2631864735664 -10.9392700257128 L -10.916789227304 -10.2870976718739 L -11.5438071829234 -9.57816292205269 L -12.1378371408776 -8.81326377619265 L -12.6923367016299 -7.99408263417471 L -13.2007622656432 -7.12324629581295 L -13.6567442333686 -6.20436316085198 L -14.0542526052328 -5.24202202896698 L -14.3877829816253 -4.24175969976606 L -14.6525377628858 -3.20998057279592 L -14.8445881492924 -2.15384744754957 L -14.9610169410515 -1.08112672347729 L -15.0000277382903 -2.39999983012677E-06 L -14.9610169410515 1.08112192347763 L -14.8445881492924 2.15384264754991 L -14.6525377628858 3.20997577279626 L -14.3877829816253 4.24175369976649 L -14.0542526052328 5.24201722896732 L -13.6567442333686 6.20435836085232 L -13.2007622656432 7.12324149581329 L -12.6923367016299 7.99407783417505 L -12.1378371408776 8.81325897619299 L -11.5438071829234 9.57815812205303 L -10.916789227304 10.2870928718743 L -10.2631864735664 10.9392652257132 L -9.58914292127552 11.5346787835695 L -8.900443770022 12.0740439453929 L -8.20244581942666 12.5586735110906 L -7.50002826914413 12.9903770805344 L -6.7749535204653 13.382835852756 L -6.00625277487433 13.7450054271214 L -5.1947996323094 14.071754603994 L -4.34213489266145 14.3577865837485 L -3.45053495576936 14.5977361667647 L -2.52307062141576 14.7862825534193 L -1.56363348932522 14.9182789440765 L -0.576952759162986 14.9888977390781 L 0.431427569463334 14.9937901387318 L 1.4551942970006 14.9292409433006 L 2.48735982394339 14.7923221529918 L 3.52037855082579 14.5810369679467 L 4.54630287821034 14.2944313882328 L 5.55696560667511 13.9326854138373 L 6.54418393679929 13.4971550446644 L 7.49997066914821 12.9903770805344 L 8.41674540425842 12.4160307211869 L 9.28753494262349 11.7788391662877 L 10.1061472846817 11.0844532154367 L 10.8673168308057 10.3392796681805 L 11.5668051812956 9.55030252402466 L 12.2014623363742 8.72488018244848 L 12.7692470961861 7.87054624291868 L 13.2692006607991 6.99481750490321 L 13.701383030209 6.10501756788371 L 14.0667902043453 5.20812203136644 L 14.3672365830796 4.31064089489062 L 14.6052325662341 3.41851895803546 L 14.7838537535912 2.53707342042464 L 14.9066089449025 1.67095908172865 L 14.9773105398982 0.82416114166545 L 14.9999701382944 -2.39999983012677E-06 " />
  </g>
</svg>