<?xml version="1.0" encoding="UTF-8"?>
<svg viewBox="-15 -15 30 30" xmlns="http://www.w3.org/2000/svg" xmlns:xlink="http://www.w3.org/1999/xlink" xmlns:gmsvgsym="http://www.intergraph.com/GeoMedia/svgsym">
  <!-- Creator: SVG Document for Symbols-->
  <polyline points="14.9999994039536,0 14.9773408048539,-0.824163067250702 14.9066384076634,-1.67096183360194 14.7838841125412,-2.53707539918568 14.605262619639,-3.41852116416017 14.3672660290961,-4.31064372871041 14.0668197410348,-5.20812489304771 13.7014128555548,-6.10501985740831 13.2692302727282,-6.99482032205081 12.7692772925945,-7.87054878725249 12.2014920151563,-8.72488245330432 11.5668343403753,-9.55030502050498 10.8673464681704,-10.3392824891538 10.1061771984166,-11.0844559595433 9.28756443094535,-11.7788424319509 8.41677466554742,-12.4160334066312 7.49999970197679,-12.9903805838087 6.54421303995634,-13.4971574636712 5.55699457918488,-13.9326879463647 4.546331819345,-14.2944342319902 3.52040806011155,-14.5810394206016 2.48738960116002,-14.7923249122058 1.4552238421746,-14.9292433067652 0.43145648285546,-14.9937930042002 -0.576923077075137,-14.9889006043946 -1.56360413786795,-14.9182815072008 -2.52304139974334,-14.7862857124458 -3.45050606288921,-14.597739219938 -4.34210512746025,-14.3577890294727 -5.19477029357838,-14.0717569408386 -6.00622386133411,-13.7450084538224 -6.7749242307887,-13.3828391682138 -7.49999970197679,-12.9903805838087 -8.20241657406525,-12.558676100963 -8.9004145463293,-12.0740466202205 -9.58911381896285,-11.5346815416529 -10.2631574921788,-10.9392678653126 -10.9167599662069,-10.2870954912276 -11.5437783412915,-9.57816071939809 -12.1378087176868,-8.81326174979244 -12.692307195653,-7.99408038234379 -13.20073387545,-7.12324411694771 -13.6567158573309,-6.20436085346085 -14.0542239415353,-5.24201989170084 -14.387754528282,-4.24175693144772 -14.6525091177616,-3.20997817244693 -14.8445590101302,-2.15384551441387 -14.9609877055038,-1.08112395703999 -14.9999994039536,0 -14.9609877055038,1.08112395703999 -14.8445590101302,2.15384551441387 -14.6525091177616,3.20997817244693 -14.387754528282,4.24175693144772 -14.0542239415353,5.24201989170084 -13.6567158573309,6.20436085346085 -13.20073387545,7.12324411694771 -12.692307195653,7.99408038234379 -12.1378087176868,8.81326174979244 -11.5437783412915,9.57816071939809 -10.9167599662069,10.2870954912276 -10.2631574921788,10.9392678653126 -9.58911381896285,11.5346815416529 -8.9004145463293,12.0740466202205 -8.20241657406525,12.558676100963 -7.49999970197679,12.9903805838087 -6.7749242307887,13.3828391682138 -6.00622386133411,13.7450084538224 -5.19477029357838,14.0717569408386 -4.34210512746025,14.3577890294727 -3.45050606288921,14.597739219938 -2.52304139974334,14.7862857124458 -1.56360413786795,14.9182815072008 -0.576923077075137,14.9889006043946 0.43145648285546,14.9937930042002 1.4552238421746,14.9292433067652 2.48738960116002,14.7923249122058 3.52040806011155,14.5810394206016 4.546331819345,14.2944342319902 5.55699457918488,13.9326879463647 6.54421303995634,13.4971574636712 7.49999970197679,12.9903805838087 8.41677466554742,12.4160334066312 9.28756443094535,11.7788424319509 10.1061771984166,11.0844559595433 10.8673464681704,10.3392824891538 11.5668343403753,9.55030502050498 12.2014920151563,8.72488245330432 12.7692772925945,7.87054878725249 13.2692302727282,6.99482032205081 13.7014128555548,6.10501985740831 14.0668197410348,5.20812489304771 14.3672660290961,4.31064372871041 14.605262619639,3.41852116416017 14.7838841125412,2.53707539918568 14.9066384076634,1.67096183360194 14.9773408048539,0.824163067250702 14.9999994039536,0" style=" stroke-width: 0.000999999960263572;stroke: #cc19ff; fill: none; " xmlns="http://www.w3.org/2000/svg" />
  <g id="ComplexString2d_1590" style=" fill-rule: evenodd; stroke-width: 0;stroke: #cc19ff; fill: #cc19ff; " xmlns="http://www.w3.org/2000/svg">
    <path d="M 14.9999994039536 0 L 14.9773408048539 -0.824163067250702 L 14.9066384076634 -1.67096183360194 L 14.7838841125412 -2.53707539918568 L 14.605262619639 -3.41852116416017 L 14.3672660290961 -4.31064372871041 L 14.0668197410348 -5.20812489304771 L 13.7014128555548 -6.10501985740831 L 13.2692302727282 -6.99482032205081 L 12.7692772925945 -7.87054878725249 L 12.2014920151563 -8.72488245330432 L 11.5668343403753 -9.55030502050498 L 10.8673464681704 -10.3392824891538 L 10.1061771984166 -11.0844559595433 L 9.28756443094535 -11.7788424319509 L 8.41677466554742 -12.4160334066312 L 7.49999970197679 -12.9903805838087 L 6.54421303995634 -13.4971574636712 L 5.55699457918488 -13.9326879463647 L 4.546331819345 -14.2944342319902 L 3.52040806011155 -14.5810394206016 L 2.48738960116002 -14.7923249122058 L 1.4552238421746 -14.9292433067652 L 0.43145648285546 -14.9937930042002 L -0.576923077075137 -14.9889006043946 L -1.56360413786795 -14.9182815072008 L -2.52304139974334 -14.7862857124458 L -3.45050606288921 -14.597739219938 L -4.34210512746025 -14.3577890294727 L -5.19477029357838 -14.0717569408386 L -6.00622386133411 -13.7450084538224 L -6.7749242307887 -13.3828391682138 L -7.49999970197679 -12.9903805838087 L -8.20241657406525 -12.558676100963 L -8.9004145463293 -12.0740466202205 L -9.58911381896285 -11.5346815416529 L -10.2631574921788 -10.9392678653126 L -10.9167599662069 -10.2870954912276 L -11.5437783412915 -9.57816071939809 L -12.1378087176868 -8.81326174979244 L -12.692307195653 -7.99408038234379 L -13.20073387545 -7.12324411694771 L -13.6567158573309 -6.20436085346085 L -14.0542239415353 -5.24201989170084 L -14.387754528282 -4.24175693144772 L -14.6525091177616 -3.20997817244693 L -14.8445590101302 -2.15384551441387 L -14.9609877055038 -1.08112395703999 L -14.9999994039536 0 L -14.9609877055038 1.08112395703999 L -14.8445590101302 2.15384551441387 L -14.6525091177616 3.20997817244693 L -14.387754528282 4.24175693144772 L -14.0542239415353 5.24201989170084 L -13.6567158573309 6.20436085346085 L -13.20073387545 7.12324411694771 L -12.692307195653 7.99408038234379 L -12.1378087176868 8.81326174979244 L -11.5437783412915 9.57816071939809 L -10.9167599662069 10.2870954912276 L -10.2631574921788 10.9392678653126 L -9.58911381896285 11.5346815416529 L -8.9004145463293 12.0740466202205 L -8.20241657406525 12.558676100963 L -7.49999970197679 12.9903805838087 L -6.7749242307887 13.3828391682138 L -6.00622386133411 13.7450084538224 L -5.19477029357838 14.0717569408386 L -4.34210512746025 14.3577890294727 L -3.45050606288921 14.597739219938 L -2.52304139974334 14.7862857124458 L -1.56360413786795 14.9182815072008 L -0.576923077075137 14.9889006043946 L 0.43145648285546 14.9937930042002 L 1.4552238421746 14.9292433067652 L 2.48738960116002 14.7923249122058 L 3.52040806011155 14.5810394206016 L 4.546331819345 14.2944342319902 L 5.55699457918488 13.9326879463647 L 6.54421303995634 13.4971574636712 L 7.49999970197679 12.9903805838087 L 8.41677466554742 12.4160334066312 L 9.28756443094535 11.7788424319509 L 10.1061771984166 11.0844559595433 L 10.8673464681704 10.3392824891538 L 11.5668343403753 9.55030502050498 L 12.2014920151563 8.72488245330432 L 12.7692772925945 7.87054878725249 L 13.2692302727282 6.99482032205081 L 13.7014128555548 6.10501985740831 L 14.0668197410348 5.20812489304771 L 14.3672660290961 4.31064372871041 L 14.605262619639 3.41852116416017 L 14.7838841125412 2.53707539918568 L 14.9066384076634 1.67096183360194 L 14.9773408048539 0.824163067250702 L 14.9999994039536 0 " />
  </g>
  <polyline points="9.99999960263572,0 9.93775890510894,-1.11397455573463 9.73684171309267,-2.27901410944012 9.37787982735654,-3.47208326203181 8.84615344848544,-4.66321351470054 8.51285156172967,-5.24703249150166 8.13432807677084,-5.81658826886955 7.71122289358353,-6.36686994700332 7.24489771211363,-6.89285502610255 6.73745143227773,-7.3896373063622 6.19170955396357,-7.85256168796723 5.61118317703161,-8.27735557108744 4.99999980131786,-8.66025365587244 4.36280862663756,-8.99810494244744 3.70466305278992,-9.28845863090982 3.03088787956334,-9.52962282132681 2.34693870674103,-9.72069291373437 1.65825973410668,-9.86154990813722 0.970149261449732,-9.95282890451011 0.287637688570305,-9.99586200280013 -0.384615384716758,-9.99260040292974 -1.68202753316223,-9.8575238082972 -2.8947366849735,-9.57185931964848 -4.00414924088941,-9.16333893588163 -4.99999980131786,-8.66025365587244 -5.93360976421953,-8.049364380147 -6.84210502811917,-7.29284521020837 -7.69585219419431,-6.38544054626539 -8.46153816376868,-5.32938688822919 -8.80048925029998,-4.74882941129847 -9.10447723822058,-4.13624053564057 -9.36948262769021,-3.4946799611339 -9.59183631885467,-2.82783798763181 -9.76833941184107,-2.13998551496462 -9.89637270675348,-1.43589694294258 -9.97399180366918,-0.720749371359993 -9.99999960263572,0 -9.97399180366918,0.720749371359993 -9.89637270675348,1.43589694294258 -9.76833941184107,2.13998551496462 -9.59183631885467,2.82783798763181 -9.36948262769021,3.4946799611339 -9.10447723822058,4.13624053564057 -8.80048925029998,4.74882941129847 -8.46153816376868,5.32938688822919 -7.69585219419431,6.38544054626539 -6.84210502811917,7.29284521020837 -5.93360976421953,8.049364380147 -4.99999980131786,8.66025365587244 -4.00414924088941,9.16333893588163 -2.8947366849735,9.57185931964848 -1.68202753316223,9.8575238082972 -0.384615384716758,9.99260040292974 0.287637688570305,9.99586200280013 0.970149261449732,9.95282890451011 1.65825973410668,9.86154990813722 2.34693870674103,9.72069291373437 3.03088787956334,9.52962282132681 3.70466305278992,9.28845863090982 4.36280862663756,8.99810494244744 4.99999980131786,8.66025365587244 5.61118317703161,8.27735557108744 6.19170955396357,7.85256168796723 6.73745143227773,7.3896373063622 7.24489771211363,6.89285502610255 7.71122289358353,6.36686994700332 8.13432807677084,5.81658826886955 8.51285156172967,5.24703249150166 8.84615344848544,4.66321351470054 9.37787982735654,3.47208326203181 9.73684171309267,2.27901410944012 9.93775890510894,1.11397455573463 9.99999960263572,0" style=" stroke-width: 0.000999999960263572;stroke: #ffffff; fill: none; " xmlns="http://www.w3.org/2000/svg" />
  <g id="ComplexString2d_1591" style=" fill-rule: evenodd; stroke-width: 0;stroke: #ffffff; fill: #ffffff; " xmlns="http://www.w3.org/2000/svg">
    <path d="M 9.99999960263572 0 L 9.93775890510894 -1.11397455573463 L 9.73684171309267 -2.27901410944012 L 9.37787982735654 -3.47208326203181 L 8.84615344848544 -4.66321351470054 L 8.51285156172967 -5.24703249150166 L 8.13432807677084 -5.81658826886955 L 7.71122289358353 -6.36686994700332 L 7.24489771211363 -6.89285502610255 L 6.73745143227773 -7.3896373063622 L 6.19170955396357 -7.85256168796723 L 5.61118317703161 -8.27735557108744 L 4.99999980131786 -8.66025365587244 L 4.36280862663756 -8.99810494244744 L 3.70466305278992 -9.28845863090982 L 3.03088787956334 -9.52962282132681 L 2.34693870674103 -9.72069291373437 L 1.65825973410668 -9.86154990813722 L 0.970149261449732 -9.95282890451011 L 0.287637688570305 -9.99586200280013 L -0.384615384716758 -9.99260040292974 L -1.68202753316223 -9.8575238082972 L -2.8947366849735 -9.57185931964848 L -4.00414924088941 -9.16333893588163 L -4.99999980131786 -8.66025365587244 L -5.93360976421953 -8.049364380147 L -6.84210502811917 -7.29284521020837 L -7.69585219419431 -6.38544054626539 L -8.46153816376868 -5.32938688822919 L -8.80048925029998 -4.74882941129847 L -9.10447723822058 -4.13624053564057 L -9.36948262769021 -3.4946799611339 L -9.59183631885467 -2.82783798763181 L -9.76833941184107 -2.13998551496462 L -9.89637270675348 -1.43589694294258 L -9.97399180366918 -0.720749371359993 L -9.99999960263572 0 L -9.97399180366918 0.720749371359993 L -9.89637270675348 1.43589694294258 L -9.76833941184107 2.13998551496462 L -9.59183631885467 2.82783798763181 L -9.36948262769021 3.4946799611339 L -9.10447723822058 4.13624053564057 L -8.80048925029998 4.74882941129847 L -8.46153816376868 5.32938688822919 L -7.69585219419431 6.38544054626539 L -6.84210502811917 7.29284521020837 L -5.93360976421953 8.049364380147 L -4.99999980131786 8.66025365587244 L -4.00414924088941 9.16333893588163 L -2.8947366849735 9.57185931964848 L -1.68202753316223 9.8575238082972 L -0.384615384716758 9.99260040292974 L 0.287637688570305 9.99586200280013 L 0.970149261449732 9.95282890451011 L 1.65825973410668 9.86154990813722 L 2.34693870674103 9.72069291373437 L 3.03088787956334 9.52962282132681 L 3.70466305278992 9.28845863090982 L 4.36280862663756 8.99810494244744 L 4.99999980131786 8.66025365587244 L 5.61118317703161 8.27735557108744 L 6.19170955396357 7.85256168796723 L 6.73745143227773 7.3896373063622 L 7.24489771211363 6.89285502610255 L 7.71122289358353 6.36686994700332 L 8.13432807677084 5.81658826886955 L 8.51285156172967 5.24703249150166 L 8.84615344848544 4.66321351470054 L 9.37787982735654 3.47208326203181 L 9.73684171309267 2.27901410944012 L 9.93775890510894 1.11397455573463 L 9.99999960263572 0 " />
  </g>
</svg>