<?xml version="1.0" encoding="UTF-8"?>
<svg viewBox="-15 -15 30 30" xmlns="http://www.w3.org/2000/svg" xmlns:xlink="http://www.w3.org/1999/xlink" xmlns:gmsvgsym="http://www.intergraph.com/GeoMedia/svgsym">
  <!-- Creator: SVG Document for Symbols-->
  <polyline points="14.9999975413088,0 14.9773389200228,-0.824163052409149 14.9066366191119,-1.67096166360804 14.7838822642329,-2.537075021641 14.6052607935112,-3.41852081466077 14.3672642700219,-4.31064323093051 14.0668178817689,-5.20812420882192 13.7014111916637,-6.1050190618094 13.4937497257021,-6.55123242616933 13.2692286375039,-6.99481947845974 13.0277504270853,-7.43489390632592 12.7692757194526,-7.87054783491668 12.4938270146022,-8.30085613938365 12.2014905625198,-8.72488131988051 11.8924189881806,-9.14167912656202 11.5668329790483,-9.55030380958322 11.2250220350755,-9.94981449409832 10.8673452187033,-10.3392811802598 10.4942309673615,-10.7177909307172 10.1061759684687,-11.0844546206163 9.70374403443241,-11.4384123750981 9.28756329014975,-11.7788410692975 8.85832373550759,-12.1049588283426 8.41677368288329,-12.4160319648538 7.96371488214541,-12.7113796664425 7.4999987706544,-12.990378870711 7.0265200982636,-13.252469140251 6.54421223982002,-13.4971556626438 6.05403988266553,-13.724012812959 5.55699396413771,-13.9326862162548 5.05408379657111,-14.1228949975771 4.54633125479824,-14.29443234446 4.03476383865067,-14.4471660694249 3.52040754796024,-14.5810374849817 3.00428107005996,-14.6960614036278 2.48738921728514,-14.7923229503493 1.97071692697432,-14.8699764376209 1.45522363647026,-14.9292414279066 0.941838783120593,-14.9703997336603 0.43145655427876,-14.9937911048261 -0.075068237695357,-14.9998096663396 -0.576922967934956,-14.988898855628 -1.07334113656568,-14.9615461726115 -1.56360405620532,-14.9182796172034 -2.04704310196349,-14.8596615018117 -2.52304102394135,-14.7862837638392 -3.45050568441804,-14.5977373572444 -4.34210460077359,-14.3577872715753 -5.19476971101089,-14.0717551309596 -6.00622307800332,-13.7450068095178 -6.77492345200351,-13.382837493882 -7.4999987706544,-12.990378870711 -8.2024156555193,-12.5586744414728 -8.90041354110854,-12.0740451459098 -9.58911255322197,-11.5346801093186 -10.2631561927376,-10.9392664569145 -10.9167585856038,-10.2870943138138 -11.5437768578275,-9.57815955501731 -12.1378071354584,-8.81326055539402 -12.4204085891364,-8.41031374644215 -12.692305669569,-7.99407937716828 -12.9526821893899,-7.56491576001368 -13.2007322737314,-7.12324326990944 -13.4356657977228,-6.66954359427661 -13.6567141989901,-6.20436010802613 -13.8631359151549,-5.7282973110589 -14.0542221963335,-5.24201932826608 -14.2293031051355,-4.74624690952951 -14.3877527666635,-4.24175630472196 -14.5289948060122,-3.72937513870778 -14.6525072232669,-3.20997772384365 -14.7578278310035,-2.68448262247901 -14.8445570667875,-2.15384514695727 -14.9123636181731,-1.61905398461637 -14.9609859227033,-1.08112388528999 -14.990235167909,-0.541089661308493 -14.9999975413088,0 -14.990235167909,0.541089661308493 -14.9609859227033,1.08112388528999 -14.9123636181731,1.61905398461637 -14.8445570667875,2.15384514695727 -14.7578278310035,2.68448262247901 -14.6525072232669,3.20997772384365 -14.5289948060122,3.72937513870778 -14.3877527666635,4.24175630472196 -14.2293031051355,4.74624690952951 -14.0542221963335,5.24201932826608 -13.8631359151549,5.7282973110589 -13.6567141989901,6.20436010802613 -13.4356657977228,6.66954359427661 -13.2007322737314,7.12324326990944 -12.9526821893899,7.56491576001368 -12.692305669569,7.99407937716828 -12.4204085891364,8.41031374644215 -12.1378071354584,8.81326055539402 -11.8453229334003,9.2026220540727 -11.5437768578275,9.57815955501731 -10.9167585856038,10.2870943138138 -10.2631561927376,10.9392664569145 -9.58911255322197,11.5346801093186 -8.90041354110854,12.0740451459098 -8.2024156555193,12.5586744414728 -7.4999987706544,12.990378870711 -6.77492345200351,13.382837493882 -6.00622307800332,13.7450068095178 -5.19476971101089,14.0717551309596 -4.34210460077359,14.3577872715753 -3.45050568441804,14.5977373572444 -2.52304102394135,14.7862837638392 -1.56360405620532,14.9182796172034 -1.07334113656568,14.9615461726115 -0.576922967934956,14.988898855628 -0.075068237695357,14.9998096663396 0.43145655427876,14.9937911048261 0.941838783120593,14.9703997336603 1.45522363647026,14.9292414279066 1.97071692697432,14.8699764376209 2.48738921728514,14.7923229503493 3.00428107005996,14.6960614036278 3.52040754796024,14.5810374849817 4.03476383865067,14.4471660694249 4.54633125479824,14.29443234446 5.05408379657111,14.1228949975771 5.55699396413771,13.9326862162548 6.05403988266553,13.724012812959 6.54421223982002,13.4971556626438 7.0265200982636,13.252469140251 7.4999987706544,12.990378870711 7.96371488214541,12.7113796664425 8.41677368288329,12.4160319648538 8.85832373550759,12.1049588283426 9.28756329014975,11.7788410692975 9.70374403443241,11.4384123750981 10.1061759684687,11.0844546206163 10.4942309673615,10.7177909307172 10.8673452187033,10.3392811802598 11.2250220350755,9.94981449409832 11.5668329790483,9.55030380958322 11.8924189881806,9.14167912656202 12.2014905625198,8.72488131988051 12.4938270146022,8.30085613938365 12.7692757194526,7.87054783491668 13.0277504270853,7.43489390632592 13.2692286375039,6.99481947845974 13.4937497257021,6.55123242616933 13.7014111916637,6.1050190618094 13.8923658478638,5.65703944773898 14.0668178817689,5.20812420882192 14.3672642700219,4.31064323093051 14.6052607935112,3.41852081466077 14.7838822642329,2.537075021641 14.9066366191119,1.67096166360804 14.9773389200228,0.824163052409149 14.9999975413088,0" style=" stroke-width: 0.0018749996926636;stroke: #510205; fill: none; " xmlns="http://www.w3.org/2000/svg" />
  <g id="ComplexString2d_1582" style=" fill-rule: evenodd; stroke-width: 0;stroke: #510205; fill: #510205; " xmlns="http://www.w3.org/2000/svg">
    <path d="M 14.9999975413088 0 L 14.9773389200228 -0.824163052409149 L 14.9066366191119 -1.67096166360804 L 14.7838822642329 -2.537075021641 L 14.6052607935112 -3.41852081466077 L 14.3672642700219 -4.31064323093051 L 14.0668178817689 -5.20812420882192 L 13.7014111916637 -6.1050190618094 L 13.4937497257021 -6.55123242616933 L 13.2692286375039 -6.99481947845974 L 13.0277504270853 -7.43489390632592 L 12.7692757194526 -7.87054783491668 L 12.4938270146022 -8.30085613938365 L 12.2014905625198 -8.72488131988051 L 11.8924189881806 -9.14167912656202 L 11.5668329790483 -9.55030380958322 L 11.2250220350755 -9.94981449409832 L 10.8673452187033 -10.3392811802598 L 10.4942309673615 -10.7177909307172 L 10.1061759684687 -11.0844546206163 L 9.70374403443241 -11.4384123750981 L 9.28756329014975 -11.7788410692975 L 8.85832373550759 -12.1049588283426 L 8.41677368288329 -12.4160319648538 L 7.96371488214541 -12.7113796664425 L 7.4999987706544 -12.990378870711 L 7.0265200982636 -13.252469140251 L 6.54421223982002 -13.4971556626438 L 6.05403988266553 -13.724012812959 L 5.55699396413771 -13.9326862162548 L 5.05408379657111 -14.1228949975771 L 4.54633125479824 -14.29443234446 L 4.03476383865067 -14.4471660694249 L 3.52040754796024 -14.5810374849817 L 3.00428107005996 -14.6960614036278 L 2.48738921728514 -14.7923229503493 L 1.97071692697432 -14.8699764376209 L 1.45522363647026 -14.9292414279066 L 0.941838783120593 -14.9703997336603 L 0.43145655427876 -14.9937911048261 L -0.075068237695357 -14.9998096663396 L -0.576922967934956 -14.988898855628 L -1.07334113656568 -14.9615461726115 L -1.56360405620532 -14.9182796172034 L -2.04704310196349 -14.8596615018117 L -2.52304102394135 -14.7862837638392 L -3.45050568441804 -14.5977373572444 L -4.34210460077359 -14.3577872715753 L -5.19476971101089 -14.0717551309596 L -6.00622307800332 -13.7450068095178 L -6.77492345200351 -13.382837493882 L -7.4999987706544 -12.990378870711 L -8.2024156555193 -12.5586744414728 L -8.90041354110854 -12.0740451459098 L -9.58911255322197 -11.5346801093186 L -10.2631561927376 -10.9392664569145 L -10.9167585856038 -10.2870943138138 L -11.5437768578275 -9.57815955501731 L -12.1378071354584 -8.81326055539402 L -12.4204085891364 -8.41031374644215 L -12.692305669569 -7.99407937716828 L -12.9526821893899 -7.56491576001368 L -13.2007322737314 -7.12324326990944 L -13.4356657977228 -6.66954359427661 L -13.6567141989901 -6.20436010802613 L -13.8631359151549 -5.7282973110589 L -14.0542221963335 -5.24201932826608 L -14.2293031051355 -4.74624690952951 L -14.3877527666635 -4.24175630472196 L -14.5289948060122 -3.72937513870778 L -14.6525072232669 -3.20997772384365 L -14.7578278310035 -2.68448262247901 L -14.8445570667875 -2.15384514695727 L -14.9123636181731 -1.61905398461637 L -14.9609859227033 -1.08112388528999 L -14.990235167909 -0.541089661308493 L -14.9999975413088 0 L -14.990235167909 0.541089661308493 L -14.9609859227033 1.08112388528999 L -14.9123636181731 1.61905398461637 L -14.8445570667875 2.15384514695727 L -14.7578278310035 2.68448262247901 L -14.6525072232669 3.20997772384365 L -14.5289948060122 3.72937513870778 L -14.3877527666635 4.24175630472196 L -14.2293031051355 4.74624690952951 L -14.0542221963335 5.24201932826608 L -13.8631359151549 5.7282973110589 L -13.6567141989901 6.20436010802613 L -13.4356657977228 6.66954359427661 L -13.2007322737314 7.12324326990944 L -12.9526821893899 7.56491576001368 L -12.692305669569 7.99407937716828 L -12.4204085891364 8.41031374644215 L -12.1378071354584 8.81326055539402 L -11.8453229334003 9.2026220540727 L -11.5437768578275 9.57815955501731 L -10.9167585856038 10.2870943138138 L -10.2631561927376 10.9392664569145 L -9.58911255322197 11.5346801093186 L -8.90041354110854 12.0740451459098 L -8.2024156555193 12.5586744414728 L -7.4999987706544 12.990378870711 L -6.77492345200351 13.382837493882 L -6.00622307800332 13.7450068095178 L -5.19476971101089 14.0717551309596 L -4.34210460077359 14.3577872715753 L -3.45050568441804 14.5977373572444 L -2.52304102394135 14.7862837638392 L -1.56360405620532 14.9182796172034 L -1.07334113656568 14.9615461726115 L -0.576922967934956 14.988898855628 L -0.075068237695357 14.9998096663396 L 0.43145655427876 14.9937911048261 L 0.941838783120593 14.9703997336603 L 1.45522363647026 14.9292414279066 L 1.97071692697432 14.8699764376209 L 2.48738921728514 14.7923229503493 L 3.00428107005996 14.6960614036278 L 3.52040754796024 14.5810374849817 L 4.03476383865067 14.4471660694249 L 4.54633125479824 14.29443234446 L 5.05408379657111 14.1228949975771 L 5.55699396413771 13.9326862162548 L 6.05403988266553 13.724012812959 L 6.54421223982002 13.4971556626438 L 7.0265200982636 13.252469140251 L 7.4999987706544 12.990378870711 L 7.96371488214541 12.7113796664425 L 8.41677368288329 12.4160319648538 L 8.85832373550759 12.1049588283426 L 9.28756329014975 11.7788410692975 L 9.70374403443241 11.4384123750981 L 10.1061759684687 11.0844546206163 L 10.4942309673615 10.7177909307172 L 10.8673452187033 10.3392811802598 L 11.2250220350755 9.94981449409832 L 11.5668329790483 9.55030380958322 L 11.8924189881806 9.14167912656202 L 12.2014905625198 8.72488131988051 L 12.4938270146022 8.30085613938365 L 12.7692757194526 7.87054783491668 L 13.0277504270853 7.43489390632592 L 13.2692286375039 6.99481947845974 L 13.4937497257021 6.55123242616933 L 13.7014111916637 6.1050190618094 L 13.8923658478638 5.65703944773898 L 14.0668178817689 5.20812420882192 L 14.3672642700219 4.31064323093051 L 14.6052607935112 3.41852081466077 L 14.7838822642329 2.537075021641 L 14.9066366191119 1.67096166360804 L 14.9773389200228 0.824163052409149 L 14.9999975413088 0 " />
  </g>
  <polyline points="10.3124983096498,0 10.2969204372032,-0.56661215712503 10.2483125701707,-1.14878606169929 10.1639190215038,-1.74423908909693 10.0411168541327,-2.35023298976679 9.87749425595253,-2.96356713923349 9.67093735230984,-3.58058547559631 9.41972020598754,-4.1972006870252 9.12259462969022,-4.80893827425359 8.77887699852993,-5.41100161306772 8.38852475001365,-5.99835595429284 7.95219769653322,-6.56583379877597 7.47129983785852,-7.10825583486607 6.9479960486347,-7.62056256339246 6.38519970338421,-8.09795323514203 5.78653180151353,-8.53602197583697 5.1562491548249,-8.9308854736138 4.49914595003251,-9.2792945415051 3.82043337378217,-9.57872167992517 3.12560273767379,-9.82742220165997 2.42028016578517,-10.0244632943624 1.71008015719602,-10.1697221455526 1.0004662735108,-10.2638535051233 0.296626263879167,-10.3082313728492 -0.396634622486519,-10.3048678109005 -1.0749778237974,-10.2563173188586 -1.73459071567843,-10.1655701462332 -2.37222261116241,-10.0359444799805 -2.98519694818809,-9.87097863202052 -3.57140416460124,-9.67433166425347 -4.12927844815852,-9.44969207607477 -4.65775986153366,-9.20070074188763 -5.1562491548249,-8.9308854736138 -5.63916076316952,-8.63408877226257 -6.11903430951212,-8.30090601437548 -6.59251485690261,-7.93009257515654 -7.0559199059446,-7.52074564225373 -7.50527145729014,-7.07237734074702 -7.93634663663141,-6.5849846706369 -8.34474238219014,-6.05911663183339 -8.72596019470367,-5.49592953664695 -9.07550344990906,-4.89722975978149 -9.38899102352444,-4.26549755083047 -9.66227766622927,-3.6038881592767 -9.89158000364369,-2.91620745949635 -10.0735987863085,-2.20685982576749 -10.2056330771664,-1.48076863228311 -10.285677751546,-0.743272565668133 -10.3124983096498,0 -10.285677751546,0.743272565668133 -10.2056330771664,1.48076863228311 -10.0735987863085,2.20685982576749 -9.89158000364369,2.91620745949635 -9.66227766622927,3.6038881592767 -9.38899102352444,4.26549755083047 -9.07550344990906,4.89722975978149 -8.72596019470367,5.49592953664695 -8.34474238219014,6.05911663183339 -7.93634663663141,6.5849846706369 -7.50527145729014,7.07237734074702 -7.0559199059446,7.52074564225373 -6.59251485690261,7.93009257515654 -6.11903430951212,8.30090601437548 -5.63916076316952,8.63408877226257 -5.1562491548249,8.9308854736138 -4.65775986153366,9.20070074188763 -4.12927844815852,9.44969207607477 -3.57140416460124,9.67433166425347 -2.98519694818809,9.87097863202052 -2.37222261116241,10.0359444799805 -1.73459071567843,10.1655701462332 -1.0749778237974,10.2563173188586 -0.396634622486519,10.3048678109005 0.296626263879167,10.3082313728492 1.0004662735108,10.2638535051233 1.71008015719602,10.1697221455526 2.42028016578517,10.0244632943624 3.12560273767379,9.82742220165997 3.82043337378217,9.57872167992517 4.49914595003251,9.2792945415051 5.1562491548249,8.9308854736138 5.78653180151353,8.53602197583697 6.38519970338421,8.09795323514203 6.9479960486347,7.62056256339246 7.47129983785852,7.10825583486607 7.95219769653322,6.56583379877597 8.38852475001365,5.99835595429284 8.77887699852993,5.41100161306772 9.12259462969022,4.80893827425359 9.41972020598754,4.1972006870252 9.67093735230984,3.58058547559631 9.87749425595253,2.96356713923349 10.0411168541327,2.35023298976679 10.1639190215038,1.74423908909693 10.2483125701707,1.14878606169929 10.2969204372032,0.56661215712503 10.3124983096498,0" style=" stroke-width: 0.0018749996926636;stroke: #ffffff; fill: none; " xmlns="http://www.w3.org/2000/svg" />
  <g id="ComplexString2d_1583" style=" fill-rule: evenodd; stroke-width: 0;stroke: #ffffff; fill: #ffffff; " xmlns="http://www.w3.org/2000/svg">
    <path d="M 10.3124983096498 0 L 10.2969204372032 -0.56661215712503 L 10.2483125701707 -1.14878606169929 L 10.1639190215038 -1.74423908909693 L 10.0411168541327 -2.35023298976679 L 9.87749425595253 -2.96356713923349 L 9.67093735230984 -3.58058547559631 L 9.41972020598754 -4.1972006870252 L 9.12259462969022 -4.80893827425359 L 8.77887699852993 -5.41100161306772 L 8.38852475001365 -5.99835595429284 L 7.95219769653322 -6.56583379877597 L 7.47129983785852 -7.10825583486607 L 6.9479960486347 -7.62056256339246 L 6.38519970338421 -8.09795323514203 L 5.78653180151353 -8.53602197583697 L 5.1562491548249 -8.9308854736138 L 4.49914595003251 -9.2792945415051 L 3.82043337378217 -9.57872167992517 L 3.12560273767379 -9.82742220165997 L 2.42028016578517 -10.0244632943624 L 1.71008015719602 -10.1697221455526 L 1.0004662735108 -10.2638535051233 L 0.296626263879167 -10.3082313728492 L -0.396634622486519 -10.3048678109005 L -1.0749778237974 -10.2563173188586 L -1.73459071567843 -10.1655701462332 L -2.37222261116241 -10.0359444799805 L -2.98519694818809 -9.87097863202052 L -3.57140416460124 -9.67433166425347 L -4.12927844815852 -9.44969207607477 L -4.65775986153366 -9.20070074188763 L -5.1562491548249 -8.9308854736138 L -5.63916076316952 -8.63408877226257 L -6.11903430951212 -8.30090601437548 L -6.59251485690261 -7.93009257515654 L -7.0559199059446 -7.52074564225373 L -7.50527145729014 -7.07237734074702 L -7.93634663663141 -6.5849846706369 L -8.34474238219014 -6.05911663183339 L -8.72596019470367 -5.49592953664695 L -9.07550344990906 -4.89722975978149 L -9.38899102352444 -4.26549755083047 L -9.66227766622927 -3.6038881592767 L -9.89158000364369 -2.91620745949635 L -10.0735987863085 -2.20685982576749 L -10.2056330771664 -1.48076863228311 L -10.285677751546 -0.743272565668133 L -10.3124983096498 0 L -10.285677751546 0.743272565668133 L -10.2056330771664 1.48076863228311 L -10.0735987863085 2.20685982576749 L -9.89158000364369 2.91620745949635 L -9.66227766622927 3.6038881592767 L -9.38899102352444 4.26549755083047 L -9.07550344990906 4.89722975978149 L -8.72596019470367 5.49592953664695 L -8.34474238219014 6.05911663183339 L -7.93634663663141 6.5849846706369 L -7.50527145729014 7.07237734074702 L -7.0559199059446 7.52074564225373 L -6.59251485690261 7.93009257515654 L -6.11903430951212 8.30090601437548 L -5.63916076316952 8.63408877226257 L -5.1562491548249 8.9308854736138 L -4.65775986153366 9.20070074188763 L -4.12927844815852 9.44969207607477 L -3.57140416460124 9.67433166425347 L -2.98519694818809 9.87097863202052 L -2.37222261116241 10.0359444799805 L -1.73459071567843 10.1655701462332 L -1.0749778237974 10.2563173188586 L -0.396634622486519 10.3048678109005 L 0.296626263879167 10.3082313728492 L 1.0004662735108 10.2638535051233 L 1.71008015719602 10.1697221455526 L 2.42028016578517 10.0244632943624 L 3.12560273767379 9.82742220165997 L 3.82043337378217 9.57872167992517 L 4.49914595003251 9.2792945415051 L 5.1562491548249 8.9308854736138 L 5.78653180151353 8.53602197583697 L 6.38519970338421 8.09795323514203 L 6.9479960486347 7.62056256339246 L 7.47129983785852 7.10825583486607 L 7.95219769653322 6.56583379877597 L 8.38852475001365 5.99835595429284 L 8.77887699852993 5.41100161306772 L 9.12259462969022 4.80893827425359 L 9.41972020598754 4.1972006870252 L 9.67093735230984 3.58058547559631 L 9.87749425595253 2.96356713923349 L 10.0411168541327 2.35023298976679 L 10.1639190215038 1.74423908909693 L 10.2483125701707 1.14878606169929 L 10.2969204372032 0.56661215712503 L 10.3124983096498 0 " />
  </g>
</svg>