<?xml version="1.0" encoding="UTF-8"?>
<svg viewBox="-15.0000040745361 -15.0000122236082 30 30.0000011641532" xmlns="http://www.w3.org/2000/svg" xmlns:xlink="http://www.w3.org/1999/xlink" xmlns:gmsvgsym="http://www.intergraph.com/GeoMedia/svgsym">
  <!-- Creator: SVG Document for Symbols-->
  <polyline points="14.9999952875385,-1.16249994478422E-05 14.9066342919729,-1.67097342063302 14.6052584312874,-3.4185328376284 14.3672619425917,-4.31065529525486 14.0668155818621,-5.20813650262679 13.701408724218,-6.10503133502657 13.2692261197456,-6.99483179276332 12.7692732684921,-7.87056037616844 12.2014879204604,-8.72489396058977 11.566830200605,-9.5503165463843 10.8673423588289,-10.3392940089099 10.1061731449825,-11.084467473516 9.28756030886456,-11.7788539405345 8.41677060022485,-12.4160449102695 7.49999564376932,-12.9903920079895 6.54420893916675,-13.4971688589189 5.55699048605711,-13.9326994632323 4.54632778406102,-14.2944456960503 3.52040395778978,-14.5810509324372 2.48738550685553,-14.7923364224017 1.45521980588077,-14.9292547908984 0.431452479507107,-14.9938044128325 -0.576927097597433,-14.9889121630649 -1.5636081757326,-14.9182930414191 -2.52304538016177,-14.7862971726886 -3.45051008610956,-14.597750681644 -4.34210904376089,-14.3578005680411 -6.00622783971949,-13.7450199721466 -7.50000364376894,-12.9903920079895 -8.9004185772528,-12.074058176513 -10.263161387526,-10.9392793554121 -10.9167638564815,-10.2871070113886 -11.5437822016998,-9.57817229506123 -12.1378126734848,-8.81327320639198 -12.6923111471476,-7.99409187030101 -13.2007377479986,-7.12325566166351 -13.6567197263406,-6.20437245530812 -14.05422783246,-5.24203150101686 -14.3877584416181,-4.2417685485268 -14.652512929043,-3.20998984753366 -14.8445629199211,-2.15385702269728 -14.960991539391,-1.08113557364882 -15.0000032875381,-1.16249994478422E-05 -14.960991539391,1.08111232364992 -14.8445629199211,2.15383389769838 -14.652512929043,3.20996659753477 -14.3877584416181,4.24174529852791 -14.05422783246,5.24200825101797 -13.6567197263406,6.20434920530923 -13.2007377479986,7.12323253666461 -12.6923111471476,7.99406862030211 -12.1378126734848,8.81325008139308 -11.5437822016998,9.57814904506233 -10.9167638564815,10.2870837613897 -10.263161387526,10.9392561054132 -8.9004185772528,12.0740349265141 -7.50000364376894,12.9903688829906 -6.00622783971949,13.7449967221477 -4.34210904376089,14.3577773180422 -3.45051008610956,14.5977274316452 -2.52304538016177,14.7862739226897 -1.5636081757326,14.9182697914202 -0.576927097597433,14.988888913066 0.431452479507107,14.9937812878336 1.45521980588077,14.9292315408996 2.48738550685553,14.7923131724028 3.52040395778978,14.5810276824383 4.54632778406102,14.2944224460514 5.55699048605711,13.9326762132334 6.54420893916675,13.49714573392 7.49999564376932,12.9903688829906 8.41677060022485,12.4160216602706 9.28756030886456,11.7788308155356 10.1061731449825,11.0844443485171 10.8673423588289,10.339270758911 11.566830200605,9.55029329638541 12.2014879204604,8.72487083559087 12.7692732684921,7.87053712616955 13.2692261197456,6.99480866776442 13.701408724218,6.10500821002767 14.0668155818621,5.20811325262789 14.3672619425917,4.31063204525596 14.6052584312874,3.41850958762951 14.9066342919729,1.67095017063413 14.9999952875385,-1.16249994478422E-05" style=" stroke-width: 0.00124999994062819;stroke: #000000; fill: none; " xmlns="http://www.w3.org/2000/svg" />
  <g id="ComplexString2d_1608" style=" fill-rule: evenodd; stroke-width: 0;stroke: #000000; fill: #000000; " xmlns="http://www.w3.org/2000/svg">
    <path d="M 14.9999952875385 -1.16249994478422E-05 L 14.9066342919729 -1.67097342063302 L 14.6052584312874 -3.4185328376284 L 14.3672619425917 -4.31065529525486 L 14.0668155818621 -5.20813650262679 L 13.701408724218 -6.10503133502657 L 13.2692261197456 -6.99483179276332 L 12.7692732684921 -7.87056037616844 L 12.2014879204604 -8.72489396058977 L 11.566830200605 -9.5503165463843 L 10.8673423588289 -10.3392940089099 L 10.1061731449825 -11.084467473516 L 9.28756030886456 -11.7788539405345 L 8.41677060022485 -12.4160449102695 L 7.49999564376932 -12.9903920079895 L 6.54420893916675 -13.4971688589189 L 5.55699048605711 -13.9326994632323 L 4.54632778406102 -14.2944456960503 L 3.52040395778978 -14.5810509324372 L 2.48738550685553 -14.7923364224017 L 1.45521980588077 -14.9292547908984 L 0.431452479507107 -14.9938044128325 L -0.576927097597433 -14.9889121630649 L -1.5636081757326 -14.9182930414191 L -2.52304538016177 -14.7862971726886 L -3.45051008610956 -14.597750681644 L -4.34210904376089 -14.3578005680411 L -6.00622783971949 -13.7450199721466 L -7.50000364376894 -12.9903920079895 L -8.9004185772528 -12.074058176513 L -10.263161387526 -10.9392793554121 L -10.9167638564815 -10.2871070113886 L -11.5437822016998 -9.57817229506123 L -12.1378126734848 -8.81327320639198 L -12.6923111471476 -7.99409187030101 L -13.2007377479986 -7.12325566166351 L -13.6567197263406 -6.20437245530812 L -14.05422783246 -5.24203150101686 L -14.3877584416181 -4.2417685485268 L -14.652512929043 -3.20998984753366 L -14.8445629199211 -2.15385702269728 L -14.960991539391 -1.08113557364882 L -15.0000032875381 -1.16249994478422E-05 L -14.960991539391 1.08111232364992 L -14.8445629199211 2.15383389769838 L -14.652512929043 3.20996659753477 L -14.3877584416181 4.24174529852791 L -14.05422783246 5.24200825101797 L -13.6567197263406 6.20434920530923 L -13.2007377479986 7.12323253666461 L -12.6923111471476 7.99406862030211 L -12.1378126734848 8.81325008139308 L -11.5437822016998 9.57814904506233 L -10.9167638564815 10.2870837613897 L -10.263161387526 10.9392561054132 L -8.9004185772528 12.0740349265141 L -7.50000364376894 12.9903688829906 L -6.00622783971949 13.7449967221477 L -4.34210904376089 14.3577773180422 L -3.45051008610956 14.5977274316452 L -2.52304538016177 14.7862739226897 L -1.5636081757326 14.9182697914202 L -0.576927097597433 14.988888913066 L 0.431452479507107 14.9937812878336 L 1.45521980588077 14.9292315408996 L 2.48738550685553 14.7923131724028 L 3.52040395778978 14.5810276824383 L 4.54632778406102 14.2944224460514 L 5.55699048605711 13.9326762132334 L 6.54420893916675 13.49714573392 L 7.49999564376932 12.9903688829906 L 8.41677060022485 12.4160216602706 L 9.28756030886456 11.7788308155356 L 10.1061731449825 11.0844443485171 L 10.8673423588289 10.339270758911 L 11.566830200605 9.55029329638541 L 12.2014879204604 8.72487083559087 L 12.7692732684921 7.87053712616955 L 13.2692261197456 6.99480866776442 L 13.701408724218 6.10500821002767 L 14.0668155818621 5.20811325262789 L 14.3672619425917 4.31063204525596 L 14.6052584312874 3.41850958762951 L 14.9066342919729 1.67095017063413 L 14.9999952875385 -1.16249994478422E-05 " />
  </g>
  <polyline points="12.4999954062821,-1.16249994478422E-05 12.4221945349774,-1.39247980886076 12.1710480469062,-2.84877923969025 11.7223456932185,-4.34011566885557 11.057687724788,-5.829028473136 10.6410603695768,-6.55880218847361 10.1679058920504,-7.27074690465805 9.6390245421709,-7.95859899698683 9.05611806985747,-8.61608021575815 8.42181022498548,-9.23705818626328 7.73963288238716,-9.81571353377862 7.01397479185407,-10.3467060085578 6.24999570314113,-10.8253286108245 5.45350674097233,-11.2476427157656 4.63082478004763,-11.6105848235268 3.78860582005088,-11.9120400592085 2.93366936065818,-12.1508776728643 2.0728206515463,-12.3269489145013 1.21268244240067,-12.4410476590819 0.359543107922619,-12.494839031527 -0.480773227164497,-12.4907620317206 -2.10253852513478,-12.3219162897404 -3.61842495313404,-11.9648356817008 -5.00519051226621,-11.4541852059554 -6.25000370314075,-10.8253286108245 -7.41701614771064,-10.0617170220941 -8.55263521877163,-9.11606806701 -9.61981916808311,-7.98181224588426 -10.5769266226229,-6.66174518358408 -11.0006154774988,-5.93604834305283 -11.3806004594505,-5.17031225442335 -11.7118571937166,-4.36836154251396 -11.9897993055151,-3.53480895710558 -12.2104281700358,-2.67499337294463 -12.3704697874342,-1.79488278974764 -12.4674936578258,-0.900948207207256 -12.5000034062817,-1.16249994478422E-05 -12.4674936578258,0.900925082208355 -12.3704697874342,1.79485966474874 -12.2104281700358,2.67497024794573 -11.9897993055151,3.53478583210668 -11.7118571937166,4.36833829251506 -11.3806004594505,5.17028900442445 -11.0006154774988,5.93602509305394 -10.5769266226229,6.66172193358519 -9.61981916808311,7.98178899588537 -8.55263521877163,9.1160448170111 -7.41701614771064,10.0616938970952 -6.25000370314075,10.8253054858256 -5.00519051226621,11.4541619559565 -3.61842495313404,11.9648124317019 -2.10253852513478,12.3218930397415 -0.480773227164497,12.4907387817217 0.359543107922619,12.4948157815281 1.21268244240067,12.441024409083 2.0728206515463,12.3269256645024 2.93366936065818,12.1508544228654 3.78860582005088,11.9120168092096 4.63082478004763,11.6105615735279 5.45350674097233,11.2476194657667 6.24999570314113,10.8253054858256 7.01397479185407,10.3466828835589 7.73963288238716,9.81569040877972 8.42181022498548,9.23703493626438 9.05611806985747,8.61605709075925 9.6390245421709,7.95857587198793 10.1679058920504,7.27072365465916 10.6410603695768,6.55877906347471 11.057687724788,5.82900522313711 11.7223456932185,4.34009241885667 12.1710480469062,2.84875598969135 12.4221945349774,1.39245655886186 12.4999954062821,-1.16249994478422E-05" style=" stroke-width: 0.00124999994062819;stroke: #ffffff; fill: none; " xmlns="http://www.w3.org/2000/svg" />
  <g id="ComplexString2d_1609" style=" fill-rule: evenodd; stroke-width: 0;stroke: #ffffff; fill: #ffffff; " xmlns="http://www.w3.org/2000/svg">
    <path d="M 12.4999954062821 -1.16249994478422E-05 L 12.4221945349774 -1.39247980886076 L 12.1710480469062 -2.84877923969025 L 11.7223456932185 -4.34011566885557 L 11.057687724788 -5.829028473136 L 10.6410603695768 -6.55880218847361 L 10.1679058920504 -7.27074690465805 L 9.6390245421709 -7.95859899698683 L 9.05611806985747 -8.61608021575815 L 8.42181022498548 -9.23705818626328 L 7.73963288238716 -9.81571353377862 L 7.01397479185407 -10.3467060085578 L 6.24999570314113 -10.8253286108245 L 5.45350674097233 -11.2476427157656 L 4.63082478004763 -11.6105848235268 L 3.78860582005088 -11.9120400592085 L 2.93366936065818 -12.1508776728643 L 2.0728206515463 -12.3269489145013 L 1.21268244240067 -12.4410476590819 L 0.359543107922619 -12.494839031527 L -0.480773227164497 -12.4907620317206 L -2.10253852513478 -12.3219162897404 L -3.61842495313404 -11.9648356817008 L -5.00519051226621 -11.4541852059554 L -6.25000370314075 -10.8253286108245 L -7.41701614771064 -10.0617170220941 L -8.55263521877163 -9.11606806701 L -9.61981916808311 -7.98181224588426 L -10.5769266226229 -6.66174518358408 L -11.0006154774988 -5.93604834305283 L -11.3806004594505 -5.17031225442335 L -11.7118571937166 -4.36836154251396 L -11.9897993055151 -3.53480895710558 L -12.2104281700358 -2.67499337294463 L -12.3704697874342 -1.79488278974764 L -12.4674936578258 -0.900948207207256 L -12.5000034062817 -1.16249994478422E-05 L -12.4674936578258 0.900925082208355 L -12.3704697874342 1.79485966474874 L -12.2104281700358 2.67497024794573 L -11.9897993055151 3.53478583210668 L -11.7118571937166 4.36833829251506 L -11.3806004594505 5.17028900442445 L -11.0006154774988 5.93602509305394 L -10.5769266226229 6.66172193358519 L -9.61981916808311 7.98178899588537 L -8.55263521877163 9.1160448170111 L -7.41701614771064 10.0616938970952 L -6.25000370314075 10.8253054858256 L -5.00519051226621 11.4541619559565 L -3.61842495313404 11.9648124317019 L -2.10253852513478 12.3218930397415 L -0.480773227164497 12.4907387817217 L 0.359543107922619 12.4948157815281 L 1.21268244240067 12.441024409083 L 2.0728206515463 12.3269256645024 L 2.93366936065818 12.1508544228654 L 3.78860582005088 11.9120168092096 L 4.63082478004763 11.6105615735279 L 5.45350674097233 11.2476194657667 L 6.24999570314113 10.8253054858256 L 7.01397479185407 10.3466828835589 L 7.73963288238716 9.81569040877972 L 8.42181022498548 9.23703493626438 L 9.05611806985747 8.61605709075925 L 9.6390245421709 7.95857587198793 L 10.1679058920504 7.27072365465916 L 10.6410603695768 6.55877906347471 L 11.057687724788 5.82900522313711 L 11.7223456932185 4.34009241885667 L 12.1710480469062 2.84875598969135 L 12.4221945349774 1.39245655886186 L 12.4999954062821 -1.16249994478422E-05 " />
  </g>
  <polyline points="4.37499579219885,-1.16249994478422E-05 4.36838704251275,-0.240392488581969 4.34776554349222,-0.487375476850907 4.31196217019279,-0.739991964852268 4.25986417266731,-0.997080327641226 4.19044855096437,-1.25728269028228 4.10281843012658,-1.51904805284909 3.99624143518872,-1.78064241542402 3.87018806617593,-2.04016752809724 3.72436857310198,-2.29558826596541 3.55876445596776,-2.54476900412996 3.37365596475994,-2.78551724269503 3.16963872445024,-3.01563560676499 2.94763098499504,-3.23297797144179 2.70886887133563,-3.43550733682216 2.45488863339905,-3.62135470299488 2.18749589609952,-3.78887257003821 1.90872478434044,-3.93668243801762 1.62078604801679,-4.06371218198403 1.32600943701793,-4.1692215519726 1.02678170123049,-4.25281467300214 0.725484590541331,-4.31443967007511 0.424436229840361,-4.35437416817832 0.12583749402304,-4.37320116728409 -0.16827324200745,-4.37177429235186 -0.456055228338539,-4.35117704333018 -0.735891090047049,-4.31267829515877 -1.00640157719849,-4.25768554777079 -1.26645131484679,-4.18770005109492 -1.51514530303446,-4.10427405505744 -1.75181929179305,-4.00897243458403 -1.97602353114392,-3.90333968960131 -2.18750389609914,-3.78887257003821 -2.39237551136826,-3.6629587010188 -2.5959582516986,-3.52160845773257 -2.79682886715776,-3.36429371520462 -2.99342498281994,-3.19063134845314 -3.18405897376531,-3.00041448248796 -3.36693934007896,-2.79364186730913 -3.54019820684961,-2.5705462529056 -3.70192694916791,-2.33161838925407 -3.85021806712445,-2.07762452631813 -3.98321281080754,-1.80961678904781 -4.0991526803007,-1.52893405237953 -4.19643242568015,-1.2371906912366 -4.2736524220124,-0.936255205530264 -4.32966704435185,-0.628216595161313 -4.36362541773891,-0.315339485022178 -4.37500379219847,-1.16249994478422E-05 -4.36362541773891,0.315316235023282 -4.32966704435185,0.628193345162417 -4.2736524220124,0.936232080531362 -4.19643242568015,1.2371674412377 -4.0991526803007,1.52891080238063 -3.98321281080754,1.80959366404891 -3.85021806712445,2.07760127631923 -3.70192694916791,2.33159513925517 -3.54019820684961,2.57052300290671 -3.36693934007896,2.79361861731024 -3.18405897376531,3.00039123248906 -2.99342498281994,3.19060809845425 -2.79682886715776,3.36427046520573 -2.5959582516986,3.52158533273367 -2.39237551136826,3.6629355760199 -2.18750389609914,3.78884932003931 -1.97602353114392,3.90331643960242 -1.75181929179305,4.00894918458513 -1.51514530303446,4.10425080505855 -1.26645131484679,4.18767680109602 -1.00640157719849,4.25766229777189 -0.735891090047049,4.31265504515988 -0.456055228338539,4.35115379333128 -0.16827324200745,4.37175104235297 0.12583749402304,4.37317791728519 0.424436229840361,4.35435104317942 0.725484590541331,4.31441642007622 1.02678170123049,4.25279154800324 1.32600943701793,4.16919830197371 1.62078604801679,4.06368905698513 1.90872478434044,3.93665931301872 2.18749589609952,3.78884932003931 2.45488863339905,3.62133145299599 2.70886887133563,3.43548408682326 2.94763098499504,3.23295472144289 3.16963872445024,3.01561248176609 3.37365596475994,2.78549399269613 3.55876445596776,2.54474575413106 3.72436857310198,2.29556514096651 3.87018806617593,2.04014427809835 3.99624143518872,1.78061916542513 4.10281843012658,1.51902480285019 4.19044855096437,1.25725944028338 4.25986417266731,0.99705707764233 4.31196217019279,0.739968714853372 4.34776554349222,0.487352226852011 4.36838704251275,0.240369238583074 4.37499579219885,-1.16249994478422E-05" style=" stroke-width: 0.00124999994062819;stroke: #000000; fill: none; " xmlns="http://www.w3.org/2000/svg" />
  <g id="ComplexString2d_1610" style=" fill-rule: evenodd; stroke-width: 0;stroke: #000000; fill: #000000; " xmlns="http://www.w3.org/2000/svg">
    <path d="M 4.37499579219885 -1.16249994478422E-05 L 4.36838704251275 -0.240392488581969 L 4.34776554349222 -0.487375476850907 L 4.31196217019279 -0.739991964852268 L 4.25986417266731 -0.997080327641226 L 4.19044855096437 -1.25728269028228 L 4.10281843012658 -1.51904805284909 L 3.99624143518872 -1.78064241542402 L 3.87018806617593 -2.04016752809724 L 3.72436857310198 -2.29558826596541 L 3.55876445596776 -2.54476900412996 L 3.37365596475994 -2.78551724269503 L 3.16963872445024 -3.01563560676499 L 2.94763098499504 -3.23297797144179 L 2.70886887133563 -3.43550733682216 L 2.45488863339905 -3.62135470299488 L 2.18749589609952 -3.78887257003821 L 1.90872478434044 -3.93668243801762 L 1.62078604801679 -4.06371218198403 L 1.32600943701793 -4.1692215519726 L 1.02678170123049 -4.25281467300214 L 0.725484590541331 -4.31443967007511 L 0.424436229840361 -4.35437416817832 L 0.12583749402304 -4.37320116728409 L -0.16827324200745 -4.37177429235186 L -0.456055228338539 -4.35117704333018 L -0.735891090047049 -4.31267829515877 L -1.00640157719849 -4.25768554777079 L -1.26645131484679 -4.18770005109492 L -1.51514530303446 -4.10427405505744 L -1.75181929179305 -4.00897243458403 L -1.97602353114392 -3.90333968960131 L -2.18750389609914 -3.78887257003821 L -2.39237551136826 -3.6629587010188 L -2.5959582516986 -3.52160845773257 L -2.79682886715776 -3.36429371520462 L -2.99342498281994 -3.19063134845314 L -3.18405897376531 -3.00041448248796 L -3.36693934007896 -2.79364186730913 L -3.54019820684961 -2.5705462529056 L -3.70192694916791 -2.33161838925407 L -3.85021806712445 -2.07762452631813 L -3.98321281080754 -1.80961678904781 L -4.0991526803007 -1.52893405237953 L -4.19643242568015 -1.2371906912366 L -4.2736524220124 -0.936255205530264 L -4.32966704435185 -0.628216595161313 L -4.36362541773891 -0.315339485022178 L -4.37500379219847 -1.16249994478422E-05 L -4.36362541773891 0.315316235023282 L -4.32966704435185 0.628193345162417 L -4.2736524220124 0.936232080531362 L -4.19643242568015 1.2371674412377 L -4.0991526803007 1.52891080238063 L -3.98321281080754 1.80959366404891 L -3.85021806712445 2.07760127631923 L -3.70192694916791 2.33159513925517 L -3.54019820684961 2.57052300290671 L -3.36693934007896 2.79361861731024 L -3.18405897376531 3.00039123248906 L -2.99342498281994 3.19060809845425 L -2.79682886715776 3.36427046520573 L -2.5959582516986 3.52158533273367 L -2.39237551136826 3.6629355760199 L -2.18750389609914 3.78884932003931 L -1.97602353114392 3.90331643960242 L -1.75181929179305 4.00894918458513 L -1.51514530303446 4.10425080505855 L -1.26645131484679 4.18767680109602 L -1.00640157719849 4.25766229777189 L -0.735891090047049 4.31265504515988 L -0.456055228338539 4.35115379333128 L -0.16827324200745 4.37175104235297 L 0.12583749402304 4.37317791728519 L 0.424436229840361 4.35435104317942 L 0.725484590541331 4.31441642007622 L 1.02678170123049 4.25279154800324 L 1.32600943701793 4.16919830197371 L 1.62078604801679 4.06368905698513 L 1.90872478434044 3.93665931301872 L 2.18749589609952 3.78884932003931 L 2.45488863339905 3.62133145299599 L 2.70886887133563 3.43548408682326 L 2.94763098499504 3.23295472144289 L 3.16963872445024 3.01561248176609 L 3.37365596475994 2.78549399269613 L 3.55876445596776 2.54474575413106 L 3.72436857310198 2.29556514096651 L 3.87018806617593 2.04014427809835 L 3.99624143518872 1.78061916542513 L 4.10281843012658 1.51902480285019 L 4.19044855096437 1.25725944028338 L 4.25986417266731 0.99705707764233 L 4.31196217019279 0.739968714853372 L 4.34776554349222 0.487352226852011 L 4.36838704251275 0.240369238583074 L 4.37499579219885 -1.16249994478422E-05 " />
  </g>
</svg>