<?xml version="1.0" encoding="UTF-8"?>
<svg viewBox="-15 -15 30 30" xmlns="http://www.w3.org/2000/svg" xmlns:xlink="http://www.w3.org/1999/xlink" xmlns:gmsvgsym="http://www.intergraph.com/GeoMedia/svgsym">
  <!-- Creator: SVG Document for Symbols-->
  <polyline points="14.9999990935127,0 14.9066380991548,-1.67096173235296 14.6052622840343,-3.4185211267436 14.0668194832404,-5.20812485192673 13.2692300314408,-6.99482007728563 12.2014917626335,-8.724882306067 11.5668341343208,-9.55030475618467 10.8673463432592,-10.3392822085048 10.1061770559253,-11.0844558301388 9.28756427206273,-11.7788422881753 8.41677449135338,-12.4160330830016 7.49999954675637,-12.990380214959 6.54421293785027,-13.4971571843332 5.55699449751034,-13.932687658013 4.54633172525387,-14.2944339694851 3.52040795391966,-14.5810391188315 2.48738951634753,-14.792324606063 1.45522374539054,-14.9292429311221 0.431456473926012,-14.9937925938878 -0.57692296513511,-14.9889002608501 -2.52304134752634,-14.7862854397613 -4.34210507092912,-14.3577887989898 -6.00622363702897,-13.745008169355 -7.49999954675637,-12.990380214959 -8.90041446212582,-12.074046437002 -10.2631572131052,-10.9392676722462 -11.5437781357141,-9.5781605878346 -12.692306899639,-7.99408018356452 -13.6567156746907,-6.20436079172171 -14.0542236506683,-5.24201984987837 -14.3877542971789,-4.24175674366009 -14.6525087811791,-3.20997813934637 -14.8445587695731,-2.15384536983777 -14.9609874292037,-1.08112393466499 -14.9999990935127,0 -14.9609874292037,1.08112393466499 -14.8445587695731,2.15384536983777 -14.6525087811791,3.20997813934637 -14.3877542971789,4.24175674366009 -14.0542236506683,5.24201984987837 -13.6567156746907,6.20436079172171 -13.2007335355802,7.12324406952464 -12.692306899639,7.99408018356452 -11.5437781357141,9.5781605878346 -10.2631572131052,10.9392676722462 -8.90041446212582,12.074046437002 -7.49999954675637,12.990380214959 -6.00622363702897,13.745008169355 -4.34210507092912,14.3577887989898 -2.52304134752634,14.7862854397613 -0.57692296513511,14.9889002608501 1.45522374539054,14.9292429311221 2.48738951634753,14.792324606063 3.52040795391966,14.5810391188315 4.54633172525387,14.2944339694851 5.55699449751034,13.932687658013 6.54421293785027,13.4971571843332 7.49999954675637,12.990380214959 8.41677449135338,12.4160330830016 9.28756427206273,11.7788422881753 10.1061770559253,11.0844558301388 10.8673463432592,10.3392822085048 11.5668341343208,9.55030475618467 12.2014917626335,8.724882306067 12.7692770616542,7.87054869102983 13.2692300314408,6.99482007728563 14.0668194832404,5.20812485192673 14.6052622840343,3.4185211267436 14.9066380991548,1.67096173235296 14.9999990935127,0" style=" stroke-width: 0.00166666656594586;stroke: #1b4074; fill: none; " xmlns="http://www.w3.org/2000/svg" />
  <g id="ComplexString2d_1586" style=" fill-rule: evenodd; stroke-width: 0;stroke: #1b4074; fill: #1b4074; " xmlns="http://www.w3.org/2000/svg">
    <path d="M 14.9999990935127 0 L 14.9066380991548 -1.67096173235296 L 14.6052622840343 -3.4185211267436 L 14.0668194832404 -5.20812485192673 L 13.2692300314408 -6.99482007728563 L 12.2014917626335 -8.724882306067 L 11.5668341343208 -9.55030475618467 L 10.8673463432592 -10.3392822085048 L 10.1061770559253 -11.0844558301388 L 9.28756427206273 -11.7788422881753 L 8.41677449135338 -12.4160330830016 L 7.49999954675637 -12.990380214959 L 6.54421293785027 -13.4971571843332 L 5.55699449751034 -13.932687658013 L 4.54633172525387 -14.2944339694851 L 3.52040795391966 -14.5810391188315 L 2.48738951634753 -14.792324606063 L 1.45522374539054 -14.9292429311221 L 0.431456473926012 -14.9937925938878 L -0.57692296513511 -14.9889002608501 L -2.52304134752634 -14.7862854397613 L -4.34210507092912 -14.3577887989898 L -6.00622363702897 -13.745008169355 L -7.49999954675637 -12.990380214959 L -8.90041446212582 -12.074046437002 L -10.2631572131052 -10.9392676722462 L -11.5437781357141 -9.5781605878346 L -12.692306899639 -7.99408018356452 L -13.6567156746907 -6.20436079172171 L -14.0542236506683 -5.24201984987837 L -14.3877542971789 -4.24175674366009 L -14.6525087811791 -3.20997813934637 L -14.8445587695731 -2.15384536983777 L -14.9609874292037 -1.08112393466499 L -14.9999990935127 0 L -14.9609874292037 1.08112393466499 L -14.8445587695731 2.15384536983777 L -14.6525087811791 3.20997813934637 L -14.3877542971789 4.24175674366009 L -14.0542236506683 5.24201984987837 L -13.6567156746907 6.20436079172171 L -13.2007335355802 7.12324406952464 L -12.692306899639 7.99408018356452 L -11.5437781357141 9.5781605878346 L -10.2631572131052 10.9392676722462 L -8.90041446212582 12.074046437002 L -7.49999954675637 12.990380214959 L -6.00622363702897 13.745008169355 L -4.34210507092912 14.3577887989898 L -2.52304134752634 14.7862854397613 L -0.57692296513511 14.9889002608501 L 1.45522374539054 14.9292429311221 L 2.48738951634753 14.792324606063 L 3.52040795391966 14.5810391188315 L 4.54633172525387 14.2944339694851 L 5.55699449751034 13.932687658013 L 6.54421293785027 13.4971571843332 L 7.49999954675637 12.990380214959 L 8.41677449135338 12.4160330830016 L 9.28756427206273 11.7788422881753 L 10.1061770559253 11.0844558301388 L 10.8673463432592 10.3392822085048 L 11.5668341343208 9.55030475618467 L 12.2014917626335 8.724882306067 L 12.7692770616542 7.87054869102983 L 13.2692300314408 6.99482007728563 L 14.0668194832404 5.20812485192673 L 14.6052622840343 3.4185211267436 L 14.9066380991548 1.67096173235296 L 14.9999990935127 0 " />
  </g>
  <polyline points="12.499999244594,0 12.4811170790684,-0.686802625161476 12.4221984159623,-1.39246808251636 12.3199032554776,-2.11422937223186 12.1710519311397,-2.84876766117522 11.9727214431253,-3.59220294958091 11.7223494582559,-4.34010407105005 11.4178438099913,-5.0875163592154 11.0576916650895,-5.82901681440468 10.6410641902674,-6.55879060363597 10.4115235374724,-6.9173809152988 10.1679098855279,-7.27073522727805 9.91035023442622,-7.61806670628795 9.63902841748954,-7.95858735237611 9.35418593470328,-8.29151299892325 9.05612195271603,-8.61606847930955 8.74519330483955,-8.93149346024764 8.42181415771549,-9.23704644178231 8.08645417798213,-9.53201142395684 7.73963686560783,-9.81570190681272 7.38193722055784,-10.0874667237226 7.01397874279449,-10.3466943747235 6.63642976561071,-10.5928173598497 6.24999962229698,-10.8253168457992 5.85543414614155,-11.0437254992669 5.45351067043079,-11.2476309869444 5.04503369511607,-11.4366784755197 4.6308287201475,-11.6105729650109 4.21173691214093,-11.7690804554319 3.78860977104489,-11.9120282801265 3.36230346347431,-12.0393062724348 2.93367332271082,-12.1508659323596 2.50356784870317,-12.2467190932336 2.07282454140072,-12.3269370883859 1.64226423408722,-12.3916484178085 1.21268642671434,-12.4410359148239 0.784865785901942,-12.4753344127512 0.359547144938339,-12.4948272449065 -0.0625568295528685,-12.4998427446034 -0.480769137612592,-12.4907502451529 -1.30300342125626,-12.4319010820426 -2.10253437293862,-12.3219044220233 -2.87542165956445,-12.1647824315186 -3.61842078132983,-11.9648239436026 -4.32897523838926,-11.7264637913406 -5.00518636419081,-11.4541734744625 -5.64576999214541,-11.1523656593681 -6.24999962229698,-10.8253168457992 -6.83534708692298,-10.4655632008733 -7.41701205177152,-10.0617053919461 -7.99092801708835,-9.61223441910877 -8.55263098314324,-9.11605628242738 -9.09729978356088,-8.5725794819377 -9.61981508531732,-7.98180051763994 -10.114840388735,-7.34438455616058 -10.5769223608103,-6.66173343074821 -11.0006113352057,-5.93603664127054 -11.1963893233743,-5.55795349745238 -11.3805963122423,-5.17030068754587 -11.5526144685134,-4.77358171152058 -11.7118529588903,-4.36834973600976 -11.8577537834064,-3.95520609431039 -11.9897952754269,-3.53479728638341 -12.1074969349805,-3.10781281218714 -12.2104239287604,-2.67498183834419 -12.2981910901231,-2.23706903147502 -12.3704655857553,-1.7948712248648 -12.4269710823406,-1.34921191846377 -12.4674894132253,-0.900936612220826 -12.4918639117523,-0.450908139417166 -12.499999244594,0 -12.4918639117523,0.450908139417166 -12.4674894132253,0.900936612220826 -12.4269710823406,1.34921191846377 -12.3704655857553,1.7948712248648 -12.2981910901231,2.23706903147502 -12.2104239287604,2.67498183834419 -12.1074969349805,3.10781281218714 -11.9897952754269,3.53479728638341 -11.8577537834064,3.95520609431039 -11.7118529588903,4.36834973600976 -11.5526144685134,4.77358171152058 -11.3805963122423,5.17030068754587 -11.1963893233743,5.55795349745238 -11.0006113352057,5.93603664127054 -10.7939028476976,6.30409711902773 -10.5769223608103,6.66173343074821 -10.114840388735,7.34438455616058 -9.61981508531732,7.98180051763994 -9.09729978356088,8.5725794819377 -8.55263098314324,9.11605628242738 -7.99092801708835,9.61223441910877 -7.41701205177152,10.0617053919461 -6.83534708692298,10.4655632008733 -6.24999962229698,10.8253168457992 -5.64576999214541,11.1523656593681 -5.00518636419081,11.4541734744625 -4.32897523838926,11.7264637913406 -3.61842078132983,11.9648239436026 -2.87542165956445,12.1647824315186 -2.10253437293862,12.3219044220233 -1.30300342125626,12.4319010820426 -0.480769137612592,12.4907502451529 0.359547144938339,12.4948272449065 0.784865785901942,12.4753344127512 1.21268642671434,12.4410359148239 1.64226423408722,12.3916484178085 2.07282454140072,12.3269370883859 2.50356784870317,12.2467190932336 2.93367332271082,12.1508659323596 3.36230346347431,12.0393062724348 3.78860977104489,11.9120282801265 4.21173691214093,11.7690804554319 4.6308287201475,11.6105729650109 5.04503369511607,11.4366784755197 5.45351067043079,11.2476309869444 5.85543414614155,11.0437254992669 6.24999962229698,10.8253168457992 6.63642976561071,10.5928173598497 7.01397874279449,10.3466943747235 7.38193722055784,10.0874667237226 7.73963686560783,9.81570190681272 8.08645417798213,9.53201142395684 8.42181415771549,9.23704644178231 8.74519330483955,8.93149346024764 9.05612195271603,8.61606847930955 9.35418593470328,8.29151299892325 9.63902841748954,7.95858735237611 9.91035023442622,7.61806670628795 10.1679098855279,7.27073522727805 10.4115235374724,6.9173809152988 10.6410641902674,6.55879060363597 10.8564598439171,6.19574545890903 11.0576916650895,5.82901681440468 11.4178438099913,5.0875163592154 11.7223494582559,4.34010407105005 11.9727214431253,3.59220294958091 12.1710519311397,2.84876766117522 12.3199032554776,2.11422937223186 12.4221984159623,1.39246808251636 12.4811170790684,0.686802625161476 12.499999244594,0" style=" stroke-width: 0.00166666656594586;stroke: #ffffff; fill: none; " xmlns="http://www.w3.org/2000/svg" />
  <g id="ComplexString2d_1587" style=" fill-rule: evenodd; stroke-width: 0;stroke: #ffffff; fill: #ffffff; " xmlns="http://www.w3.org/2000/svg">
    <path d="M 12.499999244594 0 L 12.4811170790684 -0.686802625161476 L 12.4221984159623 -1.39246808251636 L 12.3199032554776 -2.11422937223186 L 12.1710519311397 -2.84876766117522 L 11.9727214431253 -3.59220294958091 L 11.7223494582559 -4.34010407105005 L 11.4178438099913 -5.0875163592154 L 11.0576916650895 -5.82901681440468 L 10.6410641902674 -6.55879060363597 L 10.4115235374724 -6.9173809152988 L 10.1679098855279 -7.27073522727805 L 9.91035023442622 -7.61806670628795 L 9.63902841748954 -7.95858735237611 L 9.35418593470328 -8.29151299892325 L 9.05612195271603 -8.61606847930955 L 8.74519330483955 -8.93149346024764 L 8.42181415771549 -9.23704644178231 L 8.08645417798213 -9.53201142395684 L 7.73963686560783 -9.81570190681272 L 7.38193722055784 -10.0874667237226 L 7.01397874279449 -10.3466943747235 L 6.63642976561071 -10.5928173598497 L 6.24999962229698 -10.8253168457992 L 5.85543414614155 -11.0437254992669 L 5.45351067043079 -11.2476309869444 L 5.04503369511607 -11.4366784755197 L 4.6308287201475 -11.6105729650109 L 4.21173691214093 -11.7690804554319 L 3.78860977104489 -11.9120282801265 L 3.36230346347431 -12.0393062724348 L 2.93367332271082 -12.1508659323596 L 2.50356784870317 -12.2467190932336 L 2.07282454140072 -12.3269370883859 L 1.64226423408722 -12.3916484178085 L 1.21268642671434 -12.4410359148239 L 0.784865785901942 -12.4753344127512 L 0.359547144938339 -12.4948272449065 L -0.0625568295528685 -12.4998427446034 L -0.480769137612592 -12.4907502451529 L -1.30300342125626 -12.4319010820426 L -2.10253437293862 -12.3219044220233 L -2.87542165956445 -12.1647824315186 L -3.61842078132983 -11.9648239436026 L -4.32897523838926 -11.7264637913406 L -5.00518636419081 -11.4541734744625 L -5.64576999214541 -11.1523656593681 L -6.24999962229698 -10.8253168457992 L -6.83534708692298 -10.4655632008733 L -7.41701205177152 -10.0617053919461 L -7.99092801708835 -9.61223441910877 L -8.55263098314324 -9.11605628242738 L -9.09729978356088 -8.5725794819377 L -9.61981508531732 -7.98180051763994 L -10.114840388735 -7.34438455616058 L -10.5769223608103 -6.66173343074821 L -11.0006113352057 -5.93603664127054 L -11.1963893233743 -5.55795349745238 L -11.3805963122423 -5.17030068754587 L -11.5526144685134 -4.77358171152058 L -11.7118529588903 -4.36834973600976 L -11.8577537834064 -3.95520609431039 L -11.9897952754269 -3.53479728638341 L -12.1074969349805 -3.10781281218714 L -12.2104239287604 -2.67498183834419 L -12.2981910901231 -2.23706903147502 L -12.3704655857553 -1.7948712248648 L -12.4269710823406 -1.34921191846377 L -12.4674894132253 -0.900936612220826 L -12.4918639117523 -0.450908139417166 L -12.499999244594 0 L -12.4918639117523 0.450908139417166 L -12.4674894132253 0.900936612220826 L -12.4269710823406 1.34921191846377 L -12.3704655857553 1.7948712248648 L -12.2981910901231 2.23706903147502 L -12.2104239287604 2.67498183834419 L -12.1074969349805 3.10781281218714 L -11.9897952754269 3.53479728638341 L -11.8577537834064 3.95520609431039 L -11.7118529588903 4.36834973600976 L -11.5526144685134 4.77358171152058 L -11.3805963122423 5.17030068754587 L -11.1963893233743 5.55795349745238 L -11.0006113352057 5.93603664127054 L -10.7939028476976 6.30409711902773 L -10.5769223608103 6.66173343074821 L -10.114840388735 7.34438455616058 L -9.61981508531732 7.98180051763994 L -9.09729978356088 8.5725794819377 L -8.55263098314324 9.11605628242738 L -7.99092801708835 9.61223441910877 L -7.41701205177152 10.0617053919461 L -6.83534708692298 10.4655632008733 L -6.24999962229698 10.8253168457992 L -5.64576999214541 11.1523656593681 L -5.00518636419081 11.4541734744625 L -4.32897523838926 11.7264637913406 L -3.61842078132983 11.9648239436026 L -2.87542165956445 12.1647824315186 L -2.10253437293862 12.3219044220233 L -1.30300342125626 12.4319010820426 L -0.480769137612592 12.4907502451529 L 0.359547144938339 12.4948272449065 L 0.784865785901942 12.4753344127512 L 1.21268642671434 12.4410359148239 L 1.64226423408722 12.3916484178085 L 2.07282454140072 12.3269370883859 L 2.50356784870317 12.2467190932336 L 2.93367332271082 12.1508659323596 L 3.36230346347431 12.0393062724348 L 3.78860977104489 11.9120282801265 L 4.21173691214093 11.7690804554319 L 4.6308287201475 11.6105729650109 L 5.04503369511607 11.4366784755197 L 5.45351067043079 11.2476309869444 L 5.85543414614155 11.0437254992669 L 6.24999962229698 10.8253168457992 L 6.63642976561071 10.5928173598497 L 7.01397874279449 10.3466943747235 L 7.38193722055784 10.0874667237226 L 7.73963686560783 9.81570190681272 L 8.08645417798213 9.53201142395684 L 8.42181415771549 9.23704644178231 L 8.74519330483955 8.93149346024764 L 9.05612195271603 8.61606847930955 L 9.35418593470328 8.29151299892325 L 9.63902841748954 7.95858735237611 L 9.91035023442622 7.61806670628795 L 10.1679098855279 7.27073522727805 L 10.4115235374724 6.9173809152988 L 10.6410641902674 6.55879060363597 L 10.8564598439171 6.19574545890903 L 11.0576916650895 5.82901681440468 L 11.4178438099913 5.0875163592154 L 11.7223494582559 4.34010407105005 L 11.9727214431253 3.59220294958091 L 12.1710519311397 2.84876766117522 L 12.3199032554776 2.11422937223186 L 12.4221984159623 1.39246808251636 L 12.4811170790684 0.686802625161476 L 12.499999244594 0 " />
  </g>
  <path id="LineString2d_1588" style=" stroke-width: 0.00166666656594586;stroke: #1b4074; fill: none; " d="M -1.24996609112811 12.5000172445929 L -1.24999825779283 0.721700456385847 L -11.4503209746953 -5.16745868771762 L -10.2003228835691 -7.3325230568774 L 6.33333295059427E-06 -1.44336024610748 L 10.2003405502347 -7.33252589021056 L 11.450337641361 -5.16746085438416 L 1.25000159112596 0.721705789718858 L 1.25003375779068 12.5000169112596 L -1.24996609112811 12.5000172445929 " xmlns="http://www.w3.org/2000/svg" />
  <g id="ComplexString2d_1589" style=" fill-rule: evenodd; stroke-width: 0;stroke: #1b4074; fill: #1b4074; " xmlns="http://www.w3.org/2000/svg">
    <path d="M -1.24996609112811 12.5000172445929 L -1.24999825779283 0.721700456385847 L -11.4503209746953 -5.16745868771762 L -10.2003228835691 -7.3325230568774 L 6.33333295059427E-06 -1.44336024610748 L 10.2003405502347 -7.33252589021056 L 11.450337641361 -5.16746085438416 L 1.25000159112596 0.721705789718858 L 1.25003375779068 12.5000169112596 L -1.24996609112811 12.5000172445929 " />
  </g>
</svg>