<?xml version="1.0" encoding="UTF-8"?>
<svg viewBox="-15.0000064859965 -51.4285719987689 30 53.5714270033855" xmlns="http://www.w3.org/2000/svg" xmlns:xlink="http://www.w3.org/1999/xlink" xmlns:gmsvgsym="http://www.intergraph.com/GeoMedia/svgsym">
  <!-- Creator: SVG Document for Symbols-->
  <path id="LineString2d_1661" style=" stroke-width: 0.00214285714798892;stroke: #3ded19; fill: none; " d="M -2.14285457656034 2.14285457656034 L -2.14285457656034 -10.8302852402224 L -3.94070765229447 -11.1377683123873 L -7.65024580403532 -12.5940518873035 L -10.801608025868 -15.0430496074541 L -13.2008642458995 -18.2231301864984 L -14.6591794636777 -21.9167338382011 L -15.0000053930653 -25.8446426333221 L -14.1147141766595 -29.626665713808 L -12.5458534586166 -33.0879877220972 L -10.7623718829169 -36.6070027305247 L -10.0854799527244 -38.1057120912567 L -8.9102211641956 -41.5410770280552 L -8.21685323396368 -43.9285580337728 L -7.49356351794581 -45.9364496814385 L -6.55033522997265 -47.7103897571154 L -5.27378722691554 -49.2023349749741 L -3.69224722312802 -50.3236996205167 L -1.917105861734 -51.0832550509071 L -1.05000000251457E-05 -51.4285672660198 L 1.91708550459109 -51.08325740805 L 3.6922281516994 -50.3237030490881 L 5.27377029834407 -49.2023388321169 L 6.5503200156869 -47.7103931856868 L 7.49355001794577 -45.93645161001 L 8.21684037682079 -43.9285580337728 L 8.91020894990986 -41.5410746709124 L 10.0854698812958 -38.105705876971 L 10.7623555972026 -36.6070098019533 L 12.5458382443309 -33.087992436383 L 14.1147004623737 -29.6266682852365 L 14.9999927502081 -25.8446426333221 L 14.6591659636776 -21.9167310524868 L 13.2008488173281 -18.2231254722127 L 10.8015898115823 -15.0430442503112 L 7.65022501832098 -12.5940471730177 L 3.94068472372298 -11.1377659552445 L 2.14285457656034 -10.8302865259367 L 2.14285457656034 -2.1428597194175 L 8.57143116338426 -2.1428597194175 L 8.57143116338426 2.14285457656034 L -2.14285457656034 2.14285457656034 " xmlns="http://www.w3.org/2000/svg" />
  <g id="ComplexString2d_1662" style=" fill-rule: evenodd; stroke-width: 0;stroke: #3ded19; fill: #3ded19; " xmlns="http://www.w3.org/2000/svg">
    <path d="M -2.14285457656034 2.14285457656034 L -2.14285457656034 -10.8302852402224 L -3.94070765229447 -11.1377683123873 L -7.65024580403532 -12.5940518873035 L -10.801608025868 -15.0430496074541 L -13.2008642458995 -18.2231301864984 L -14.6591794636777 -21.9167338382011 L -15.0000053930653 -25.8446426333221 L -14.1147141766595 -29.626665713808 L -12.5458534586166 -33.0879877220972 L -10.7623718829169 -36.6070027305247 L -10.0854799527244 -38.1057120912567 L -8.9102211641956 -41.5410770280552 L -8.21685323396368 -43.9285580337728 L -7.49356351794581 -45.9364496814385 L -6.55033522997265 -47.7103897571154 L -5.27378722691554 -49.2023349749741 L -3.69224722312802 -50.3236996205167 L -1.917105861734 -51.0832550509071 L -1.05000000251457E-05 -51.4285672660198 L 1.91708550459109 -51.08325740805 L 3.6922281516994 -50.3237030490881 L 5.27377029834407 -49.2023388321169 L 6.5503200156869 -47.7103931856868 L 7.49355001794577 -45.93645161001 L 8.21684037682079 -43.9285580337728 L 8.91020894990986 -41.5410746709124 L 10.0854698812958 -38.105705876971 L 10.7623555972026 -36.6070098019533 L 12.5458382443309 -33.087992436383 L 14.1147004623737 -29.6266682852365 L 14.9999927502081 -25.8446426333221 L 14.6591659636776 -21.9167310524868 L 13.2008488173281 -18.2231254722127 L 10.8015898115823 -15.0430442503112 L 7.65022501832098 -12.5940471730177 L 3.94068472372298 -11.1377659552445 L 2.14285457656034 -10.8302865259367 L 2.14285457656034 -2.1428597194175 L 8.57143116338426 -2.1428597194175 L 8.57143116338426 2.14285457656034 L -2.14285457656034 2.14285457656034 " />
  </g>
  <path id="LineString2d_1663" style=" stroke-width: 0.00214285714798892;stroke: #ffffff; fill: none; " d="M -1.17857143139391E-05 -14.7275511781271 L -2.85935336399052 -15.1734379649092 L -5.61069558486523 -16.1266566814777 L -7.96317923335617 -17.881478399966 L -9.50663423705248 -20.3559947630349 L -10.4795196679538 -23.0366702694546 L -10.7186569542408 -25.8446426333221 L -10.1891783815442 -28.5748215684318 L -9.19961959346009 -31.1560387174705 L -7.91871259039254 -33.7633434380003 L -6.36040608666066 -36.8611687311334 L -5.79054558529594 -38.1380255199055 L -4.66137729687749 -41.2373193130421 L -4.06175486687007 -42.8402195311664 L -3.56401650853521 -43.9285580337728 L -3.08719715025045 -44.7557673214681 L -2.59481464907128 -45.4266688945034 L -2.0619955763667 -45.9905431101395 L -1.46728393208532 -46.4699501827162 L -0.789037716175325 -46.8732481122534 L -1.05000000251457E-05 -47.2006831130376 L 0.791234787609158 -46.8815257551304 L 1.45447500348322 -46.4478009683774 L 1.98985329047964 -45.9184220385382 L 2.42370622009008 -45.327891537124 L 2.79118822097013 -44.6764576069925 L 3.1252131503415 -43.9285580337728 L 3.45745136542286 -43.0021366029828 L 3.83134008060398 -41.7165294570468 L 4.37407072476087 -39.5544793804405 L 5.64230187065521 -35.6174162995833 L 6.65811301594504 -32.5027672206957 L 7.26841244597804 -30.0410692148004 L 7.77175866146918 -27.9270821383092 L 8.08456973364688 -25.8446426333221 L 8.11159137656873 -23.6711484138312 L 7.75206966142203 -21.3689796940322 L 6.89767458794733 -18.9469594739462 L 5.2813842983623 -16.6969995399865 L 2.84421279252569 -15.2298557507586 L -1.17857143139391E-05 -14.7275511781271 " xmlns="http://www.w3.org/2000/svg" />
  <g id="ComplexString2d_1664" style=" fill-rule: evenodd; stroke-width: 0;stroke: #ffffff; fill: #ffffff; " xmlns="http://www.w3.org/2000/svg">
    <path d="M -1.17857143139391E-05 -14.7275511781271 L -2.85935336399052 -15.1734379649092 L -5.61069558486523 -16.1266566814777 L -7.96317923335617 -17.881478399966 L -9.50663423705248 -20.3559947630349 L -10.4795196679538 -23.0366702694546 L -10.7186569542408 -25.8446426333221 L -10.1891783815442 -28.5748215684318 L -9.19961959346009 -31.1560387174705 L -7.91871259039254 -33.7633434380003 L -6.36040608666066 -36.8611687311334 L -5.79054558529594 -38.1380255199055 L -4.66137729687749 -41.2373193130421 L -4.06175486687007 -42.8402195311664 L -3.56401650853521 -43.9285580337728 L -3.08719715025045 -44.7557673214681 L -2.59481464907128 -45.4266688945034 L -2.0619955763667 -45.9905431101395 L -1.46728393208532 -46.4699501827162 L -0.789037716175325 -46.8732481122534 L -1.05000000251457E-05 -47.2006831130376 L 0.791234787609158 -46.8815257551304 L 1.45447500348322 -46.4478009683774 L 1.98985329047964 -45.9184220385382 L 2.42370622009008 -45.327891537124 L 2.79118822097013 -44.6764576069925 L 3.1252131503415 -43.9285580337728 L 3.45745136542286 -43.0021366029828 L 3.83134008060398 -41.7165294570468 L 4.37407072476087 -39.5544793804405 L 5.64230187065521 -35.6174162995833 L 6.65811301594504 -32.5027672206957 L 7.26841244597804 -30.0410692148004 L 7.77175866146918 -27.9270821383092 L 8.08456973364688 -25.8446426333221 L 8.11159137656873 -23.6711484138312 L 7.75206966142203 -21.3689796940322 L 6.89767458794733 -18.9469594739462 L 5.2813842983623 -16.6969995399865 L 2.84421279252569 -15.2298557507586 L -1.17857143139391E-05 -14.7275511781271 " />
  </g>
</svg>