<?xml version="1.0" encoding="UTF-8"?>
<svg viewBox="-15.0008766073171 -36.9643103575071 30 38.5714259342653" xmlns="http://www.w3.org/2000/svg" xmlns:xlink="http://www.w3.org/1999/xlink" xmlns:gmsvgsym="http://www.intergraph.com/GeoMedia/svgsym">
  <!-- Creator: SVG Document for Symbols-->
  <path id="LineString2d_1673" style=" stroke-width: 0.00214285700543956;stroke: #1b4074; fill: none; " d="M -0.00081749994757519 1.6071155397957 L -1.95868508867874 1.47879954802437 L -3.88310117955509 1.0960192868571 L -5.74104648897981 0.465342398729853 L -7.50082194755713 -0.402471831333058 L -9.1322302000807 -1.49253247571513 L -10.6074366054783 -2.78624146418046 L -11.9011297368018 -4.2614022267239 L -12.9912321668955 -5.89284112210264 L -13.8590451112442 -7.65257500925405 L -14.4897534993694 -9.51056189010468 L -14.8725425462504 -11.4349436952689 L -15.0008758951635 -13.3928562839972 L -11.7865903870042 -13.3928562839972 L -11.6857556791848 -11.854492168364 L -11.3849921984722 -10.342480051041 L -10.8894325159659 -8.88262871608719 L -10.2075792739776 -7.4999838761823 L -9.3510656146186 -6.21813517267068 L -8.33459367980313 -5.05908438985568 L -7.17549703984821 -4.04259659789837 L -5.89367919347747 -3.18612472425095 L -4.51099256786097 -2.50427019654849 L -3.0511828043331 -2.00874201404011 L -1.60801961116629 -1.7172620327322 L -1.60801961116629 -28.7056265163024 L -2.1437424339542 -28.9670559281088 L -3.03134316274824 -29.6481360272895 L -3.71242326192894 -30.5357371846549 L -4.14056759161566 -31.5693704040842 L -4.28659943939376 -32.6785939758088 L -4.14056694875856 -33.7878186189619 L -3.71242197621473 -34.8214514098197 L -3.03134187703404 -35.7090517100424 L -2.14374114824 -36.390131166366 L -1.11010835738217 -36.8182754960527 L -0.000884142800444361 -36.9643071295451 L 1.10833985749558 -36.8182748531956 L 2.14197221978201 -36.3901300949375 L 3.02957230571895 -35.7090504243282 L 3.71065176204254 -34.8214503383912 L 4.13879630601497 -33.7878179761048 L 4.28482858236446 -32.6785939758088 L 4.13879694887207 -31.5693710469413 L 3.71065304775674 -30.5357382560834 L 3.02957359143315 -29.6481373130037 L 2.14197350549621 -28.9670569995373 L 1.60626589699304 -28.7056333734448 L 1.60626589699304 -1.7172620327322 L 3.04953987586703 -2.00877179975249 L 4.50937835367877 -2.50432805368763 L 5.89201440786994 -3.18617615281908 L 7.17384618281122 -4.04267524075047 L 8.33289932276893 -5.05914374699473 L 9.3493723290129 -6.21821402980848 L 10.2058553455167 -7.50003530475044 L 10.8877028017911 -8.88268657322634 L 11.3832464128699 -10.3425098367533 L 11.6840053935828 -11.8545168112196 L 11.7848366728309 -13.3928562839972 L 14.9991221809903 -13.3928562839972 L 14.8707922606484 -11.4349683381245 L 14.4880079280528 -9.51059146153135 L 13.8573153970694 -7.6526326521075 L 12.9895082384346 -5.89289255067077 L 11.8994366654818 -4.2614810838617 L 10.6057424627298 -2.78630060703381 L 9.130579128758 -1.49261111856723 L 7.49915716194961 -0.402523259901189 L 5.73943206051191 0.465284541590706 L 3.88145825108902 1.09598971543043 L 1.9570918744952 1.47877833374002 L -0.00081749994757519 1.6071155397957 " xmlns="http://www.w3.org/2000/svg" />
  <g id="ComplexString2d_1674" style=" fill-rule: evenodd; stroke-width: 0;stroke: #1b4074; fill: #1b4074; " xmlns="http://www.w3.org/2000/svg">
    <path d="M -0.00081749994757519 1.6071155397957 L -1.95868508867874 1.47879954802437 L -3.88310117955509 1.0960192868571 L -5.74104648897981 0.465342398729853 L -7.50082194755713 -0.402471831333058 L -9.1322302000807 -1.49253247571513 L -10.6074366054783 -2.78624146418046 L -11.9011297368018 -4.2614022267239 L -12.9912321668955 -5.89284112210264 L -13.8590451112442 -7.65257500925405 L -14.4897534993694 -9.51056189010468 L -14.8725425462504 -11.4349436952689 L -15.0008758951635 -13.3928562839972 L -11.7865903870042 -13.3928562839972 L -11.6857556791848 -11.854492168364 L -11.3849921984722 -10.342480051041 L -10.8894325159659 -8.88262871608719 L -10.2075792739776 -7.4999838761823 L -9.3510656146186 -6.21813517267068 L -8.33459367980313 -5.05908438985568 L -7.17549703984821 -4.04259659789837 L -5.89367919347747 -3.18612472425095 L -4.51099256786097 -2.50427019654849 L -3.0511828043331 -2.00874201404011 L -1.60801961116629 -1.7172620327322 L -1.60801961116629 -28.7056265163024 L -2.1437424339542 -28.9670559281088 L -3.03134316274824 -29.6481360272895 L -3.71242326192894 -30.5357371846549 L -4.14056759161566 -31.5693704040842 L -4.28659943939376 -32.6785939758088 L -4.14056694875856 -33.7878186189619 L -3.71242197621473 -34.8214514098197 L -3.03134187703404 -35.7090517100424 L -2.14374114824 -36.390131166366 L -1.11010835738217 -36.8182754960527 L -0.000884142800444361 -36.9643071295451 L 1.10833985749558 -36.8182748531956 L 2.14197221978201 -36.3901300949375 L 3.02957230571895 -35.7090504243282 L 3.71065176204254 -34.8214503383912 L 4.13879630601497 -33.7878179761048 L 4.28482858236446 -32.6785939758088 L 4.13879694887207 -31.5693710469413 L 3.71065304775674 -30.5357382560834 L 3.02957359143315 -29.6481373130037 L 2.14197350549621 -28.9670569995373 L 1.60626589699304 -28.7056333734448 L 1.60626589699304 -1.7172620327322 L 3.04953987586703 -2.00877179975249 L 4.50937835367877 -2.50432805368763 L 5.89201440786994 -3.18617615281908 L 7.17384618281122 -4.04267524075047 L 8.33289932276893 -5.05914374699473 L 9.3493723290129 -6.21821402980848 L 10.2058553455167 -7.50003530475044 L 10.8877028017911 -8.88268657322634 L 11.3832464128699 -10.3425098367533 L 11.6840053935828 -11.8545168112196 L 11.7848366728309 -13.3928562839972 L 14.9991221809903 -13.3928562839972 L 14.8707922606484 -11.4349683381245 L 14.4880079280528 -9.51059146153135 L 13.8573153970694 -7.6526326521075 L 12.9895082384346 -5.89289255067077 L 11.8994366654818 -4.2614810838617 L 10.6057424627298 -2.78630060703381 L 9.130579128758 -1.49261111856723 L 7.49915716194961 -0.402523259901189 L 5.73943206051191 0.465284541590706 L 3.88145825108902 1.09598971543043 L 1.9570918744952 1.47877833374002 L -0.00081749994757519 1.6071155397957 " />
  </g>
</svg>