<?xml version="1.0" encoding="UTF-8"?>
<svg viewBox="-14.9999950694744 -39.3871521021132 30 42.4008232991659" xmlns="http://www.w3.org/2000/svg" xmlns:xlink="http://www.w3.org/1999/xlink" xmlns:gmsvgsym="http://www.intergraph.com/GeoMedia/svgsym">
  <!-- Creator: SVG Document for Symbols-->
  <path id="LineString2d_1669" style=" stroke-width: 0.00176470385290993;stroke: #1b4074; fill: none; " d="M 0.000560822884454776 3.01367088716231 L -0.129736791976691 2.96574664815845 L -14.9999942203095 -9.51188082586194 L -12.731334711664 -12.2155640106925 L -1.76469961762068 -3.0134645932819 L -1.76469961762068 -29.1017000030795 L -2.64705101466449 -29.5082005944196 L -3.74349610667295 -30.3495312739321 L -4.58482890383011 -31.4459751306479 L -5.11371400148453 -32.7228117799085 L -5.29410873520363 -34.093025968842 L -5.11371911912571 -35.4632428048313 L -4.58483755087899 -36.74008315997 L -3.74350616548491 -37.8365319578565 L -2.64705966171337 -38.6778679314806 L -1.37021948304505 -39.2067542644277 L 0 -39.3871482922653 L 1.37021983598582 -39.2067558526612 L 2.64706124994684 -38.677870402066 L 3.74350898901108 -37.8365349578531 L 4.58484196263862 -36.7400856305553 L 5.11372441323727 -35.4632442165943 L 5.29411438225596 -34.093025968842 L 5.11371947206648 -32.7228103681454 L 4.58483331558974 -31.4459726600625 L 3.74349893019911 -30.3495284504059 L 2.64705242642758 -29.5081979473638 L 1.76470808819918 -29.1017008854314 L 1.76470808819918 -3.01346441681152 L 12.7313433587129 -12.2155640106925 L 15.0000028673583 -9.51188082586194 L 0.129745615495956 2.96574664815845 L 0.000560822884454776 3.01367088716231 " xmlns="http://www.w3.org/2000/svg" />
  <g id="ComplexString2d_1670" style=" fill-rule: evenodd; stroke-width: 0;stroke: #1b4074; fill: #1b4074; " xmlns="http://www.w3.org/2000/svg">
    <path d="M 0.000560822884454776 3.01367088716231 L -0.129736791976691 2.96574664815845 L -14.9999942203095 -9.51188082586194 L -12.731334711664 -12.2155640106925 L -1.76469961762068 -3.0134645932819 L -1.76469961762068 -29.1017000030795 L -2.64705101466449 -29.5082005944196 L -3.74349610667295 -30.3495312739321 L -4.58482890383011 -31.4459751306479 L -5.11371400148453 -32.7228117799085 L -5.29410873520363 -34.093025968842 L -5.11371911912571 -35.4632428048313 L -4.58483755087899 -36.74008315997 L -3.74350616548491 -37.8365319578565 L -2.64705966171337 -38.6778679314806 L -1.37021948304505 -39.2067542644277 L 0 -39.3871482922653 L 1.37021983598582 -39.2067558526612 L 2.64706124994684 -38.677870402066 L 3.74350898901108 -37.8365349578531 L 4.58484196263862 -36.7400856305553 L 5.11372441323727 -35.4632442165943 L 5.29411438225596 -34.093025968842 L 5.11371947206648 -32.7228103681454 L 4.58483331558974 -31.4459726600625 L 3.74349893019911 -30.3495284504059 L 2.64705242642758 -29.5081979473638 L 1.76470808819918 -29.1017008854314 L 1.76470808819918 -3.01346441681152 L 12.7313433587129 -12.2155640106925 L 15.0000028673583 -9.51188082586194 L 0.129745615495956 2.96574664815845 L 0.000560822884454776 3.01367088716231 " />
  </g>
  <path id="LineString2d_1671" style=" stroke-width: 0.00176470385290993;stroke: #ffffff; fill: none; " d="M 0 -30.5636290277156 L -0.913475478897582 -30.6838907717653 L -1.76469908820953 -31.0364789545174 L -2.49566201229414 -31.5973653683109 L -3.05655054373224 -32.3283270571028 L -3.40914102059943 -33.1795508428852 L -3.5294048822937 -34.093025968842 L -3.4091461382406 -35.006503918325 L -3.05655919078112 -35.857731233515 L -2.4956720711061 -36.5886980399481 L -1.76470773525841 -37.1495895713827 L -0.91348042006837 -37.5021812835426 L 0 -37.6224444393553 L 0.913480773009141 -37.5021826953057 L 1.76470932349187 -37.1495920419681 L 2.49567489463226 -36.5887008634742 L 3.05656360254075 -35.8577337041004 L 3.40915143235216 -35.006505330088 L 3.52941052934603 -34.093025968842 L 3.40914649118137 -33.1795494311221 L 3.05655495549187 -32.3283245865174 L 2.4956648358203 -31.5973625447848 L 1.76470049997261 -31.0364763074617 L 0.913475831838352 -30.6838893600022 L 0 -30.5636290277156 " xmlns="http://www.w3.org/2000/svg" />
  <g id="ComplexString2d_1672" style=" fill-rule: evenodd; stroke-width: 0;stroke: #ffffff; fill: #ffffff; " xmlns="http://www.w3.org/2000/svg">
    <path d="M 0 -30.5636290277156 L -0.913475478897582 -30.6838907717653 L -1.76469908820953 -31.0364789545174 L -2.49566201229414 -31.5973653683109 L -3.05655054373224 -32.3283270571028 L -3.40914102059943 -33.1795508428852 L -3.5294048822937 -34.093025968842 L -3.4091461382406 -35.006503918325 L -3.05655919078112 -35.857731233515 L -2.4956720711061 -36.5886980399481 L -1.76470773525841 -37.1495895713827 L -0.91348042006837 -37.5021812835426 L 0 -37.6224444393553 L 0.913480773009141 -37.5021826953057 L 1.76470932349187 -37.1495920419681 L 2.49567489463226 -36.5887008634742 L 3.05656360254075 -35.8577337041004 L 3.40915143235216 -35.006505330088 L 3.52941052934603 -34.093025968842 L 3.40914649118137 -33.1795494311221 L 3.05655495549187 -32.3283245865174 L 2.4956648358203 -31.5973625447848 L 1.76470049997261 -31.0364763074617 L 0.913475831838352 -30.6838893600022 L 0 -30.5636290277156 " />
  </g>
</svg>