<?xml version="1.0" encoding="UTF-8"?>
<svg viewBox="-15.0000100841702 -25.5226601387832 30 28.6163164370341" xmlns="http://www.w3.org/2000/svg" xmlns:xlink="http://www.w3.org/1999/xlink" xmlns:gmsvgsym="http://www.intergraph.com/GeoMedia/svgsym">
  <!-- Creator: SVG Document for Symbols-->
  <path id="LineString2d_1718" style=" stroke-width: 0.000773413947790313;stroke: #ffffff; fill: none; " d="M 0 3.09365579116125 L -1.86758949719326 2.97124748830309 L -3.70322385030566 2.60611713938199 L -5.47549510562443 2.00451215024403 L -7.15407909440179 1.17672611914453 L -8.71025485766239 0.136922730392164 L -10.1173956867187 -1.09710671092368 L -11.3689978663422 -2.52719682002854 L -15.0000082883669 -1.39106232649566 L -12.1383415685495 -14.1670022545096 L -3.15057232901728 -5.89501973483501 L -3.16747706969831 -5.0934331785583 L -4.72142037359861 -4.60720801568657 L -3.09366460808026 -3.70601455985348 L -3.09366460808026 -12.3746301253705 L -6.57402714111248 -12.3746301253705 L -6.57403201362036 -18.9492042248269 L -6.34924907205224 -20.6530311300564 L -5.69065329731927 -22.2402019986645 L -4.64349659811689 -23.6022238688829 L -3.27962557249067 -24.6461777062447 L -1.69245485856541 -25.3010759435761 L 0.00952443808424815 -25.5226578794971 L 1.71022590020936 -25.2963073051982 L 3.29390573293988 -24.6379182640135 L 4.65300804284682 -23.5926865147858 L 5.69539579430572 -22.2319422470677 L 6.35050030113697 -20.6482622596544 L 6.57400502147358 -18.9492042248269 L 6.57400997132284 -12.3746301253705 L 3.09364697424225 -12.3746301253705 L 3.09364697424225 -3.70600736710376 L 4.72141434096982 -4.60720376190986 L 3.1674594358603 -5.09343263716854 L 3.15055469517927 -5.8950213590043 L 12.1383221558594 -14.1670022545096 L 14.9999888756768 -1.39106232649566 L 11.3689939992725 -2.52719194752067 L 10.1173956093773 -1.09710678826507 L 8.7102546256382 0.136922730392164 L 7.15407909440179 1.17672604180313 L 5.47549495094164 2.00451215024403 L 3.70322385030566 2.60611706204059 L 1.86758926516907 2.97124748830309 L 0 3.09365579116125 " xmlns="http://www.w3.org/2000/svg" />
  <g id="ComplexString2d_1719" style=" fill-rule: evenodd; stroke-width: 0;stroke: #ffffff; fill: #ffffff; " xmlns="http://www.w3.org/2000/svg">
    <path d="M 0 3.09365579116125 L -1.86758949719326 2.97124748830309 L -3.70322385030566 2.60611713938199 L -5.47549510562443 2.00451215024403 L -7.15407909440179 1.17672611914453 L -8.71025485766239 0.136922730392164 L -10.1173956867187 -1.09710671092368 L -11.3689978663422 -2.52719682002854 L -15.0000082883669 -1.39106232649566 L -12.1383415685495 -14.1670022545096 L -3.15057232901728 -5.89501973483501 L -3.16747706969831 -5.0934331785583 L -4.72142037359861 -4.60720801568657 L -3.09366460808026 -3.70601455985348 L -3.09366460808026 -12.3746301253705 L -6.57402714111248 -12.3746301253705 L -6.57403201362036 -18.9492042248269 L -6.34924907205224 -20.6530311300564 L -5.69065329731927 -22.2402019986645 L -4.64349659811689 -23.6022238688829 L -3.27962557249067 -24.6461777062447 L -1.69245485856541 -25.3010759435761 L 0.00952443808424815 -25.5226578794971 L 1.71022590020936 -25.2963073051982 L 3.29390573293988 -24.6379182640135 L 4.65300804284682 -23.5926865147858 L 5.69539579430572 -22.2319422470677 L 6.35050030113697 -20.6482622596544 L 6.57400502147358 -18.9492042248269 L 6.57400997132284 -12.3746301253705 L 3.09364697424225 -12.3746301253705 L 3.09364697424225 -3.70600736710376 L 4.72141434096982 -4.60720376190986 L 3.1674594358603 -5.09343263716854 L 3.15055469517927 -5.8950213590043 L 12.1383221558594 -14.1670022545096 L 14.9999888756768 -1.39106232649566 L 11.3689939992725 -2.52719194752067 L 10.1173956093773 -1.09710678826507 L 8.7102546256382 0.136922730392164 L 7.15407909440179 1.17672604180313 L 5.47549495094164 2.00451215024403 L 3.70322385030566 2.60611706204059 L 1.86758926516907 2.97124748830309 L 0 3.09365579116125 " />
  </g>
</svg>