<?xml version="1.0" encoding="UTF-8"?>
<svg viewBox="-15 -81.8181633456694 30 81.8181633456694" xmlns="http://www.w3.org/2000/svg" xmlns:xlink="http://www.w3.org/1999/xlink" xmlns:gmsvgsym="http://www.intergraph.com/GeoMedia/svgsym">
  <!-- Creator: SVG Document for Symbols-->
  <path id="LineString2d_1644" style=" stroke-width: 0.00272727251114433;stroke: #806659; fill: none; " d="M -14.9999988112938 0 L -14.9999988112938 -16.363635066866 L -12.2727216637862 -16.363635066866 L -12.2727216637862 -69.5454364887269 L -11.8545372423807 -72.7218569642776 L -10.6284828849964 -75.6818086388009 L -8.67811294864849 -78.223575073737 L -6.13634269553091 -80.1739384646309 L -3.17639102100754 -81.3999851856521 L 2.56363616047567E-05 -81.8181559706951 L 3.17643956645824 -81.3999745492893 L 6.13638360461858 -80.1739201919051 L 8.67814322137336 -78.2235538010114 L 10.6285027940858 -75.6817903660751 L 11.8545492423797 -72.7218463279148 L 12.2727309365128 -69.5454364887269 L 12.2727309365128 -16.363635066866 L 14.9999988112938 -16.363635066866 L 14.9999988112938 0 L -14.9999988112938 0 " xmlns="http://www.w3.org/2000/svg" />
  <g id="ComplexString2d_1645" style=" fill-rule: evenodd; stroke-width: 0;stroke: #806659; fill: #806659; " xmlns="http://www.w3.org/2000/svg">
    <path d="M -14.9999988112938 0 L -14.9999988112938 -16.363635066866 L -12.2727216637862 -16.363635066866 L -12.2727216637862 -69.5454364887269 L -11.8545372423807 -72.7218569642776 L -10.6284828849964 -75.6818086388009 L -8.67811294864849 -78.223575073737 L -6.13634269553091 -80.1739384646309 L -3.17639102100754 -81.3999851856521 L 2.56363616047567E-05 -81.8181559706951 L 3.17643956645824 -81.3999745492893 L 6.13638360461858 -80.1739201919051 L 8.67814322137336 -78.2235538010114 L 10.6285027940858 -75.6817903660751 L 11.8545492423797 -72.7218463279148 L 12.2727309365128 -69.5454364887269 L 12.2727309365128 -16.363635066866 L 14.9999988112938 -16.363635066866 L 14.9999988112938 0 L -14.9999988112938 0 " />
  </g>
</svg>