<?xml version="1.0" encoding="UTF-8"?>
<svg viewBox="-15.0000159074204 -27.8681176615512 30 29.6660647336007" xmlns="http://www.w3.org/2000/svg" xmlns:xlink="http://www.w3.org/1999/xlink" xmlns:gmsvgsym="http://www.intergraph.com/GeoMedia/svgsym">
  <!-- Creator: SVG Document for Symbols-->
  <path id="LineString2d_1665" style=" stroke-width: 0.000898971714206504;stroke: #1b4074; fill: none; " d="M -4.49485857103252E-06 1.79794693440269 L -1.93610432353446 1.67104970537439 L -3.83907713443902 1.29252642796131 L -5.67636289126104 0.668853474186952 L -7.41652482284626 -0.189297822318035 L -9.02978835673994 -1.26724437675117 L -10.4885500270743 -2.54654234604076 L -11.7678498842045 -4.00530239822608 L -12.4975872965022 -5.04574160531324 L -15.0000135945371 -4.26273832100543 L -13.0351056778965 -13.0350898559943 L -6.42048043489348 -6.94725385687372 L -8.89790659924787 -6.17207306483425 L -7.94587155135842 -5.08922073185952 L -6.84074899210765 -4.1200559577502 L -5.61857968638699 -3.30343014246219 L -4.30027524452081 -2.65331600334938 L -2.90839230517328 -2.18083696691753 L -1.79795826144629 -1.94271122625085 L -1.79795826144629 -16.1814873497274 L -5.84333547023413 -16.1814961596502 L -5.84333547023413 -19.7773830164762 L -5.39385141107431 -19.7773830164762 L -5.6436492206839 -20.5102821122927 L -5.84333627930868 -22.0254570445059 L -5.64332478179224 -23.5405464845091 L -5.05742599016864 -24.9517522814704 L -4.12599789108959 -26.1625210077059 L -2.91307918410247 -27.090225206356 L -1.50187365683261 -27.6718251152422 L 0.0110660721103678 -27.8681156789364 L 1.52252078967865 -27.6662825950355 L 2.92966880811643 -27.08062508742 L 4.13704463530811 -26.1514355178065 L 5.06292958490018 -24.9421518029457 L 5.64477023841151 -23.5350035148164 L 5.84329591547871 -22.0254570445059 L 5.64509350863994 -20.515825441574 L 5.39381104724434 -19.7773830164762 L 5.84329681445042 -19.7773830164762 L 5.84329681445042 -16.1814961596502 L 1.79792859537972 -16.1814873497274 L 1.79792859537972 -1.94271158583954 L 2.90838169730705 -2.18084263043933 L 4.30026274881398 -2.65332391430047 L 5.61856494325088 -3.30343994125387 L 6.84073146215922 -4.12006674541077 L 7.81397325278681 -4.95950720424495 L 8.89787495544353 -6.17207306483425 L 6.42044879108914 -6.94725385687372 L 13.0350740340921 -13.0350898559943 L 14.99998204063 -4.26273832100543 L 12.4975556526978 -5.04574160531324 L 11.76782651094 -4.00531318588665 L 10.4885297103136 -2.54655358318719 L 9.02977082679151 -1.26725516441174 L 7.41651016960732 -0.18930762110972 L 5.67635039555422 0.668845563235867 L 3.83906661646996 1.29252076443951 L 1.93609470453712 1.6710468286649 L -4.49485857103252E-06 1.79794693440269 " xmlns="http://www.w3.org/2000/svg" />
  <g id="ComplexString2d_1666" style=" fill-rule: evenodd; stroke-width: 0;stroke: #1b4074; fill: #1b4074; " xmlns="http://www.w3.org/2000/svg">
    <path d="M -4.49485857103252E-06 1.79794693440269 L -1.93610432353446 1.67104970537439 L -3.83907713443902 1.29252642796131 L -5.67636289126104 0.668853474186952 L -7.41652482284626 -0.189297822318035 L -9.02978835673994 -1.26724437675117 L -10.4885500270743 -2.54654234604076 L -11.7678498842045 -4.00530239822608 L -12.4975872965022 -5.04574160531324 L -15.0000135945371 -4.26273832100543 L -13.0351056778965 -13.0350898559943 L -6.42048043489348 -6.94725385687372 L -8.89790659924787 -6.17207306483425 L -7.94587155135842 -5.08922073185952 L -6.84074899210765 -4.1200559577502 L -5.61857968638699 -3.30343014246219 L -4.30027524452081 -2.65331600334938 L -2.90839230517328 -2.18083696691753 L -1.79795826144629 -1.94271122625085 L -1.79795826144629 -16.1814873497274 L -5.84333547023413 -16.1814961596502 L -5.84333547023413 -19.7773830164762 L -5.39385141107431 -19.7773830164762 L -5.6436492206839 -20.5102821122927 L -5.84333627930868 -22.0254570445059 L -5.64332478179224 -23.5405464845091 L -5.05742599016864 -24.9517522814704 L -4.12599789108959 -26.1625210077059 L -2.91307918410247 -27.090225206356 L -1.50187365683261 -27.6718251152422 L 0.0110660721103678 -27.8681156789364 L 1.52252078967865 -27.6662825950355 L 2.92966880811643 -27.08062508742 L 4.13704463530811 -26.1514355178065 L 5.06292958490018 -24.9421518029457 L 5.64477023841151 -23.5350035148164 L 5.84329591547871 -22.0254570445059 L 5.64509350863994 -20.515825441574 L 5.39381104724434 -19.7773830164762 L 5.84329681445042 -19.7773830164762 L 5.84329681445042 -16.1814961596502 L 1.79792859537972 -16.1814873497274 L 1.79792859537972 -1.94271158583954 L 2.90838169730705 -2.18084263043933 L 4.30026274881398 -2.65332391430047 L 5.61856494325088 -3.30343994125387 L 6.84073146215922 -4.12006674541077 L 7.81397325278681 -4.95950720424495 L 8.89787495544353 -6.17207306483425 L 6.42044879108914 -6.94725385687372 L 13.0350740340921 -13.0350898559943 L 14.99998204063 -4.26273832100543 L 12.4975556526978 -5.04574160531324 L 11.76782651094 -4.00531318588665 L 10.4885297103136 -2.54655358318719 L 9.02977082679151 -1.26725516441174 L 7.41651016960732 -0.18930762110972 L 5.67635039555422 0.668845563235867 L 3.83906661646996 1.29252076443951 L 1.93609470453712 1.6710468286649 L -4.49485857103252E-06 1.79794693440269 " />
  </g>
  <path id="LineString2d_1667" style=" stroke-width: 0.000898971714206504;stroke: #ffffff; fill: none; " d="M 0.0110660721103678 -19.777408097787 L -0.571509760468843 -19.8512557473996 L -1.11569132020884 -20.0738574152252 L -1.58396523665315 -20.4304271740971 L -1.94385552734587 -20.8967840333609 L -2.17028861261737 -21.4409663122783 L -2.24744942248266 -22.0254570445059 L -2.16996318485683 -22.609862014832 L -1.94329214177257 -23.1538062460394 L -1.58331519020661 -23.6198383068229 L -1.1151290134016 -23.9760841661862 L -0.571185501371529 -24.1984494943481 L 0.0110660721103678 -24.2722120113393 L 0.59183281401191 -24.192907873113 L 1.13171944649011 -23.9664855755021 L 1.59436337277986 -23.6087542552782 L 1.94879726475603 -23.1442066664865 L 2.17140963034499 -22.6043193148309 L 2.24740896875552 -22.0254570445059 L 2.17173191170453 -21.4465099112511 L 1.94935588577924 -20.9063863997262 L 1.59500883447066 -20.4415158103975 L 1.1322790563822 -20.0834607704593 L 0.592156264034681 -19.8568005150357 L 0.0110660721103678 -19.777408097787 " xmlns="http://www.w3.org/2000/svg" />
  <g id="ComplexString2d_1668" style=" fill-rule: evenodd; stroke-width: 0;stroke: #ffffff; fill: #ffffff; " xmlns="http://www.w3.org/2000/svg">
    <path d="M 0.0110660721103678 -19.777408097787 L -0.571509760468843 -19.8512557473996 L -1.11569132020884 -20.0738574152252 L -1.58396523665315 -20.4304271740971 L -1.94385552734587 -20.8967840333609 L -2.17028861261737 -21.4409663122783 L -2.24744942248266 -22.0254570445059 L -2.16996318485683 -22.609862014832 L -1.94329214177257 -23.1538062460394 L -1.58331519020661 -23.6198383068229 L -1.1151290134016 -23.9760841661862 L -0.571185501371529 -24.1984494943481 L 0.0110660721103678 -24.2722120113393 L 0.59183281401191 -24.192907873113 L 1.13171944649011 -23.9664855755021 L 1.59436337277986 -23.6087542552782 L 1.94879726475603 -23.1442066664865 L 2.17140963034499 -22.6043193148309 L 2.24740896875552 -22.0254570445059 L 2.17173191170453 -21.4465099112511 L 1.94935588577924 -20.9063863997262 L 1.59500883447066 -20.4415158103975 L 1.1322790563822 -20.0834607704593 L 0.592156264034681 -19.8568005150357 L 0.0110660721103678 -19.777408097787 " />
  </g>
</svg>