<?xml version="1.0" encoding="UTF-8"?>
<svg viewBox="-15 -15 30 30" xmlns="http://www.w3.org/2000/svg" xmlns:xlink="http://www.w3.org/1999/xlink" xmlns:gmsvgsym="http://www.intergraph.com/GeoMedia/svgsym">
  <!-- Creator: SVG Document for Symbols-->
  <polyline points="14.9999988112938,0 14.9773400858167,-0.824163207414741 14.9066377277833,-1.67096168576298 14.783883464784,-2.53707525348964 14.6052621153028,-3.41852100181945 14.3672655887088,-4.31064347657589 14.0668191579729,-5.20812476908948 13.7014123687485,-6.10501969801317 13.269229675725,-6.99481990022637 12.7692767153448,-7.87054846719107 12.2014915785219,-8.72488212676035 11.566833992453,-9.55030451589348 10.8673461387945,-10.3392820897329 10.1061769263877,-11.0844555761347 9.28756399126036,-11.7788420665611 8.41677424208609,-12.4160330160656 7.49999940564691,-12.9903799705503 6.54421284502657,-13.4971568394806 5.5569944687153,-13.9326872595115 4.54633163971647,-14.2944335035715 3.52040781192704,-14.5810387535861 2.48738953015436,-14.792324373206 1.45522379376867,-14.9292427259919 0.431456420353791,-14.9937923572402 -0.576923136098705,-14.9888999030825 -1.56360423972529,-14.9182809995879 -2.52304125460179,-14.7862851009573 -3.45050590837565,-14.5977386613536 -4.3421050195372,-14.3577883167326 -5.19477013378416,-14.0717563393998 -6.00622370584246,-13.7450078198391 -6.77492400856157,-13.3828385758127 -7.49999940564691,-12.9903799705503 -8.20241634998242,-12.5586756411252 -8.90041429466812,-12.0740461340761 -9.58911333099982,-11.5346810859102 -10.2631570957656,-10.9392673149131 -10.9167594076059,-10.2870951847777 -11.5437779033711,-9.57816033186781 -12.1378081290232,-8.81326130157474 -12.6923068123535,-7.9940800028561 -13.2007334084258,-7.12324389004914 -13.6567153722906,-6.2043605992316 -14.0542232498801,-5.24201958458523 -14.3877539507215,-4.24175666385315 -14.6525085661041,-3.20997820016404 -14.8445584599757,-2.15384546567766 -14.9609870871127,-1.081123823415 -14.9999988112938,0 -14.9609870871127,1.081123823415 -14.8445584599757,2.15384546567766 -14.6525085661041,3.20997820016404 -14.3877539507215,4.24175666385315 -14.0542232498801,5.24201958458523 -13.6567153722906,6.2043605992316 -13.2007334084258,7.12324389004914 -12.6923068123535,7.9940800028561 -12.1378081290232,8.81326130157474 -11.5437779033711,9.57816033186781 -10.9167594076059,10.2870951847777 -10.2631570957656,10.9392673149131 -9.58911333099982,11.5346810859102 -8.90041429466812,12.0740461340761 -8.20241634998242,12.5586756411252 -7.49999940564691,12.9903799705503 -6.77492400856157,13.3828385758127 -6.00622370584246,13.7450078198391 -5.19477013378416,14.0717563393998 -4.3421050195372,14.3577883167326 -3.45050590837565,14.5977386613536 -2.52304125460179,14.7862851009573 -1.56360423972529,14.9182809995879 -0.576923136098705,14.9888999030825 0.431456420353791,14.9937923572402 1.45522379376867,14.9292427259919 2.48738953015436,14.792324373206 3.52040781192704,14.5810387535861 4.54633163971647,14.2944335035715 5.5569944687153,13.9326872595115 6.54421284502657,13.4971568394806 7.49999940564691,12.9903799705503 8.41677424208609,12.4160330160656 9.28756399126036,11.7788420665611 10.1061769263877,11.0844555761347 10.8673461387945,10.3392820897329 11.566833992453,9.55030451589348 12.2014915785219,8.72488212676035 12.7692767153448,7.87054846719107 13.269229675725,6.99481990022637 13.7014123687485,6.10501969801317 14.0668191579729,5.20812476908948 14.3672655887088,4.31064347657589 14.6052621153028,3.41852100181945 14.783883464784,2.53707525348964 14.9066377277833,1.67096168576298 14.9773400858167,0.824163207414741 14.9999988112938,0" style=" stroke-width: 0.00272727251114433;stroke: #000000; fill: none; " xmlns="http://www.w3.org/2000/svg" />
  <g id="ComplexString2d_1689" style=" fill-rule: evenodd; stroke-width: 0;stroke: #000000; fill: #000000; " xmlns="http://www.w3.org/2000/svg">
    <path d="M 14.9999988112938 0 L 14.9773400858167 -0.824163207414741 L 14.9066377277833 -1.67096168576298 L 14.783883464784 -2.53707525348964 L 14.6052621153028 -3.41852100181945 L 14.3672655887088 -4.31064347657589 L 14.0668191579729 -5.20812476908948 L 13.7014123687485 -6.10501969801317 L 13.269229675725 -6.99481990022637 L 12.7692767153448 -7.87054846719107 L 12.2014915785219 -8.72488212676035 L 11.566833992453 -9.55030451589348 L 10.8673461387945 -10.3392820897329 L 10.1061769263877 -11.0844555761347 L 9.28756399126036 -11.7788420665611 L 8.41677424208609 -12.4160330160656 L 7.49999940564691 -12.9903799705503 L 6.54421284502657 -13.4971568394806 L 5.5569944687153 -13.9326872595115 L 4.54633163971647 -14.2944335035715 L 3.52040781192704 -14.5810387535861 L 2.48738953015436 -14.792324373206 L 1.45522379376867 -14.9292427259919 L 0.431456420353791 -14.9937923572402 L -0.576923136098705 -14.9888999030825 L -1.56360423972529 -14.9182809995879 L -2.52304125460179 -14.7862851009573 L -3.45050590837565 -14.5977386613536 L -4.3421050195372 -14.3577883167326 L -5.19477013378416 -14.0717563393998 L -6.00622370584246 -13.7450078198391 L -6.77492400856157 -13.3828385758127 L -7.49999940564691 -12.9903799705503 L -8.20241634998242 -12.5586756411252 L -8.90041429466812 -12.0740461340761 L -9.58911333099982 -11.5346810859102 L -10.2631570957656 -10.9392673149131 L -10.9167594076059 -10.2870951847777 L -11.5437779033711 -9.57816033186781 L -12.1378081290232 -8.81326130157474 L -12.6923068123535 -7.9940800028561 L -13.2007334084258 -7.12324389004914 L -13.6567153722906 -6.2043605992316 L -14.0542232498801 -5.24201958458523 L -14.3877539507215 -4.24175666385315 L -14.6525085661041 -3.20997820016404 L -14.8445584599757 -2.15384546567766 L -14.9609870871127 -1.081123823415 L -14.9999988112938 0 L -14.9609870871127 1.081123823415 L -14.8445584599757 2.15384546567766 L -14.6525085661041 3.20997820016404 L -14.3877539507215 4.24175666385315 L -14.0542232498801 5.24201958458523 L -13.6567153722906 6.2043605992316 L -13.2007334084258 7.12324389004914 L -12.6923068123535 7.9940800028561 L -12.1378081290232 8.81326130157474 L -11.5437779033711 9.57816033186781 L -10.9167594076059 10.2870951847777 L -10.2631570957656 10.9392673149131 L -9.58911333099982 11.5346810859102 L -8.90041429466812 12.0740461340761 L -8.20241634998242 12.5586756411252 L -7.49999940564691 12.9903799705503 L -6.77492400856157 13.3828385758127 L -6.00622370584246 13.7450078198391 L -5.19477013378416 14.0717563393998 L -4.3421050195372 14.3577883167326 L -3.45050590837565 14.5977386613536 L -2.52304125460179 14.7862851009573 L -1.56360423972529 14.9182809995879 L -0.576923136098705 14.9888999030825 L 0.431456420353791 14.9937923572402 L 1.45522379376867 14.9292427259919 L 2.48738953015436 14.792324373206 L 3.52040781192704 14.5810387535861 L 4.54633163971647 14.2944335035715 L 5.5569944687153 13.9326872595115 L 6.54421284502657 13.4971568394806 L 7.49999940564691 12.9903799705503 L 8.41677424208609 12.4160330160656 L 9.28756399126036 11.7788420665611 L 10.1061769263877 11.0844555761347 L 10.8673461387945 10.3392820897329 L 11.566833992453 9.55030451589348 L 12.2014915785219 8.72488212676035 L 12.7692767153448 7.87054846719107 L 13.269229675725 6.99481990022637 L 13.7014123687485 6.10501969801317 L 14.0668191579729 5.20812476908948 L 14.3672655887088 4.31064347657589 L 14.6052621153028 3.41852100181945 L 14.783883464784 2.53707525348964 L 14.9066377277833 1.67096168576298 L 14.9773400858167 0.824163207414741 L 14.9999988112938 0 " />
  </g>
  <polyline points="11.7272717979206,0 11.7095567993245,-0.644345676210211 11.6542804400686,-1.30638835101799 11.5583090840377,-1.98353166099272 11.4186593678318,-2.67266187910843 11.2325892916682,-3.370139460199 10.9976950375556,-4.07180667732119 10.7120132420133,-4.77301543993426 10.3741251778808,-5.46867747571416 9.98325275431087,-6.15333796691136 9.53934797130721,-6.82127155034321 9.04316110153766,-7.46660177192994 8.49628869033026,-8.0834388139565 7.90119264658079,-8.66602894960611 7.26118633366306,-9.20891272476597 6.58038711488714,-9.70708041256036 5.86363589896031,-10.1561151951575 5.11638450363235,-10.5523227092137 4.34455929206998,-10.8928284095024 3.55440490014196,-11.1756482052716 2.75231896370493,-11.3997211875144 1.94468630043474,-11.5649079926057 1.13772045529352,-11.6719534386681 0.337320518722878,-11.7224194346688 -0.451048873346601,-11.7185944349719 -1.22245408494226,-11.6633832575291 -1.97255957095313,-11.5601865384344 -2.69766824076311,-11.412777459207 -3.39473645824976,-11.2251801104372 -4.06136585996678,-11.0015549463407 -4.69577471878263,-10.746097057494 -5.29675867115641,-10.4629464435693 -5.86363589896031,-10.1561151951575 -6.41279812816808,-9.81860076735906 -6.95850572128598,-9.43970870647606 -7.49694322407093,-9.01802328534795 -8.02392290958205,-8.55251823132877 -8.53492105090512,-8.04263799900802 -9.02513546660251,-7.48837986111318 -9.48955915707101,-6.89036809032205 -9.92307603180697,-6.24991723198501 -10.3205732730337,-5.56908146775744 -10.6770684266007,-4.85068188832487 -10.9878474019724,-4.09830622067573 -11.2486076540352,-3.31628264628518 -11.4555975467227,-2.50961925566545 -11.605745625733,-1.68391541200916 -11.6967716185195,-0.845242296653376 -11.7272717979206,0 -11.6967716185195,0.845242296653376 -11.605745625733,1.68391541200916 -11.4555975467227,2.50961925566545 -11.2486076540352,3.31628264628518 -10.9878474019724,4.09830622067573 -10.6770684266007,4.85068188832487 -10.3205732730337,5.56908146775744 -9.92307603180697,6.24991723198501 -9.48955915707101,6.89036809032205 -9.02513546660251,7.48837986111318 -8.53492105090512,8.04263799900802 -8.02392290958205,8.55251823132877 -7.49694322407093,9.01802328534795 -6.95850572128598,9.43970870647606 -6.41279812816808,9.81860076735906 -5.86363589896031,10.1561151951575 -5.29675867115641,10.4629464435693 -4.69577471878263,10.746097057494 -4.06136585996678,11.0015549463407 -3.39473645824976,11.2251801104372 -2.69766824076311,11.412777459207 -1.97255957095313,11.5601865384344 -1.22245408494226,11.6633832575291 -0.451048873346601,11.7185944349719 0.337320518722878,11.7224194346688 1.13772045529352,11.6719534386681 1.94468630043474,11.5649079926057 2.75231896370493,11.3997211875144 3.55440490014196,11.1756482052716 4.34455929206998,10.8928284095024 5.11638450363235,10.5523227092137 5.86363589896031,10.1561151951575 6.58038711488714,9.70708041256036 7.26118633366306,9.20891272476597 7.90119264658079,8.66602894960611 8.49628869033026,8.0834388139565 9.04316110153766,7.46660177192994 9.53934797130721,6.82127155034321 9.98325275431087,6.15333796691136 10.3741251778808,5.46867747571416 10.7120132420133,4.77301543993426 10.9976950375556,4.07180667732119 11.2325892916682,3.370139460199 11.4186593678318,2.67266187910843 11.5583090840377,1.98353166099272 11.6542804400686,1.30638835101799 11.7095567993245,0.644345676210211 11.7272717979206,0" style=" stroke-width: 0.00272727251114433;stroke: #ffffff; fill: none; " xmlns="http://www.w3.org/2000/svg" />
  <g id="ComplexString2d_1690" style=" fill-rule: evenodd; stroke-width: 0;stroke: #ffffff; fill: #ffffff; " xmlns="http://www.w3.org/2000/svg">
    <path d="M 11.7272717979206 0 L 11.7095567993245 -0.644345676210211 L 11.6542804400686 -1.30638835101799 L 11.5583090840377 -1.98353166099272 L 11.4186593678318 -2.67266187910843 L 11.2325892916682 -3.370139460199 L 10.9976950375556 -4.07180667732119 L 10.7120132420133 -4.77301543993426 L 10.3741251778808 -5.46867747571416 L 9.98325275431087 -6.15333796691136 L 9.53934797130721 -6.82127155034321 L 9.04316110153766 -7.46660177192994 L 8.49628869033026 -8.0834388139565 L 7.90119264658079 -8.66602894960611 L 7.26118633366306 -9.20891272476597 L 6.58038711488714 -9.70708041256036 L 5.86363589896031 -10.1561151951575 L 5.11638450363235 -10.5523227092137 L 4.34455929206998 -10.8928284095024 L 3.55440490014196 -11.1756482052716 L 2.75231896370493 -11.3997211875144 L 1.94468630043474 -11.5649079926057 L 1.13772045529352 -11.6719534386681 L 0.337320518722878 -11.7224194346688 L -0.451048873346601 -11.7185944349719 L -1.22245408494226 -11.6633832575291 L -1.97255957095313 -11.5601865384344 L -2.69766824076311 -11.412777459207 L -3.39473645824976 -11.2251801104372 L -4.06136585996678 -11.0015549463407 L -4.69577471878263 -10.746097057494 L -5.29675867115641 -10.4629464435693 L -5.86363589896031 -10.1561151951575 L -6.41279812816808 -9.81860076735906 L -6.95850572128598 -9.43970870647606 L -7.49694322407093 -9.01802328534795 L -8.02392290958205 -8.55251823132877 L -8.53492105090512 -8.04263799900802 L -9.02513546660251 -7.48837986111318 L -9.48955915707101 -6.89036809032205 L -9.92307603180697 -6.24991723198501 L -10.3205732730337 -5.56908146775744 L -10.6770684266007 -4.85068188832487 L -10.9878474019724 -4.09830622067573 L -11.2486076540352 -3.31628264628518 L -11.4555975467227 -2.50961925566545 L -11.605745625733 -1.68391541200916 L -11.6967716185195 -0.845242296653376 L -11.7272717979206 0 L -11.6967716185195 0.845242296653376 L -11.605745625733 1.68391541200916 L -11.4555975467227 2.50961925566545 L -11.2486076540352 3.31628264628518 L -10.9878474019724 4.09830622067573 L -10.6770684266007 4.85068188832487 L -10.3205732730337 5.56908146775744 L -9.92307603180697 6.24991723198501 L -9.48955915707101 6.89036809032205 L -9.02513546660251 7.48837986111318 L -8.53492105090512 8.04263799900802 L -8.02392290958205 8.55251823132877 L -7.49694322407093 9.01802328534795 L -6.95850572128598 9.43970870647606 L -6.41279812816808 9.81860076735906 L -5.86363589896031 10.1561151951575 L -5.29675867115641 10.4629464435693 L -4.69577471878263 10.746097057494 L -4.06136585996678 11.0015549463407 L -3.39473645824976 11.2251801104372 L -2.69766824076311 11.412777459207 L -1.97255957095313 11.5601865384344 L -1.22245408494226 11.6633832575291 L -0.451048873346601 11.7185944349719 L 0.337320518722878 11.7224194346688 L 1.13772045529352 11.6719534386681 L 1.94468630043474 11.5649079926057 L 2.75231896370493 11.3997211875144 L 3.55440490014196 11.1756482052716 L 4.34455929206998 10.8928284095024 L 5.11638450363235 10.5523227092137 L 5.86363589896031 10.1561151951575 L 6.58038711488714 9.70708041256036 L 7.26118633366306 9.20891272476597 L 7.90119264658079 8.66602894960611 L 8.49628869033026 8.0834388139565 L 9.04316110153766 7.46660177192994 L 9.53934797130721 6.82127155034321 L 9.98325275431087 6.15333796691136 L 10.3741251778808 5.46867747571416 L 10.7120132420133 4.77301543993426 L 10.9976950375556 4.07180667732119 L 11.2325892916682 3.370139460199 L 11.4186593678318 2.67266187910843 L 11.5583090840377 1.98353166099272 L 11.6542804400686 1.30638835101799 L 11.7095567993245 0.644345676210211 L 11.7272717979206 0 " />
  </g>
</svg>