<?xml version="1.0" encoding="UTF-8"?>
<svg viewBox="-15 -15 30 30" xmlns="http://www.w3.org/2000/svg" xmlns:xlink="http://www.w3.org/1999/xlink" xmlns:gmsvgsym="http://www.intergraph.com/GeoMedia/svgsym">
  <!-- Creator: SVG Document for Symbols-->
  <polyline points="14.9999975413088,0 14.9066364977883,-1.67096160846099 14.6052607824818,-3.41852079260195 14.06681804721,-5.20812426396897 13.2692286485333,-6.99481950051856 12.2014905294316,-8.72488145223343 10.8673452187033,-10.3392812464362 10.1061759905275,-11.0844546537045 9.28756330117916,-11.7788410692975 8.41677373803033,-12.4160317883832 7.4999987706544,-12.990378870711 6.54421216261415,-13.4971557288202 5.55699385384361,-13.9326861280195 4.54633125479824,-14.2944324216658 3.52040765825434,-14.5810375511582 1.45522370264672,-14.9292414940831 -0.576923023082006,-14.9888987784222 -2.52304105702958,-14.7862839292804 -4.34210452356772,-14.3577872936341 -6.00622313315037,-13.7450066881943 -7.4999987706544,-12.990378870711 -8.90041354110853,-12.0740450797333 -10.2631562589141,-10.9392665010321 -11.5437769901804,-9.57815966531141 -12.6923056254513,-7.99407927790359 -13.6567142320783,-6.20436004184967 -14.3877527004871,-4.24175630472196 -14.6525072453257,-3.20997776796129 -14.8445571550228,-2.15384523519255 -14.9609859006445,-1.08112394043704 -14.9999975413088,0 -14.9609859006445,1.08112394043704 -14.8445571550228,2.15384523519255 -14.6525072453257,3.20997776796129 -14.3877527004871,4.24175630472196 -13.6567142320783,6.20436004184967 -12.6923056254513,7.99407927790359 -11.5437769901804,9.57815966531141 -10.2631562589141,10.9392665010321 -8.90041354110853,12.0740450797333 -7.4999987706544,12.990378870711 -6.00622313315037,13.7450066881943 -4.34210452356772,14.3577872936341 -2.52304105702958,14.7862839292804 -0.576923023082006,14.9888987784222 1.45522370264672,14.9292414940831 3.52040765825434,14.5810375511582 4.54633125479824,14.2944324216658 5.55699385384361,13.9326861280195 6.54421216261415,13.4971557288202 7.4999987706544,12.990378870711 8.41677373803033,12.4160317883832 9.28756330117916,11.7788410692975 10.1061759905275,11.0844546537045 10.8673452187033,10.3392812464362 12.2014905294316,8.72488145223343 13.2692286485333,6.99481950051856 14.06681804721,5.20812426396897 14.6052607824818,3.41852079260195 14.9066364977883,1.67096160846099 14.9999975413088,0" style=" stroke-width: 0.00176470559309515;stroke: #000000; fill: none; " xmlns="http://www.w3.org/2000/svg" />
  <g id="ComplexString2d_1615" style=" fill-rule: evenodd; stroke-width: 0;stroke: #000000; fill: #000000; " xmlns="http://www.w3.org/2000/svg">
    <path d="M 14.9999975413088 0 L 14.9066364977883 -1.67096160846099 L 14.6052607824818 -3.41852079260195 L 14.06681804721 -5.20812426396897 L 13.2692286485333 -6.99481950051856 L 12.2014905294316 -8.72488145223343 L 10.8673452187033 -10.3392812464362 L 10.1061759905275 -11.0844546537045 L 9.28756330117916 -11.7788410692975 L 8.41677373803033 -12.4160317883832 L 7.4999987706544 -12.990378870711 L 6.54421216261415 -13.4971557288202 L 5.55699385384361 -13.9326861280195 L 4.54633125479824 -14.2944324216658 L 3.52040765825434 -14.5810375511582 L 1.45522370264672 -14.9292414940831 L -0.576923023082006 -14.9888987784222 L -2.52304105702958 -14.7862839292804 L -4.34210452356772 -14.3577872936341 L -6.00622313315037 -13.7450066881943 L -7.4999987706544 -12.990378870711 L -8.90041354110853 -12.0740450797333 L -10.2631562589141 -10.9392665010321 L -11.5437769901804 -9.57815966531141 L -12.6923056254513 -7.99407927790359 L -13.6567142320783 -6.20436004184967 L -14.3877527004871 -4.24175630472196 L -14.6525072453257 -3.20997776796129 L -14.8445571550228 -2.15384523519255 L -14.9609859006445 -1.08112394043704 L -14.9999975413088 0 L -14.9609859006445 1.08112394043704 L -14.8445571550228 2.15384523519255 L -14.6525072453257 3.20997776796129 L -14.3877527004871 4.24175630472196 L -13.6567142320783 6.20436004184967 L -12.6923056254513 7.99407927790359 L -11.5437769901804 9.57815966531141 L -10.2631562589141 10.9392665010321 L -8.90041354110853 12.0740450797333 L -7.4999987706544 12.990378870711 L -6.00622313315037 13.7450066881943 L -4.34210452356772 14.3577872936341 L -2.52304105702958 14.7862839292804 L -0.576923023082006 14.9888987784222 L 1.45522370264672 14.9292414940831 L 3.52040765825434 14.5810375511582 L 4.54633125479824 14.2944324216658 L 5.55699385384361 13.9326861280195 L 6.54421216261415 13.4971557288202 L 7.4999987706544 12.990378870711 L 8.41677373803033 12.4160317883832 L 9.28756330117916 11.7788410692975 L 10.1061759905275 11.0844546537045 L 10.8673452187033 10.3392812464362 L 12.2014905294316 8.72488145223343 L 13.2692286485333 6.99481950051856 L 14.06681804721 5.20812426396897 L 14.6052607824818 3.41852079260195 L 14.9066364977883 1.67096160846099 L 14.9999975413088 0 " />
  </g>
  <polyline points="12.3529391516661,0 12.3342791547247,-0.678722535807531 12.2760535760333,-1.37608600973604 12.1749618867212,-2.08935601046904 12.0278618520092,-2.81525247972063 11.8318646488415,-3.54994141811926 11.5844382776332,-4.2890435322651 11.2835150328407,-5.02766282296067 10.9276000323562,-5.76043952637862 10.5158740998433,-6.48162758463727 10.048286411781,-7.18519646931334 9.52562702686335,-7.86495612259794 9.24413566123868,-8.19396483337509 8.94957841540273,-8.51470219256685 8.642307877533,-8.82641608264943 8.32273310638597,-9.12837432727226 7.99131857247375,-9.41986910302196 7.64858151100568,-9.70022205706853 7.29509015718272,-9.96878960128217 6.93146056972743,-10.2249675004678 6.55835345441386,-10.468194931188 6.17646957583304,-10.6979590699973 5.78654605151119,-10.9137982699126 5.38935123426355,-11.1153047074713 4.98567994748926,-11.3021282650839 4.57634783811343,-11.4739768839745 4.1621866118821,-11.6306193877106 3.74403750395149,-11.7718854822023 3.32274669065349,-11.8976661086441 2.89915911302608,-12.0079132670438 2.47411388857878,-12.1026387809288 2.04843813482306,-12.1819130620524 1.62294326339063,-12.2458629927466 1.19841950944609,-12.2946694553349 0.355317118229574,-12.3478280348568 -0.475113098593483,-12.3437990355172 -1.28767390658086,-12.2856421038734 -2.07779860059874,-12.1769395922794 -2.84159282834429,-12.0216661471424 -3.57585082563708,-11.8240600618855 -4.27804571053837,-11.5885043357902 -4.94630142453213,-11.31941726225 -5.57934861488526,-11.0211603111381 -6.17646957583304,-10.6979590699973 -6.75493053983943,-10.3424377753306 -7.32975232797173,-9.94333125251394 -7.89691635265337,-9.4991483253212 -8.45201102637214,-9.00880775863546 -8.99027182049726,-8.47172472902317 -9.50663985350501,-7.88789606001426 -9.9958413027304,-7.25797928091272 -10.4524869337627,-6.58335950913858 -10.8711912180729,-5.86620027374896 -11.2467057447566,-5.10947298602153 -11.574065338157,-4.31695693945444 -11.7182495498175,-3.90867394755371 -11.8487375284288,-3.49321107447691 -11.9650545681865,-3.07125002599466 -12.0667706103375,-2.64351115493005 -12.1535051843559,-2.21075028468861 -12.2249293491191,-1.77375482690599 -12.280770104672,-1.3333386638017 -12.320811803991,-0.890337383474095 -12.3448995059251,-0.445603162254068 -12.3529391516661,0 -12.3448995059251,0.445603162254068 -12.320811803991,0.890337383474095 -12.280770104672,1.3333386638017 -12.2249293491191,1.77375482690599 -12.1535051843559,2.21075028468861 -12.0667706103375,2.64351115493005 -11.9650545681865,3.07125002599466 -11.8487375284288,3.49321107447691 -11.7182495498175,3.90867394755371 -11.574065338157,4.31695693945444 -11.4167001874805,4.71742140322496 -11.2467057447566,5.10947298602153 -10.8711912180729,5.86620027374896 -10.4524869337627,6.58335950913858 -9.9958413027304,7.25797928091272 -9.50663985350501,7.88789606001426 -8.99027182049726,8.47172472902317 -8.45201102637214,9.00880775863546 -7.89691635265337,9.4991483253212 -7.32975232797173,9.94333125251394 -6.75493053983943,10.3424377753306 -6.17646957583304,10.6979590699973 -5.57934861488526,11.0211603111381 -4.94630142453213,11.31941726225 -4.27804571053837,11.5885043357902 -3.57585082563708,11.8240600618855 -2.84159282834429,12.0216661471424 -2.07779860059874,12.1769395922794 -1.28767390658086,12.2856421038734 -0.475113098593483,12.3437990355172 0.355317118229574,12.3478280348568 1.19841950944609,12.2946694553349 2.04843813482306,12.1819130620524 2.47411388857878,12.1026387809288 2.89915911302608,12.0079132670438 3.32274669065349,11.8976661086441 3.74403750395149,11.7718854822023 4.1621866118821,11.6306193877106 4.57634783811343,11.4739768839745 4.98567994748926,11.3021282650839 5.38935123426355,11.1153047074713 5.78654605151119,10.9137982699126 6.17646957583304,10.6979590699973 6.55835345441386,10.468194931188 6.93146056972743,10.2249675004678 7.29509015718272,9.96878960128217 7.64858151100568,9.70022205706853 7.99131857247375,9.41986910302196 8.32273310638597,9.12837432727226 8.642307877533,8.82641608264943 8.94957841540273,8.51470219256685 9.24413566123868,8.19396483337509 9.52562702686335,7.86495612259794 9.79375674761935,7.52844158952167 10.048286411781,7.18519646931334 10.5158740998433,6.48162758463727 10.9276000323562,5.76043952637862 11.2835150328407,5.02766282296067 11.5844382776332,4.2890435322651 11.8318646488415,3.54994141811926 12.0278618520092,2.81525247972063 12.1749618867212,2.08935601046904 12.2760535760333,1.37608600973604 12.3342791547247,0.678722535807531 12.3529391516661,0" style=" stroke-width: 0.00176470559309515;stroke: #ffffff; fill: none; " xmlns="http://www.w3.org/2000/svg" />
  <g id="ComplexString2d_1616" style=" fill-rule: evenodd; stroke-width: 0;stroke: #ffffff; fill: #ffffff; " xmlns="http://www.w3.org/2000/svg">
    <path d="M 12.3529391516661 0 L 12.3342791547247 -0.678722535807531 L 12.2760535760333 -1.37608600973604 L 12.1749618867212 -2.08935601046904 L 12.0278618520092 -2.81525247972063 L 11.8318646488415 -3.54994141811926 L 11.5844382776332 -4.2890435322651 L 11.2835150328407 -5.02766282296067 L 10.9276000323562 -5.76043952637862 L 10.5158740998433 -6.48162758463727 L 10.048286411781 -7.18519646931334 L 9.52562702686335 -7.86495612259794 L 9.24413566123868 -8.19396483337509 L 8.94957841540273 -8.51470219256685 L 8.642307877533 -8.82641608264943 L 8.32273310638597 -9.12837432727226 L 7.99131857247375 -9.41986910302196 L 7.64858151100568 -9.70022205706853 L 7.29509015718272 -9.96878960128217 L 6.93146056972743 -10.2249675004678 L 6.55835345441386 -10.468194931188 L 6.17646957583304 -10.6979590699973 L 5.78654605151119 -10.9137982699126 L 5.38935123426355 -11.1153047074713 L 4.98567994748926 -11.3021282650839 L 4.57634783811343 -11.4739768839745 L 4.1621866118821 -11.6306193877106 L 3.74403750395149 -11.7718854822023 L 3.32274669065349 -11.8976661086441 L 2.89915911302608 -12.0079132670438 L 2.47411388857878 -12.1026387809288 L 2.04843813482306 -12.1819130620524 L 1.62294326339063 -12.2458629927466 L 1.19841950944609 -12.2946694553349 L 0.355317118229574 -12.3478280348568 L -0.475113098593483 -12.3437990355172 L -1.28767390658086 -12.2856421038734 L -2.07779860059874 -12.1769395922794 L -2.84159282834429 -12.0216661471424 L -3.57585082563708 -11.8240600618855 L -4.27804571053837 -11.5885043357902 L -4.94630142453213 -11.31941726225 L -5.57934861488526 -11.0211603111381 L -6.17646957583304 -10.6979590699973 L -6.75493053983943 -10.3424377753306 L -7.32975232797173 -9.94333125251394 L -7.89691635265337 -9.4991483253212 L -8.45201102637214 -9.00880775863546 L -8.99027182049726 -8.47172472902317 L -9.50663985350501 -7.88789606001426 L -9.9958413027304 -7.25797928091272 L -10.4524869337627 -6.58335950913858 L -10.8711912180729 -5.86620027374896 L -11.2467057447566 -5.10947298602153 L -11.574065338157 -4.31695693945444 L -11.7182495498175 -3.90867394755371 L -11.8487375284288 -3.49321107447691 L -11.9650545681865 -3.07125002599466 L -12.0667706103375 -2.64351115493005 L -12.1535051843559 -2.21075028468861 L -12.2249293491191 -1.77375482690599 L -12.280770104672 -1.3333386638017 L -12.320811803991 -0.890337383474095 L -12.3448995059251 -0.445603162254068 L -12.3529391516661 0 L -12.3448995059251 0.445603162254068 L -12.320811803991 0.890337383474095 L -12.280770104672 1.3333386638017 L -12.2249293491191 1.77375482690599 L -12.1535051843559 2.21075028468861 L -12.0667706103375 2.64351115493005 L -11.9650545681865 3.07125002599466 L -11.8487375284288 3.49321107447691 L -11.7182495498175 3.90867394755371 L -11.574065338157 4.31695693945444 L -11.4167001874805 4.71742140322496 L -11.2467057447566 5.10947298602153 L -10.8711912180729 5.86620027374896 L -10.4524869337627 6.58335950913858 L -9.9958413027304 7.25797928091272 L -9.50663985350501 7.88789606001426 L -8.99027182049726 8.47172472902317 L -8.45201102637214 9.00880775863546 L -7.89691635265337 9.4991483253212 L -7.32975232797173 9.94333125251394 L -6.75493053983943 10.3424377753306 L -6.17646957583304 10.6979590699973 L -5.57934861488526 11.0211603111381 L -4.94630142453213 11.31941726225 L -4.27804571053837 11.5885043357902 L -3.57585082563708 11.8240600618855 L -2.84159282834429 12.0216661471424 L -2.07779860059874 12.1769395922794 L -1.28767390658086 12.2856421038734 L -0.475113098593483 12.3437990355172 L 0.355317118229574 12.3478280348568 L 1.19841950944609 12.2946694553349 L 2.04843813482306 12.1819130620524 L 2.47411388857878 12.1026387809288 L 2.89915911302608 12.0079132670438 L 3.32274669065349 11.8976661086441 L 3.74403750395149 11.7718854822023 L 4.1621866118821 11.6306193877106 L 4.57634783811343 11.4739768839745 L 4.98567994748926 11.3021282650839 L 5.38935123426355 11.1153047074713 L 5.78654605151119 10.9137982699126 L 6.17646957583304 10.6979590699973 L 6.55835345441386 10.468194931188 L 6.93146056972743 10.2249675004678 L 7.29509015718272 9.96878960128217 L 7.64858151100568 9.70022205706853 L 7.99131857247375 9.41986910302196 L 8.32273310638597 9.12837432727226 L 8.642307877533 8.82641608264943 L 8.94957841540273 8.51470219256685 L 9.24413566123868 8.19396483337509 L 9.52562702686335 7.86495612259794 L 9.79375674761935 7.52844158952167 L 10.048286411781 7.18519646931334 L 10.5158740998433 6.48162758463727 L 10.9276000323562 5.76043952637862 L 11.2835150328407 5.02766282296067 L 11.5844382776332 4.2890435322651 L 11.8318646488415 3.54994141811926 L 12.0278618520092 2.81525247972063 L 12.1749618867212 2.08935601046904 L 12.2760535760333 1.37608600973604 L 12.3342791547247 0.678722535807531 L 12.3529391516661 0 " />
  </g>
  <polyline points="2.64705838964273,0 2.64305974323934,-0.145440505572208 2.63058292175503,-0.294875598724946 2.60892045471755,-0.447719044260189 2.57739893047257,-0.603268312881324 2.53539964323914,-0.760701757664207 2.48237959310628,-0.91908073170387 2.41789601544067,-1.07735629399578 2.34162861617716,-1.23437997413994 2.25340163063869,-1.38892018410295 2.20479299154744,-1.46485705400887 2.15320429412114,-1.53968498292008 2.09866218541423,-1.61323755909917 2.04120584189088,-1.68534766492646 1.98088626354273,-1.75584959454677 1.91776680330058,-1.82457905386936 1.85192316703437,-1.89137492527361 1.78344288414152,-1.95608014996171 1.71242548401747,-2.01854331619379 1.63898179017348,-2.07861901222897 1.56323356729546,-2.13616923808987 1.48531299183235,-2.19106446438596 1.40536141670214,-2.24318469113691 1.32352919482137,-2.2924198007137 1.23997409087006,-2.33867096960313 1.1548609283506,-2.3818510213489 1.06836000135274,-2.42188460302218 0.98064601573018,-2.45870924404497 0.891897206747832,-2.49227553266068 0.802293750846748,-2.52254693946351 0.712017059761898,-2.54949981739853 0.621248368757692,-2.57312428411442 0.530167324863509,-2.59342263372843 0.438951104520895,-2.61040986623813 0.34777353123077,-2.62411351105075 0.25680419320063,-2.63457203874823 0.166206855109515,-2.64183521402829 0.0761394581080056,-2.64596321335166 -0.0132472919462467,-2.64702521317758 -0.101809924488524,-2.64509974290495 -0.275930072418595,-2.63263756847708 -0.445242456430839,-2.60934416053046 -0.608912723720839,-2.57607134245489 -0.766253697930643,-2.53372723174857 -0.91672414385485,-2.48325082825759 -1.05992170861823,-2.42558942594432 -1.19557462755946,-2.36167725994975 -1.32352919482137,-2.2924198007137 -1.44748511567988,-2.21623675437755 -1.5706612131368,-2.13071382721938 -1.6921963108627,-2.0355317839974 -1.81114523254193,-1.93045874239668 -1.92648674304775,-1.81536958479068 -2.03713713667544,-1.69026342882659 -2.14196594302207,-1.5552812744813 -2.23981869168864,-1.41071994523557 -2.32954091227614,-1.25704285277815 -2.37099984665696,-1.17697833648998 -2.41000831085121,-1.09488705582814 -2.446435716645,-1.01087595195158 -2.48015676994121,-0.925062201311666 -2.51105341193568,-0.837573039181669 -2.53901517205828,-0.748545230245052 -2.56394022679627,-0.658125068595483 -2.58573663498827,-0.56646661303124 -2.60432251429475,-0.473732216466886 -2.61962780590366,-0.380090408286562 -2.6315935686482,-0.285715364932308 -2.64017392018295,-0.190786556962941 -2.64533568404275,-0.0954864549367857 -2.64705838964273,0 -2.64533568404275,0.0954864549367857 -2.64017392018295,0.190786556962941 -2.6315935686482,0.285715364932308 -2.61962780590366,0.380090408286562 -2.60432251429475,0.473732216466886 -2.58573663498827,0.56646661303124 -2.56394022679627,0.658125068595483 -2.53901517205828,0.748545230245052 -2.51105341193568,0.837573039181669 -2.48015676994121,0.925062201311666 -2.446435716645,1.01087595195158 -2.41000831085121,1.09488705582814 -2.37099984665696,1.17697833648998 -2.32954091227614,1.25704285277815 -2.28576739003941,1.33498513412006 -2.23981869168864,1.41071994523557 -2.14196594302207,1.5552812744813 -2.03713713667544,1.69026342882659 -1.92648674304775,1.81536958479068 -1.81114523254193,1.93045874239668 -1.6921963108627,2.0355317839974 -1.5706612131368,2.13071382721938 -1.44748511567988,2.21623675437755 -1.32352919482137,2.2924198007137 -1.19557462755946,2.36167725994975 -1.05992170861823,2.42558942594432 -0.91672414385485,2.48325082825759 -0.766253697930643,2.53372723174857 -0.608912723720839,2.57607134245489 -0.445242456430839,2.60934416053046 -0.275930072418595,2.63263756847708 -0.101809924488524,2.64509974290495 0.0761394581080056,2.64596321335166 0.166206855109515,2.64183521402829 0.25680419320063,2.63457203874823 0.34777353123077,2.62411351105075 0.438951104520895,2.61040986623813 0.530167324863509,2.59342263372843 0.621248368757692,2.57312428411442 0.712017059761898,2.54949981739853 0.802293750846748,2.52254693946351 0.891897206747832,2.49227553266068 0.98064601573018,2.45870924404497 1.06836000135274,2.42188460302218 1.1548609283506,2.3818510213489 1.23997409087006,2.33867096960313 1.32352919482137,2.2924198007137 1.40536141670214,2.24318469113691 1.48531299183235,2.19106446438596 1.56323356729546,2.13616923808987 1.63898179017348,2.07861901222897 1.71242548401747,2.01854331619379 1.78344288414152,1.95608014996171 1.85192316703437,1.89137492527361 1.91776680330058,1.82457905386936 1.98088626354273,1.75584959454677 2.04120584189088,1.68534766492646 2.09866218541423,1.61323755909917 2.15320429412114,1.53968498292008 2.20479299154744,1.46485705400887 2.25340163063869,1.38892018410295 2.29901485845622,1.31204007905752 2.34162861617716,1.23437997413994 2.41789601544067,1.07735629399578 2.48237959310628,0.91908073170387 2.53539964323914,0.760701757664207 2.57739893047257,0.603268312881324 2.60892045471755,0.447719044260189 2.63058292175503,0.294875598724946 2.64305974323934,0.145440505572208 2.64705838964273,0" style=" stroke-width: 0.00176470559309515;stroke: #000000; fill: none; " xmlns="http://www.w3.org/2000/svg" />
  <g id="ComplexString2d_1617" style=" fill-rule: evenodd; stroke-width: 0;stroke: #000000; fill: #000000; " xmlns="http://www.w3.org/2000/svg">
    <path d="M 2.64705838964273 0 L 2.64305974323934 -0.145440505572208 L 2.63058292175503 -0.294875598724946 L 2.60892045471755 -0.447719044260189 L 2.57739893047257 -0.603268312881324 L 2.53539964323914 -0.760701757664207 L 2.48237959310628 -0.91908073170387 L 2.41789601544067 -1.07735629399578 L 2.34162861617716 -1.23437997413994 L 2.25340163063869 -1.38892018410295 L 2.20479299154744 -1.46485705400887 L 2.15320429412114 -1.53968498292008 L 2.09866218541423 -1.61323755909917 L 2.04120584189088 -1.68534766492646 L 1.98088626354273 -1.75584959454677 L 1.91776680330058 -1.82457905386936 L 1.85192316703437 -1.89137492527361 L 1.78344288414152 -1.95608014996171 L 1.71242548401747 -2.01854331619379 L 1.63898179017348 -2.07861901222897 L 1.56323356729546 -2.13616923808987 L 1.48531299183235 -2.19106446438596 L 1.40536141670214 -2.24318469113691 L 1.32352919482137 -2.2924198007137 L 1.23997409087006 -2.33867096960313 L 1.1548609283506 -2.3818510213489 L 1.06836000135274 -2.42188460302218 L 0.98064601573018 -2.45870924404497 L 0.891897206747832 -2.49227553266068 L 0.802293750846748 -2.52254693946351 L 0.712017059761898 -2.54949981739853 L 0.621248368757692 -2.57312428411442 L 0.530167324863509 -2.59342263372843 L 0.438951104520895 -2.61040986623813 L 0.34777353123077 -2.62411351105075 L 0.25680419320063 -2.63457203874823 L 0.166206855109515 -2.64183521402829 L 0.0761394581080056 -2.64596321335166 L -0.0132472919462467 -2.64702521317758 L -0.101809924488524 -2.64509974290495 L -0.275930072418595 -2.63263756847708 L -0.445242456430839 -2.60934416053046 L -0.608912723720839 -2.57607134245489 L -0.766253697930643 -2.53372723174857 L -0.91672414385485 -2.48325082825759 L -1.05992170861823 -2.42558942594432 L -1.19557462755946 -2.36167725994975 L -1.32352919482137 -2.2924198007137 L -1.44748511567988 -2.21623675437755 L -1.5706612131368 -2.13071382721938 L -1.6921963108627 -2.0355317839974 L -1.81114523254193 -1.93045874239668 L -1.92648674304775 -1.81536958479068 L -2.03713713667544 -1.69026342882659 L -2.14196594302207 -1.5552812744813 L -2.23981869168864 -1.41071994523557 L -2.32954091227614 -1.25704285277815 L -2.37099984665696 -1.17697833648998 L -2.41000831085121 -1.09488705582814 L -2.446435716645 -1.01087595195158 L -2.48015676994121 -0.925062201311666 L -2.51105341193568 -0.837573039181669 L -2.53901517205828 -0.748545230245052 L -2.56394022679627 -0.658125068595483 L -2.58573663498827 -0.56646661303124 L -2.60432251429475 -0.473732216466886 L -2.61962780590366 -0.380090408286562 L -2.6315935686482 -0.285715364932308 L -2.64017392018295 -0.190786556962941 L -2.64533568404275 -0.0954864549367857 L -2.64705838964273 0 L -2.64533568404275 0.0954864549367857 L -2.64017392018295 0.190786556962941 L -2.6315935686482 0.285715364932308 L -2.61962780590366 0.380090408286562 L -2.60432251429475 0.473732216466886 L -2.58573663498827 0.56646661303124 L -2.56394022679627 0.658125068595483 L -2.53901517205828 0.748545230245052 L -2.51105341193568 0.837573039181669 L -2.48015676994121 0.925062201311666 L -2.446435716645 1.01087595195158 L -2.41000831085121 1.09488705582814 L -2.37099984665696 1.17697833648998 L -2.32954091227614 1.25704285277815 L -2.28576739003941 1.33498513412006 L -2.23981869168864 1.41071994523557 L -2.14196594302207 1.5552812744813 L -2.03713713667544 1.69026342882659 L -1.92648674304775 1.81536958479068 L -1.81114523254193 1.93045874239668 L -1.6921963108627 2.0355317839974 L -1.5706612131368 2.13071382721938 L -1.44748511567988 2.21623675437755 L -1.32352919482137 2.2924198007137 L -1.19557462755946 2.36167725994975 L -1.05992170861823 2.42558942594432 L -0.91672414385485 2.48325082825759 L -0.766253697930643 2.53372723174857 L -0.608912723720839 2.57607134245489 L -0.445242456430839 2.60934416053046 L -0.275930072418595 2.63263756847708 L -0.101809924488524 2.64509974290495 L 0.0761394581080056 2.64596321335166 L 0.166206855109515 2.64183521402829 L 0.25680419320063 2.63457203874823 L 0.34777353123077 2.62411351105075 L 0.438951104520895 2.61040986623813 L 0.530167324863509 2.59342263372843 L 0.621248368757692 2.57312428411442 L 0.712017059761898 2.54949981739853 L 0.802293750846748 2.52254693946351 L 0.891897206747832 2.49227553266068 L 0.98064601573018 2.45870924404497 L 1.06836000135274 2.42188460302218 L 1.1548609283506 2.3818510213489 L 1.23997409087006 2.33867096960313 L 1.32352919482137 2.2924198007137 L 1.40536141670214 2.24318469113691 L 1.48531299183235 2.19106446438596 L 1.56323356729546 2.13616923808987 L 1.63898179017348 2.07861901222897 L 1.71242548401747 2.01854331619379 L 1.78344288414152 1.95608014996171 L 1.85192316703437 1.89137492527361 L 1.91776680330058 1.82457905386936 L 1.98088626354273 1.75584959454677 L 2.04120584189088 1.68534766492646 L 2.09866218541423 1.61323755909917 L 2.15320429412114 1.53968498292008 L 2.20479299154744 1.46485705400887 L 2.25340163063869 1.38892018410295 L 2.29901485845622 1.31204007905752 L 2.34162861617716 1.23437997413994 L 2.41789601544067 1.07735629399578 L 2.48237959310628 0.91908073170387 L 2.53539964323914 0.760701757664207 L 2.57739893047257 0.603268312881324 L 2.60892045471755 0.447719044260189 L 2.63058292175503 0.294875598724946 L 2.64305974323934 0.145440505572208 L 2.64705838964273 0 " />
  </g>
</svg>