<?xml version="1.0" encoding="UTF-8"?>
<svg viewBox="-14.9999975336663 -15.6620453601521 30 30.6620478264859" xmlns="http://www.w3.org/2000/svg" xmlns:xlink="http://www.w3.org/1999/xlink" xmlns:gmsvgsym="http://www.intergraph.com/GeoMedia/svgsym">
  <!-- Creator: SVG Document for Symbols-->
  <path id="LineString2d_1685" style=" stroke-width: 0.00132410283493552;stroke: #ffffff; fill: none; " d="M 0 5.14955151924172 L -9.85044482835559 14.9999963475973 L -14.9999963475973 9.85044482835559 L -5.14955151924172 0 L -6.67041815401319 -1.52086663477147 L -13.9030875790297 5.71180279024501 L -13.9030875790297 -7.3961464712747 L -5.63718933067582 -15.6620447196286 L 2.51579538637749E-06 -10.0248528731573 L 5.63719422985631 -15.6620447196286 L 13.9030924782102 -7.3961464712747 L 13.9030924782102 5.71180530604039 L 6.67041934570575 -1.52086782646402 L 5.14955151924172 0 L 15.0000009819572 9.85044946271552 L 9.85044946271552 15.0000009819572 L 0 5.14955151924172 " xmlns="http://www.w3.org/2000/svg" />
  <g id="ComplexString2d_1686" style=" fill-rule: evenodd; stroke-width: 0;stroke: #ffffff; fill: #ffffff; " xmlns="http://www.w3.org/2000/svg">
    <path d="M 0 5.14955151924172 L -9.85044482835559 14.9999963475973 L -14.9999963475973 9.85044482835559 L -5.14955151924172 0 L -6.67041815401319 -1.52086663477147 L -13.9030875790297 5.71180279024501 L -13.9030875790297 -7.3961464712747 L -5.63718933067582 -15.6620447196286 L 2.51579538637749E-06 -10.0248528731573 L 5.63719422985631 -15.6620447196286 L 13.9030924782102 -7.3961464712747 L 13.9030924782102 5.71180530604039 L 6.67041934570575 -1.52086782646402 L 5.14955151924172 0 L 15.0000009819572 9.85044946271552 L 9.85044946271552 15.0000009819572 L 0 5.14955151924172 " />
  </g>
</svg>