<?xml version="1.0" encoding="UTF-8"?>
<svg viewBox="-14.878001865189 -60.2757920258462 30 75.1537938910352" xmlns="http://www.w3.org/2000/svg" xmlns:xlink="http://www.w3.org/1999/xlink" xmlns:gmsvgsym="http://www.intergraph.com/GeoMedia/svgsym">
  <!-- Creator: SVG Document for Symbols-->
  <path id="LineString2d_1722" style=" stroke-width: 0.0022889231526704;stroke: #ffffff; fill: none; " d="M -14.8780004923576 14.8780004923576 L -14.8780004923576 -14.8780004923576 L -10.3001619693555 -14.8780004923576 L -10.3001619693555 -30.7848719418406 L -1.14446935867392 -28.953736853089 L -1.14446935867392 -29.5190903427521 L -5.98679203639781 -31.2815517857233 L 4.56624627169538 -60.2757860983679 L 15.1219967248322 -31.2741004252921 L 10.3001464046781 -29.5190903427521 L 10.3001464046781 -14.8780004923576 L 1.14445379399648 -16.8246895775486 L 1.14445379399648 -14.8780004923576 L 14.8780004923576 -14.8780004923576 L 14.8780004923576 14.8780004923576 L -14.8780004923576 14.8780004923576 " xmlns="http://www.w3.org/2000/svg" />
  <g id="ComplexString2d_1723" style=" fill-rule: evenodd; stroke-width: 0;stroke: #ffffff; fill: #ffffff; " xmlns="http://www.w3.org/2000/svg">
    <path d="M -14.8780004923576 14.8780004923576 L -14.8780004923576 -14.8780004923576 L -10.3001619693555 -14.8780004923576 L -10.3001619693555 -30.7848719418406 L -1.14446935867392 -28.953736853089 L -1.14446935867392 -29.5190903427521 L -5.98679203639781 -31.2815517857233 L 4.56624627169538 -60.2757860983679 L 15.1219967248322 -31.2741004252921 L 10.3001464046781 -29.5190903427521 L 10.3001464046781 -14.8780004923576 L 1.14445379399648 -16.8246895775486 L 1.14445379399648 -14.8780004923576 L 14.8780004923576 -14.8780004923576 L 14.8780004923576 14.8780004923576 L -14.8780004923576 14.8780004923576 " />
  </g>
</svg>