<?xml version="1.0" encoding="UTF-8"?>
<svg viewBox="-15.0000013969838 -15.0000032596288 30 29.9999990686775" xmlns="http://www.w3.org/2000/svg" xmlns:xlink="http://www.w3.org/1999/xlink" xmlns:gmsvgsym="http://www.intergraph.com/GeoMedia/svgsym">
  <!-- Creator: SVG Document for Symbols-->
  <g id="ComplexString2d_1618" style=" fill-rule: evenodd; stroke-width: 0;stroke: #000000; fill: #000000; " xmlns="http://www.w3.org/2000/svg">
    <path d="M 14.9999979382924 -3.59999974519016E-06 L 14.9773393398962 -0.824166741665053 L 14.9066369449005 -1.6709654817282 L 14.7838825535892 -2.53707902042424 L 14.6052609662321 -3.41852475803505 L 14.3672645830776 -4.31064729489016 L 14.0668182043434 -5.20812843136598 L 13.701411430207 -6.1050233678833 L 13.2692288607971 -6.99482370490277 L 12.7692758961841 -7.87055224291825 L 12.4938271156805 -8.30086061246081 L 12.2014905363722 -8.72488578244809 L 11.8924189582485 -9.14168355294692 L 11.5668329812936 -9.55030832402425 L 11.2250220054872 -9.94981909574667 L 10.8673450308037 -10.33928586818 L 10.4942308572129 -10.7177956413889 L 10.1061758846797 -11.0844592154363 L 9.70374371316402 -11.4384171903829 L 9.28756294262151 -11.7788457662872 L 8.85832357300329 -12.1049635432044 L 8.41677340425644 -12.4160367211865 L 7.96371463632417 -12.7113845002817 L 7.49999846914624 -12.9903838805339 L 7.02651970265931 -13.2524740619831 L 6.54421173679732 -13.497160644664 L 6.05403937149197 -13.7240178286069 L 5.55699340667314 -13.9326912138369 L 5.05408324226938 -14.1229000003739 L 4.54633067820837 -14.2944373882323 L 4.03476311441739 -14.4471709774218 L 3.5204067508238 -14.5810425679463 L 3.00428038735549 -14.6960663598048 L 2.48738842394136 -14.7923281529914 L 1.9707160605117 -14.869981547495 L 1.45522269699859 -14.9292465433002 L 0.94183773333624 -14.970404740387 L 0.431455369461366 -14.9937961387314 L -0.0750693946865495 -14.9998147383054 L -0.576924159165011 -14.9889037390777 L -1.56360528932721 -14.9182847440761 L -2.52304242141776 -14.7862889534188 L -3.45050695577134 -14.5977423667643 L -4.34210609266349 -14.3577921837481 L -5.19477123231141 -14.0717602039936 L -6.00622477487631 -13.745011627121 L -6.77492512046731 -13.3828424527555 L -7.5000004691461 -12.9903838805339 L -8.20241741942866 -12.5586793110902 L -8.90041537002401 -12.0740499453925 L -9.58911452127753 -11.5346847835691 L -10.2631582735684 -10.9392712257127 L -10.9167606273061 -10.2870988718738 L -11.5437789829254 -9.5781641220526 L -12.1378093408796 -8.81326517619254 L -12.6923079016319 -7.99408383417462 L -13.2007344656452 -7.12324769581285 L -13.4356680490165 -6.66954772792597 L -13.6567164333706 -6.20436436085189 L -13.8631382187599 -5.72830159454786 L -14.0542246052347 -5.24202342896688 L -14.2293053928424 -4.7462510640579 L -14.3877551816273 -4.241760499766 L -14.5289971716301 -3.72937913603262 L -14.6525097628878 -3.20998177279583 L -14.7578301554332 -2.68448640999067 L -14.8445595492944 -2.15384904754945 L -14.912366144495 -1.61905788540225 L -14.9609883410535 -1.08112772347722 L -14.9902375389833 -0.541093361701133 L -14.9999999382923 -3.59999974519016E-06 L -14.9902375389833 0.541085961701657 L -14.9609883410535 1.08112032347775 L -14.912366144495 1.61905048540277 L -14.8445595492944 2.15384164754998 L -14.7578301554332 2.68447920999118 L -14.6525097628878 3.20997437279636 L -14.5289971716301 3.72937173603315 L -14.3877551816273 4.24175309976653 L -14.2293053928424 4.74624366405843 L -14.0542246052347 5.2420160289674 L -13.8631382187599 5.72829419454838 L -13.6567164333706 6.20435696085242 L -13.4356680490165 6.66954052792648 L -13.2007344656452 7.12324029581338 L -12.9526844832023 7.56491286455157 L -12.6923079016319 7.99407643417515 L -12.1378093408796 8.81325777619307 L -11.5437789829254 9.57815672205313 L -10.9167606273061 10.2870914718744 L -10.2631582735684 10.9392638257133 L -9.58911452127753 11.5346775835696 L -8.90041537002401 12.074042545393 L -8.20241741942866 12.5586719110907 L -7.5000004691461 12.9903764805345 L -6.77492512046731 13.382835052756 L -6.00622477487631 13.7450044271215 L -5.19477123231141 14.0717528039941 L -4.34210609266349 14.3577849837486 L -3.45050695577134 14.5977351667648 L -2.52304242141776 14.7862815534194 L -1.56360528932721 14.9182773440766 L -0.576924159165011 14.9888965390782 L 0.431455369461366 14.9937887387319 L 0.94183773333624 14.9703973403876 L 1.45522269699859 14.9292391433008 L 1.9707160605117 14.8699741474956 L 2.48738842394136 14.7923207529919 L 3.00428038735549 14.6960591598054 L 3.5204067508238 14.5810351679468 L 4.03476311441739 14.4471637774223 L 4.54633067820837 14.2944299882329 L 5.05408324226938 14.1228926003744 L 5.55699340667314 13.9326838138375 L 6.05403937149197 13.7240104286075 L 6.54421173679732 13.4971532446645 L 7.02651970265931 13.2524668619836 L 7.49999846914624 12.9903764805345 L 7.96371463632417 12.7113771002822 L 8.41677340425644 12.416029321187 L 8.85832357300329 12.104956143205 L 9.28756294262151 11.7788383662877 L 9.70374371316402 11.4384097903835 L 10.1061758846797 11.0844520154368 L 10.4942308572129 10.7177882413894 L 10.8673450308037 10.3392784681805 L 11.2250220054872 9.9498116957472 L 11.5668329812936 9.55030092402477 L 11.8924189582485 9.14167635294744 L 12.2014905363722 8.72487858244859 L 12.4938271156805 8.30085321246133 L 12.7692758961841 7.87054484291878 L 13.0277504778891 7.43489087375459 L 13.2692288607971 6.99481630490329 L 13.701411430207 6.10501596788382 L 14.0668182043434 5.20812103136651 L 14.3672645830776 4.31063989489069 L 14.6052609662321 3.41851735803558 L 14.7838825535892 2.53707162042476 L 14.9066369449005 1.67095808172873 L 14.9773393398962 0.824159341665577 L 14.9999979382924 -3.59999974519016E-06 " />
  </g>
  <g id="ComplexString2d_1619" style=" fill-rule: evenodd; stroke-width: 0;stroke: #ffffff; fill: #ffffff; " xmlns="http://www.w3.org/2000/svg">
    <path d="M 11.9999981506339 -3.59999974519016E-06 L 11.981871151917 -0.659334153331989 L 11.9253093559205 -1.33677310538251 L 11.8271059628713 -2.02966385633935 L 11.6842085729857 -2.73482060642799 L 11.4938113864621 -3.44851855591208 L 11.2534544034747 -4.16650350509273 L 10.9611288241656 -4.88401945430658 L 10.6153828486377 -5.59585980392216 L 10.2154204769473 -6.29644255433455 L 9.76119230909777 -6.97990950595841 L 9.2534661450349 -7.64024745921934 L 8.69387578464299 -8.27142941454396 L 8.08494042774375 -8.86756817234895 L 7.43005027409721 -9.42307733302973 L 6.73341852340516 -9.93283009694916 L 5.99999857531701 -10.3923078644271 L 5.23536922943787 -10.7977292357312 L 4.44559448533853 -11.1461536110695 L 3.63706434256671 -11.4355505905858 L 2.81632520065905 -11.664834774357 L 1.98991045915311 -11.8338631623931 L 1.16417791759889 -11.9433979546401 L 0.345164175569102 -11.995037750985 L -0.461539567331991 -11.9911237512621 L -1.25088431146176 -11.9346285552608 L -2.0184340571342 -11.829031762735 L -2.76040580461705 -11.6781947734114 L -3.47368495413079 -11.4862345869984 L -4.15581730584911 -11.2574088031948 L -4.80498005990103 -10.9960100216967 L -5.41994021637384 -10.7062746422044 L -6.00000057531686 -10.3923078644271 L -6.56193413554292 -10.0469442888721 L -7.12033249601919 -9.65924071631396 L -7.67129185702201 -9.2277485468552 L -8.21052681885468 -8.75141758057015 L -8.73340878184482 -8.22967981749902 L -9.23502354634027 -7.66253205764203 L -9.71024771270366 -7.05061290095398 L -10.1538464813055 -6.39526774733965 L -10.5605878525161 -5.69859879665024 L -10.9253734266964 -4.96349224868146 L -11.2433798041878 -4.19361950317345 L -11.5102043853018 -3.39340915981275 L -11.7220079703102 -2.56798621823661 L -11.8756479594355 -1.7230800780395 L -11.9687909528428 -0.864902938781724 L -12.0000001506338 -3.59999974519016E-06 L -11.9687909528428 0.864895538782248 L -11.8756479594355 1.72307267804003 L -11.7220079703102 2.56797881823714 L -11.5102043853018 3.39340175981327 L -11.2433798041878 4.19361210317397 L -10.9253734266964 4.96348484868198 L -10.5605878525161 5.69859139665076 L -10.1538464813055 6.39526034734017 L -9.71024771270366 7.05060550095451 L -9.23502354634027 7.66252465764255 L -8.73340878184482 8.22967241749954 L -8.21052681885468 8.75141038057066 L -7.67129185702201 9.22774134685571 L -7.12033249601919 9.65923331631448 L -6.56193413554292 10.0469368888726 L -6.00000057531686 10.3923004644276 L -5.41994021637384 10.7062672422049 L -4.80498005990103 10.9960028216972 L -4.15581730584911 11.2574016031953 L -3.47368495413079 11.4862271869989 L -2.76040580461705 11.6781873734119 L -2.0184340571342 11.8290245627355 L -1.25088431146176 11.9346211552614 L -0.461539567331991 11.9911165512626 L 0.345164175569102 11.9950303509856 L 1.16417791759889 11.9433905546407 L 1.98991045915311 11.8338557623936 L 2.81632520065905 11.6648273743575 L 3.63706434256671 11.4355433905863 L 4.44559448533853 11.14614641107 L 5.23536922943787 10.7977218357317 L 5.99999857531701 10.3923004644276 L 6.73341852340516 9.93282269694969 L 7.43005027409721 9.42306993303025 L 8.08494042774375 8.86756077234948 L 8.69387578464299 8.27142201454448 L 9.2534661450349 7.64024005921987 L 9.76119230909777 6.97990210595893 L 10.2154204769473 6.29643515433507 L 10.6153828486377 5.59585240392268 L 10.9611288241656 4.88401205430711 L 11.2534544034747 4.16649610509326 L 11.4938113864621 3.4485111559126 L 11.6842085729857 2.73481320642851 L 11.8271059628713 2.02965665633986 L 11.9253093559205 1.33676570538303 L 11.981871151917 0.659326753332512 L 11.9999981506339 -3.59999974519016E-06 " />
  </g>
  <polyline points="14.9999979382924,-3.59999974519016E-06 14.9773393398962,-0.824166741665053 14.9066369449005,-1.6709654817282 14.7838825535892,-2.53707902042424 14.6052609662321,-3.41852475803505 14.3672645830776,-4.31064729489016 14.0668182043434,-5.20812843136598 13.701411430207,-6.1050233678833 13.2692288607971,-6.99482370490277 12.7692758961841,-7.87055224291825 12.4938271156805,-8.30086061246081 12.2014905363722,-8.72488578244809 11.8924189582485,-9.14168355294692 11.5668329812936,-9.55030832402425 11.2250220054872,-9.94981909574667 10.8673450308037,-10.33928586818 10.4942308572129,-10.7177956413889 10.1061758846797,-11.0844592154363 9.70374371316402,-11.4384171903829 9.28756294262151,-11.7788457662872 8.85832357300329,-12.1049635432044 8.41677340425644,-12.4160367211865 7.96371463632417,-12.7113845002817 7.49999846914624,-12.9903838805339 7.02651970265931,-13.2524740619831 6.54421173679732,-13.497160644664 6.05403937149197,-13.7240178286069 5.55699340667314,-13.9326912138369 5.05408324226938,-14.1229000003739 4.54633067820837,-14.2944373882323 4.03476311441739,-14.4471709774218 3.5204067508238,-14.5810425679463 3.00428038735549,-14.6960663598048 2.48738842394136,-14.7923281529914 1.9707160605117,-14.869981547495 1.45522269699859,-14.9292465433002 0.94183773333624,-14.970404740387 0.431455369461366,-14.9937961387314 -0.0750693946865495,-14.9998147383054 -0.576924159165011,-14.9889037390777 -1.56360528932721,-14.9182847440761 -2.52304242141776,-14.7862889534188 -3.45050695577134,-14.5977423667643 -4.34210609266349,-14.3577921837481 -5.19477123231141,-14.0717602039936 -6.00622477487631,-13.745011627121 -6.77492512046731,-13.3828424527555 -7.5000004691461,-12.9903838805339 -8.20241741942866,-12.5586793110902 -8.90041537002401,-12.0740499453925 -9.58911452127753,-11.5346847835691 -10.2631582735684,-10.9392712257127 -10.9167606273061,-10.2870988718738 -11.5437789829254,-9.5781641220526 -12.1378093408796,-8.81326517619254 -12.6923079016319,-7.99408383417462 -13.2007344656452,-7.12324769581285 -13.4356680490165,-6.66954772792597 -13.6567164333706,-6.20436436085189 -13.8631382187599,-5.72830159454786 -14.0542246052347,-5.24202342896688 -14.2293053928424,-4.7462510640579 -14.3877551816273,-4.241760499766 -14.5289971716301,-3.72937913603262 -14.6525097628878,-3.20998177279583 -14.7578301554332,-2.68448640999067 -14.8445595492944,-2.15384904754945 -14.912366144495,-1.61905788540225 -14.9609883410535,-1.08112772347722 -14.9902375389833,-0.541093361701133 -14.9999999382923,-3.59999974519016E-06 -14.9902375389833,0.541085961701657 -14.9609883410535,1.08112032347775 -14.912366144495,1.61905048540277 -14.8445595492944,2.15384164754998 -14.7578301554332,2.68447920999118 -14.6525097628878,3.20997437279636 -14.5289971716301,3.72937173603315 -14.3877551816273,4.24175309976653 -14.2293053928424,4.74624366405843 -14.0542246052347,5.2420160289674 -13.8631382187599,5.72829419454838 -13.6567164333706,6.20435696085242 -13.4356680490165,6.66954052792648 -13.2007344656452,7.12324029581338 -12.9526844832023,7.56491286455157 -12.6923079016319,7.99407643417515 -12.1378093408796,8.81325777619307 -11.5437789829254,9.57815672205313 -10.9167606273061,10.2870914718744 -10.2631582735684,10.9392638257133 -9.58911452127753,11.5346775835696 -8.90041537002401,12.074042545393 -8.20241741942866,12.5586719110907 -7.5000004691461,12.9903764805345 -6.77492512046731,13.382835052756 -6.00622477487631,13.7450044271215 -5.19477123231141,14.0717528039941 -4.34210609266349,14.3577849837486 -3.45050695577134,14.5977351667648 -2.52304242141776,14.7862815534194 -1.56360528932721,14.9182773440766 -0.576924159165011,14.9888965390782 0.431455369461366,14.9937887387319 0.94183773333624,14.9703973403876 1.45522269699859,14.9292391433008 1.9707160605117,14.8699741474956 2.48738842394136,14.7923207529919 3.00428038735549,14.6960591598054 3.5204067508238,14.5810351679468 4.03476311441739,14.4471637774223 4.54633067820837,14.2944299882329 5.05408324226938,14.1228926003744 5.55699340667314,13.9326838138375 6.05403937149197,13.7240104286075 6.54421173679732,13.4971532446645 7.02651970265931,13.2524668619836 7.49999846914624,12.9903764805345 7.96371463632417,12.7113771002822 8.41677340425644,12.416029321187 8.85832357300329,12.104956143205 9.28756294262151,11.7788383662877 9.70374371316402,11.4384097903835 10.1061758846797,11.0844520154368 10.4942308572129,10.7177882413894 10.8673450308037,10.3392784681805 11.2250220054872,9.9498116957472 11.5668329812936,9.55030092402477 11.8924189582485,9.14167635294744 12.2014905363722,8.72487858244859 12.4938271156805,8.30085321246133 12.7692758961841,7.87054484291878 13.0277504778891,7.43489087375459 13.2692288607971,6.99481630490329 13.701411430207,6.10501596788382 14.0668182043434,5.20812103136651 14.3672645830776,4.31063989489069 14.6052609662321,3.41851735803558 14.7838825535892,2.53707162042476 14.9066369449005,1.67095808172873 14.9773393398962,0.824159341665577 14.9999979382924,-3.59999974519016E-06" style=" stroke-width: 0.00199999985843898;stroke: #000000; fill: none; " xmlns="http://www.w3.org/2000/svg" />
  <polyline points="11.9999981506339,-3.59999974519016E-06 11.981871151917,-0.659334153331989 11.9253093559205,-1.33677310538251 11.8271059628713,-2.02966385633935 11.6842085729857,-2.73482060642799 11.4938113864621,-3.44851855591208 11.2534544034747,-4.16650350509273 10.9611288241656,-4.88401945430658 10.6153828486377,-5.59585980392216 10.2154204769473,-6.29644255433455 9.76119230909777,-6.97990950595841 9.2534661450349,-7.64024745921934 8.69387578464299,-8.27142941454396 8.08494042774375,-8.86756817234895 7.43005027409721,-9.42307733302973 6.73341852340516,-9.93283009694916 5.99999857531701,-10.3923078644271 5.23536922943787,-10.7977292357312 4.44559448533853,-11.1461536110695 3.63706434256671,-11.4355505905858 2.81632520065905,-11.664834774357 1.98991045915311,-11.8338631623931 1.16417791759889,-11.9433979546401 0.345164175569102,-11.995037750985 -0.461539567331991,-11.9911237512621 -1.25088431146176,-11.9346285552608 -2.0184340571342,-11.829031762735 -2.76040580461705,-11.6781947734114 -3.47368495413079,-11.4862345869984 -4.15581730584911,-11.2574088031948 -4.80498005990103,-10.9960100216967 -5.41994021637384,-10.7062746422044 -6.00000057531686,-10.3923078644271 -6.56193413554292,-10.0469442888721 -7.12033249601919,-9.65924071631396 -7.67129185702201,-9.2277485468552 -8.21052681885468,-8.75141758057015 -8.73340878184482,-8.22967981749902 -9.23502354634027,-7.66253205764203 -9.71024771270366,-7.05061290095398 -10.1538464813055,-6.39526774733965 -10.5605878525161,-5.69859879665024 -10.9253734266964,-4.96349224868146 -11.2433798041878,-4.19361950317345 -11.5102043853018,-3.39340915981275 -11.7220079703102,-2.56798621823661 -11.8756479594355,-1.7230800780395 -11.9687909528428,-0.864902938781724 -12.0000001506338,-3.59999974519016E-06 -11.9687909528428,0.864895538782248 -11.8756479594355,1.72307267804003 -11.7220079703102,2.56797881823714 -11.5102043853018,3.39340175981327 -11.2433798041878,4.19361210317397 -10.9253734266964,4.96348484868198 -10.5605878525161,5.69859139665076 -10.1538464813055,6.39526034734017 -9.71024771270366,7.05060550095451 -9.23502354634027,7.66252465764255 -8.73340878184482,8.22967241749954 -8.21052681885468,8.75141038057066 -7.67129185702201,9.22774134685571 -7.12033249601919,9.65923331631448 -6.56193413554292,10.0469368888726 -6.00000057531686,10.3923004644276 -5.41994021637384,10.7062672422049 -4.80498005990103,10.9960028216972 -4.15581730584911,11.2574016031953 -3.47368495413079,11.4862271869989 -2.76040580461705,11.6781873734119 -2.0184340571342,11.8290245627355 -1.25088431146176,11.9346211552614 -0.461539567331991,11.9911165512626 0.345164175569102,11.9950303509856 1.16417791759889,11.9433905546407 1.98991045915311,11.8338557623936 2.81632520065905,11.6648273743575 3.63706434256671,11.4355433905863 4.44559448533853,11.14614641107 5.23536922943787,10.7977218357317 5.99999857531701,10.3923004644276 6.73341852340516,9.93282269694969 7.43005027409721,9.42306993303025 8.08494042774375,8.86756077234948 8.69387578464299,8.27142201454448 9.2534661450349,7.64024005921987 9.76119230909777,6.97990210595893 10.2154204769473,6.29643515433507 10.6153828486377,5.59585240392268 10.9611288241656,4.88401205430711 11.2534544034747,4.16649610509326 11.4938113864621,3.4485111559126 11.6842085729857,2.73481320642851 11.8271059628713,2.02965665633986 11.9253093559205,1.33676570538303 11.981871151917,0.659326753332512 11.9999981506339,-3.59999974519016E-06" style=" stroke-width: 0.00199999985843898;stroke: #ffffff; fill: none; " xmlns="http://www.w3.org/2000/svg" />
</svg>