<?xml version="1.0" encoding="UTF-8"?>
<svg viewBox="-15 -15 30 30" xmlns="http://www.w3.org/2000/svg" xmlns:xlink="http://www.w3.org/1999/xlink" xmlns:gmsvgsym="http://www.intergraph.com/GeoMedia/svgsym">
  <!-- Creator: SVG Document for Symbols-->
  <polyline points="14.9999988717693,0 14.9066378787915,-1.67096173146083 14.6052620443167,-3.41852102858891 14.0668192276731,-5.20812475112603 13.7014123980144,-6.10501968366574 13.2692297162355,-6.99482004531049 12.7692768966968,-7.8705485508708 12.2014916536887,-8.72488220089748 11.566833987139,-9.55030471024158 10.8673461826084,-10.3392820794698 10.1061768112886,-11.0844555948498 9.28756401571801,-11.7788419711927 8.41677436692907,-12.4160329232662 7.49999943588465,-12.9903800229236 6.5442127934888,-13.4971569848061 5.55699443917138,-13.932687380619 4.54633165804591,-14.2944336391244 3.52040787806831,-14.5810389032815 2.48738952719575,-14.7923243159611 1.45522374768764,-14.9292427342341 0.431456538976402,-14.9937924436647 -0.57692309946365,-14.9889001583184 -1.5636041681072,-14.9182810207729 -2.52304123879991,-14.7862851735582 -3.45050588332601,-14.5977387591683 -4.34210495912119,-14.357788491502 -6.00622354823958,-13.7450079661639 -7.49999943588465,-12.9903800229236 -8.90041433055191,-12.0740462347031 -10.2631570851955,-10.9392674629131 -11.5437779888732,-9.57816042243212 -12.1378082299072,-8.81326133710716 -12.692306759629,-7.9940801130079 -13.2007334356732,-7.1232438927939 -13.6567154013763,-6.20436067619377 -14.0542233714776,-5.24201974857661 -14.3877540606767,-4.24175682381177 -14.6525086121916,-3.20997804427455 -14.8445584548894,-2.15384540942626 -14.9609871604179,-1.08112391868285 -14.9999988717693,0 -14.9609871604179,1.08112391868285 -14.8445584548894,2.15384540942626 -14.6525086121916,3.20997804427455 -14.3877540606767,4.24175682381177 -14.0542233714776,5.24201974857661 -13.6567154013763,6.20436067619377 -13.2007334356732,7.1232438927939 -12.692306759629,7.9940801130079 -12.1378082299072,8.81326133710716 -11.5437779888732,9.57816042243212 -10.9167596074632,10.287095083395 -10.2631570851955,10.9392674629131 -8.90041433055191,12.0740462347031 -7.49999943588465,12.9903800229236 -6.00622354823958,13.7450079661639 -4.34210495912119,14.357788491502 -2.52304123879991,14.7862851735582 -1.5636041681072,14.9182810207729 -0.57692309946365,14.9889001583184 0.431456538976402,14.9937924436647 1.45522374768764,14.9292427342341 2.48738952719575,14.7923243159611 3.52040787806831,14.5810389032815 4.54633165804591,14.2944336391244 5.55699443917138,13.932687380619 6.5442127934888,13.4971569848061 7.49999943588465,12.9903800229236 8.41677436692907,12.4160329232662 9.28756401571801,11.7788419711927 10.1061768112886,11.0844555948498 10.8673461826084,10.3392820794698 11.566833987139,9.55030471024158 12.2014916536887,8.72488220089748 12.7692768966968,7.8705485508708 13.2692297162355,6.99482004531049 13.7014123980144,6.10501968366574 14.0668192276731,5.20812475112603 14.3672654907892,4.31064353291614 14.6052620443167,3.41852102858891 14.9066378787915,1.67096173146083 14.9999988717693,0" style=" stroke-width: 0.00142857132112089;stroke: #ffffff; fill: none; " xmlns="http://www.w3.org/2000/svg" />
  <g id="ComplexString2d_1693" style=" fill-rule: evenodd; stroke-width: 0;stroke: #ffffff; fill: #ffffff; " xmlns="http://www.w3.org/2000/svg">
    <path d="M 14.9999988717693 0 L 14.9066378787915 -1.67096173146083 L 14.6052620443167 -3.41852102858891 L 14.0668192276731 -5.20812475112603 L 13.7014123980144 -6.10501968366574 L 13.2692297162355 -6.99482004531049 L 12.7692768966968 -7.8705485508708 L 12.2014916536887 -8.72488220089748 L 11.566833987139 -9.55030471024158 L 10.8673461826084 -10.3392820794698 L 10.1061768112886 -11.0844555948498 L 9.28756401571801 -11.7788419711927 L 8.41677436692907 -12.4160329232662 L 7.49999943588465 -12.9903800229236 L 6.5442127934888 -13.4971569848061 L 5.55699443917138 -13.932687380619 L 4.54633165804591 -14.2944336391244 L 3.52040787806831 -14.5810389032815 L 2.48738952719575 -14.7923243159611 L 1.45522374768764 -14.9292427342341 L 0.431456538976402 -14.9937924436647 L -0.57692309946365 -14.9889001583184 L -1.5636041681072 -14.9182810207729 L -2.52304123879991 -14.7862851735582 L -3.45050588332601 -14.5977387591683 L -4.34210495912119 -14.357788491502 L -6.00622354823958 -13.7450079661639 L -7.49999943588465 -12.9903800229236 L -8.90041433055191 -12.0740462347031 L -10.2631570851955 -10.9392674629131 L -11.5437779888732 -9.57816042243212 L -12.1378082299072 -8.81326133710716 L -12.692306759629 -7.9940801130079 L -13.2007334356732 -7.1232438927939 L -13.6567154013763 -6.20436067619377 L -14.0542233714776 -5.24201974857661 L -14.3877540606767 -4.24175682381177 L -14.6525086121916 -3.20997804427455 L -14.8445584548894 -2.15384540942626 L -14.9609871604179 -1.08112391868285 L -14.9999988717693 0 L -14.9609871604179 1.08112391868285 L -14.8445584548894 2.15384540942626 L -14.6525086121916 3.20997804427455 L -14.3877540606767 4.24175682381177 L -14.0542233714776 5.24201974857661 L -13.6567154013763 6.20436067619377 L -13.2007334356732 7.1232438927939 L -12.692306759629 7.9940801130079 L -12.1378082299072 8.81326133710716 L -11.5437779888732 9.57816042243212 L -10.9167596074632 10.287095083395 L -10.2631570851955 10.9392674629131 L -8.90041433055191 12.0740462347031 L -7.49999943588465 12.9903800229236 L -6.00622354823958 13.7450079661639 L -4.34210495912119 14.357788491502 L -2.52304123879991 14.7862851735582 L -1.5636041681072 14.9182810207729 L -0.57692309946365 14.9889001583184 L 0.431456538976402 14.9937924436647 L 1.45522374768764 14.9292427342341 L 2.48738952719575 14.7923243159611 L 3.52040787806831 14.5810389032815 L 4.54633165804591 14.2944336391244 L 5.55699443917138 13.932687380619 L 6.5442127934888 13.4971569848061 L 7.49999943588465 12.9903800229236 L 8.41677436692907 12.4160329232662 L 9.28756401571801 11.7788419711927 L 10.1061768112886 11.0844555948498 L 10.8673461826084 10.3392820794698 L 11.566833987139 9.55030471024158 L 12.2014916536887 8.72488220089748 L 12.7692768966968 7.8705485508708 L 13.2692297162355 6.99482004531049 L 13.7014123980144 6.10501968366574 L 14.0668192276731 5.20812475112603 L 14.3672654907892 4.31064353291614 L 14.6052620443167 3.41852102858891 L 14.9066378787915 1.67096173146083 L 14.9999988717693 0 " />
  </g>
</svg>