<?xml version="1.0" encoding="UTF-8"?>
<svg viewBox="-15 -15 30 30" xmlns="http://www.w3.org/2000/svg" xmlns:xlink="http://www.w3.org/1999/xlink" xmlns:gmsvgsym="http://www.intergraph.com/GeoMedia/svgsym">
  <!-- Creator: SVG Document for Symbols-->
  <polyline points="14.9999986159115,0 14.9773398487715,-0.824163154721574 14.9066377014492,-1.67096153812377 14.7838832512376,-2.53707530435907 14.6052618831041,-3.4185209153335 14.3672654435262,-4.31064329455354 14.0668191635568,-5.20812459635601 13.7014122741969,-6.105019282828 13.2692295448448,-6.9948201238007 12.7692768217459,-7.87054819684117 12.2014913356754,-8.72488211800958 11.5668335480831,-9.55030434953806 10.8673457664728,-10.3392821228909 10.1061766059386,-11.0844552849011 9.28756391224333,-11.7788416823667 8.41677430028564,-12.4160328543407 7.49999930795575,-12.9903800321134 6.54421278076402,-13.4971566007364 5.55699410262646,-13.9326873297797 4.54633158049828,-14.2944332964004 3.52040782900906,-14.5810385007239 2.48738930894372,-14.7923243273818 1.45522371187661,-14.9292424685942 0.431456729419146,-14.9937923087919 -0.576923023688904,-14.988900001551 -1.56360400956839,-14.9182809311441 -2.52304130565402,-14.7862850971699 -3.45050598930523,-14.5977383453368 -4.34210498395818,-14.3577882136314 -5.19476998220366,-14.0717562400244 -6.00622329194416,-13.7450078086358 -6.77492383639879,-13.3828386112849 -7.49999930795575,-12.9903800321134 -8.20241601237272,-12.5586754565633 -8.90041394796665,-12.0740458089736 -9.58911326903398,-11.5346809356653 -10.2631568991459,-10.9392672982979 -10.916759454221,-10.2870950507832 -11.5437778579028,-9.57816003927543 -12.1378082646286,-8.81326118677769 -12.6923065211559,-7.99407987775028 -13.2007330896267,-7.12324365041227 -13.656715047552,-6.20436035058462 -14.0542233185652,-5.24201951630536 -14.3877535954818,-4.2417568393714 -14.6525081864369,-3.20997801149937 -14.8445580148698,-2.15384518587454 -14.9609870810497,-1.08112374639577 -14.9999986159115,0 -14.9609870810497,1.08112374639577 -14.8445580148698,2.15384518587454 -14.6525081864369,3.20997801149937 -14.3877535954818,4.2417568393714 -14.0542233185652,5.24201951630536 -13.656715047552,6.20436035058462 -13.2007330896267,7.12324365041227 -12.6923065211559,7.99407987775028 -12.1378082646286,8.81326118677769 -11.5437778579028,9.57816003927543 -10.916759454221,10.2870950507832 -10.2631568991459,10.9392672982979 -9.58911326903398,11.5346809356653 -8.90041394796665,12.0740458089736 -8.20241601237272,12.5586754565633 -7.49999930795575,12.9903800321134 -6.77492383639879,13.3828386112849 -6.00622329194416,13.7450078086358 -5.19476998220366,14.0717562400244 -4.34210498395818,14.3577882136314 -3.45050598930523,14.5977383453368 -2.52304130565402,14.7862850971699 -1.56360400956839,14.9182809311441 -0.576923023688904,14.988900001551 0.431456729419146,14.9937923087919 1.45522371187661,14.9292424685942 2.48738930894372,14.7923243273818 3.52040782900906,14.5810385007239 4.54633158049828,14.2944332964004 5.55699410262646,13.9326873297797 6.54421278076402,13.4971566007364 7.49999930795575,12.9903800321134 8.41677430028564,12.4160328543407 9.28756391224333,11.7788416823667 10.1061766059386,11.0844552849011 10.8673457664728,10.3392821228909 11.5668335480831,9.55030434953806 12.2014913356754,8.72488211800958 12.7692768217459,7.87054819684117 13.2692295448448,6.9948201238007 13.7014122741969,6.105019282828 14.0668191635568,5.20812459635601 14.3672654435262,4.31064329455354 14.6052618831041,3.4185209153335 14.7838832512376,2.53707530435907 14.9066377014492,1.67096153812377 14.9773398487715,0.824163154721574 14.9999986159115,0" style=" stroke-width: 0.00461538418951123;stroke: #ffffff; fill: none; " xmlns="http://www.w3.org/2000/svg" />
  <g id="ComplexString2d_1738" style=" fill-rule: evenodd; stroke-width: 0;stroke: #ffffff; fill: #ffffff; " xmlns="http://www.w3.org/2000/svg">
    <path d="M 14.9999986159115 0 L 14.9773398487715 -0.824163154721574 L 14.9066377014492 -1.67096153812377 L 14.7838832512376 -2.53707530435907 L 14.6052618831041 -3.4185209153335 L 14.3672654435262 -4.31064329455354 L 14.0668191635568 -5.20812459635601 L 13.7014122741969 -6.105019282828 L 13.2692295448448 -6.9948201238007 L 12.7692768217459 -7.87054819684117 L 12.2014913356754 -8.72488211800958 L 11.5668335480831 -9.55030434953806 L 10.8673457664728 -10.3392821228909 L 10.1061766059386 -11.0844552849011 L 9.28756391224333 -11.7788416823667 L 8.41677430028564 -12.4160328543407 L 7.49999930795575 -12.9903800321134 L 6.54421278076402 -13.4971566007364 L 5.55699410262646 -13.9326873297797 L 4.54633158049828 -14.2944332964004 L 3.52040782900906 -14.5810385007239 L 2.48738930894372 -14.7923243273818 L 1.45522371187661 -14.9292424685942 L 0.431456729419146 -14.9937923087919 L -0.576923023688904 -14.988900001551 L -1.56360400956839 -14.9182809311441 L -2.52304130565402 -14.7862850971699 L -3.45050598930523 -14.5977383453368 L -4.34210498395818 -14.3577882136314 L -5.19476998220366 -14.0717562400244 L -6.00622329194416 -13.7450078086358 L -6.77492383639879 -13.3828386112849 L -7.49999930795575 -12.9903800321134 L -8.20241601237272 -12.5586754565633 L -8.90041394796665 -12.0740458089736 L -9.58911326903398 -11.5346809356653 L -10.2631568991459 -10.9392672982979 L -10.916759454221 -10.2870950507832 L -11.5437778579028 -9.57816003927543 L -12.1378082646286 -8.81326118677769 L -12.6923065211559 -7.99407987775028 L -13.2007330896267 -7.12324365041227 L -13.656715047552 -6.20436035058462 L -14.0542233185652 -5.24201951630536 L -14.3877535954818 -4.2417568393714 L -14.6525081864369 -3.20997801149937 L -14.8445580148698 -2.15384518587454 L -14.9609870810497 -1.08112374639577 L -14.9999986159115 0 L -14.9609870810497 1.08112374639577 L -14.8445580148698 2.15384518587454 L -14.6525081864369 3.20997801149937 L -14.3877535954818 4.2417568393714 L -14.0542233185652 5.24201951630536 L -13.656715047552 6.20436035058462 L -13.2007330896267 7.12324365041227 L -12.6923065211559 7.99407987775028 L -12.1378082646286 8.81326118677769 L -11.5437778579028 9.57816003927543 L -10.916759454221 10.2870950507832 L -10.2631568991459 10.9392672982979 L -9.58911326903398 11.5346809356653 L -8.90041394796665 12.0740458089736 L -8.20241601237272 12.5586754565633 L -7.49999930795575 12.9903800321134 L -6.77492383639879 13.3828386112849 L -6.00622329194416 13.7450078086358 L -5.19476998220366 14.0717562400244 L -4.34210498395818 14.3577882136314 L -3.45050598930523 14.5977383453368 L -2.52304130565402 14.7862850971699 L -1.56360400956839 14.9182809311441 L -0.576923023688904 14.988900001551 L 0.431456729419146 14.9937923087919 L 1.45522371187661 14.9292424685942 L 2.48738930894372 14.7923243273818 L 3.52040782900906 14.5810385007239 L 4.54633158049828 14.2944332964004 L 5.55699410262646 13.9326873297797 L 6.54421278076402 13.4971566007364 L 7.49999930795575 12.9903800321134 L 8.41677430028564 12.4160328543407 L 9.28756391224333 11.7788416823667 L 10.1061766059386 11.0844552849011 L 10.8673457664728 10.3392821228909 L 11.5668335480831 9.55030434953806 L 12.2014913356754 8.72488211800958 L 12.7692768217459 7.87054819684117 L 13.2692295448448 6.9948201238007 L 13.7014122741969 6.105019282828 L 14.0668191635568 5.20812459635601 L 14.3672654435262 4.31064329455354 L 14.6052618831041 3.4185209153335 L 14.7838832512376 2.53707530435907 L 14.9066377014492 1.67096153812377 L 14.9773398487715 0.824163154721574 L 14.9999986159115 0 " />
  </g>
</svg>