<?xml version="1.0" encoding="UTF-8"?>
<svg viewBox="-15.0000014967683 -14.9999995010772 30 30" xmlns="http://www.w3.org/2000/svg" xmlns:xlink="http://www.w3.org/1999/xlink" xmlns:gmsvgsym="http://www.intergraph.com/GeoMedia/svgsym">
  <!-- Creator: SVG Document for Symbols-->
  <polyline points="-15.0000002166482,-14.9999983952198 -15.0000002166482,14.999999680934" style="  stroke-width: 0.00107142850271978; stroke-linecap: round;stroke: #000000; fill: none; " xmlns="http://www.w3.org/2000/svg" />
  <polyline points="-15.0000002166482,14.999999680934 14.9999978595055,14.999999680934" style="  stroke-width: 0.00107142850271978; stroke-linecap: round;stroke: #000000; fill: none; " xmlns="http://www.w3.org/2000/svg" />
  <polyline points="14.9999978595055,14.999999680934 14.9999978595055,-14.9999983952198" style="  stroke-width: 0.00107142850271978; stroke-linecap: round;stroke: #000000; fill: none; " xmlns="http://www.w3.org/2000/svg" />
  <polyline points="14.9999978595055,-14.9999983952198 -15.0000002166482,-14.9999983952198" style="  stroke-width: 0.00107142850271978; stroke-linecap: round;stroke: #000000; fill: none; " xmlns="http://www.w3.org/2000/svg" />
  <g id="ComplexString2d_1605" style=" fill-rule: evenodd; stroke-width: 0;stroke: #000000; fill: #000000; " xmlns="http://www.w3.org/2000/svg">
    <path d="M -15.0000002166482 14.999999680934 L 14.9999978595055 14.999999680934 L 14.9999978595055 -14.9999983952198 L -15.0000002166482 -14.9999983952198 L -15.0000002166482 14.999999680934 " />
  </g>
  <polyline points="-12.8571502826368,-12.8571396754946 -12.8571502826368,12.85714438978" style="  stroke-width: 0.00107142850271978; stroke-linecap: round;stroke: #ffffff; fill: none; " xmlns="http://www.w3.org/2000/svg" />
  <polyline points="-12.8571502826368,12.85714438978 12.8571337826379,12.85714438978" style="  stroke-width: 0.00107142850271978; stroke-linecap: round;stroke: #ffffff; fill: none; " xmlns="http://www.w3.org/2000/svg" />
  <polyline points="12.8571337826379,12.85714438978 12.8571337826379,-12.8571396754946" style="  stroke-width: 0.00107142850271978; stroke-linecap: round;stroke: #ffffff; fill: none; " xmlns="http://www.w3.org/2000/svg" />
  <polyline points="12.8571337826379,-12.8571396754946 -12.8571502826368,-12.8571396754946" style="  stroke-width: 0.00107142850271978; stroke-linecap: round;stroke: #ffffff; fill: none; " xmlns="http://www.w3.org/2000/svg" />
  <g id="ComplexString2d_1606" style=" fill-rule: evenodd; stroke-width: 0;stroke: #ffffff; fill: #ffffff; " xmlns="http://www.w3.org/2000/svg">
    <path d="M -12.8571502826368 12.85714438978 L 12.8571337826379 12.85714438978 L 12.8571337826379 -12.8571396754946 L -12.8571502826368 -12.8571396754946 L -12.8571502826368 12.85714438978 " />
  </g>
  <polyline points="5.35713104931391,-9.96428507529393E-06 5.34903876411857,-0.294353873980755 5.32378787288072,-0.596782033158007 5.27994705426358,-0.906108263321469 5.21615366549739,-1.22091035027663 5.13115488523393,-1.53952554413012 5.02385260640075,-1.86005452357517 4.89335025762677,-2.18037414589079 4.73899930323931,-2.49815994694033 4.56044467183255,-2.81092021259786 4.3576641848365,-3.11603937160254 4.13100069937203,-3.41083306698366 3.88118364396378,-3.69261072748519 3.60933748282536,-3.95874413898996 3.31697582300256,-4.20673933737219 3.00597945008906,-4.43430753706436 2.67855979251447,-4.63943145248156 2.33720749297621,-4.8204231551606 1.98462940844355,-4.9759698237571 1.62367853873354,-5.1051649226149 1.2572770979445,-5.20752384462224 0.88834194303222,-5.28298294692604 0.519711395243266,-5.33188240807592 0.154080204404826,-5.35493590659754 -0.206055415357463,-5.3531886209953 -0.558441499902431,-5.32796751546983 -0.90109762078565,-5.28082616135006 -1.23233499240113,-5.21348816566833 -1.5507632219809,-5.12779167116389 -1.85528645245237,-5.02563728485773 -2.14509125529628,-4.90894147091265 -2.41962713054793,-4.77959530063596 -2.67858272108442,-4.63943145248156 -2.92944581213988,-4.48525128379743 -3.17873079615368,-4.31216940203972 -3.4246948875233,-4.11953898582133 -3.66542472922858,-3.90689117802948 -3.89885417854488,-3.67397258582328 -4.12278927132718,-3.42078160205996 -4.33494304343643,-3.14760333386411 -4.53297817359393,-2.8550385311972 -4.71455916194947,-2.54402565828476 -4.87740986579186,-2.2158531079013 -5.01937692811633,-1.87215984422745 -5.13849502762036,-1.51492308142212 -5.23305020012813,-1.14643074791002 -5.3016395171582,-0.769240450669986 -5.34322122877735,-0.386125689524164 -5.35715397788387,-9.96428507529393E-06 -5.34322122877735,0.386105760954014 -5.3016395171582,0.769220522099835 -5.23305020012813,1.14641081933987 -5.13849502762036,1.51490315285197 -5.01937692811633,1.8721399156573 -4.87740986579186,2.21583317933115 -4.71455916194947,2.54400572971461 -4.53297817359393,2.8550187097699 -4.33494304343643,3.14758340529396 -4.12278927132718,3.42076167348981 -3.89885417854488,3.67395265725313 -3.66542472922858,3.90687135660218 -3.4246948875233,4.11951905725118 -3.17873079615368,4.31214947346957 -2.92944581213988,4.48523135522728 -2.67858272108442,4.63941152391141 -2.41962713054793,4.77957537206581 -2.14509125529628,4.9089215423425 -1.85528645245237,5.02561735628758 -1.5507632219809,5.12777174259374 -1.23233499240113,5.21346823709818 -0.90109762078565,5.28080623277991 -0.558441499902431,5.32794758689968 -0.206055415357463,5.35316869242515 0.154080204404826,5.35491597802739 0.519711395243266,5.33186247950577 0.88834194303222,5.28296312549874 1.2572770979445,5.20750402319494 1.62367853873354,5.10514499404475 1.98462940844355,4.97594989518695 2.33720749297621,4.8204033337333 2.67855979251447,4.63941152391141 3.00597945008906,4.43428760849421 3.31697582300256,4.20671940880204 3.60933748282536,3.95872421041981 3.88118364396378,3.69259079891504 4.13100069937203,3.41081313841351 4.3576641848365,3.11601944303239 4.56044467183255,2.81090028402771 4.73899930323931,2.49814012551303 4.89335025762677,2.18035421732064 5.02385260640075,1.86003459500502 5.13115488523393,1.53950561555997 5.21615366549739,1.22089042170648 5.27994705426358,0.906088334751318 5.32378787288072,0.596762104587856 5.34903876411857,0.294334052553455 5.35713104931391,-9.96428507529393E-06" style=" stroke-width: 0.00107142850271978;stroke: #000000; fill: none; " xmlns="http://www.w3.org/2000/svg" />
  <g id="ComplexString2d_1607" style=" fill-rule: evenodd; stroke-width: 0;stroke: #000000; fill: #000000; " xmlns="http://www.w3.org/2000/svg">
    <path d="M 5.35713104931391 -9.96428507529393E-06 L 5.34903876411857 -0.294353873980755 L 5.32378787288072 -0.596782033158007 L 5.27994705426358 -0.906108263321469 L 5.21615366549739 -1.22091035027663 L 5.13115488523393 -1.53952554413012 L 5.02385260640075 -1.86005452357517 L 4.89335025762677 -2.18037414589079 L 4.73899930323931 -2.49815994694033 L 4.56044467183255 -2.81092021259786 L 4.3576641848365 -3.11603937160254 L 4.13100069937203 -3.41083306698366 L 3.88118364396378 -3.69261072748519 L 3.60933748282536 -3.95874413898996 L 3.31697582300256 -4.20673933737219 L 3.00597945008906 -4.43430753706436 L 2.67855979251447 -4.63943145248156 L 2.33720749297621 -4.8204231551606 L 1.98462940844355 -4.9759698237571 L 1.62367853873354 -5.1051649226149 L 1.2572770979445 -5.20752384462224 L 0.88834194303222 -5.28298294692604 L 0.519711395243266 -5.33188240807592 L 0.154080204404826 -5.35493590659754 L -0.206055415357463 -5.3531886209953 L -0.558441499902431 -5.32796751546983 L -0.90109762078565 -5.28082616135006 L -1.23233499240113 -5.21348816566833 L -1.5507632219809 -5.12779167116389 L -1.85528645245237 -5.02563728485773 L -2.14509125529628 -4.90894147091265 L -2.41962713054793 -4.77959530063596 L -2.67858272108442 -4.63943145248156 L -2.92944581213988 -4.48525128379743 L -3.17873079615368 -4.31216940203972 L -3.4246948875233 -4.11953898582133 L -3.66542472922858 -3.90689117802948 L -3.89885417854488 -3.67397258582328 L -4.12278927132718 -3.42078160205996 L -4.33494304343643 -3.14760333386411 L -4.53297817359393 -2.8550385311972 L -4.71455916194947 -2.54402565828476 L -4.87740986579186 -2.2158531079013 L -5.01937692811633 -1.87215984422745 L -5.13849502762036 -1.51492308142212 L -5.23305020012813 -1.14643074791002 L -5.3016395171582 -0.769240450669986 L -5.34322122877735 -0.386125689524164 L -5.35715397788387 -9.96428507529393E-06 L -5.34322122877735 0.386105760954014 L -5.3016395171582 0.769220522099835 L -5.23305020012813 1.14641081933987 L -5.13849502762036 1.51490315285197 L -5.01937692811633 1.8721399156573 L -4.87740986579186 2.21583317933115 L -4.71455916194947 2.54400572971461 L -4.53297817359393 2.8550187097699 L -4.33494304343643 3.14758340529396 L -4.12278927132718 3.42076167348981 L -3.89885417854488 3.67395265725313 L -3.66542472922858 3.90687135660218 L -3.4246948875233 4.11951905725118 L -3.17873079615368 4.31214947346957 L -2.92944581213988 4.48523135522728 L -2.67858272108442 4.63941152391141 L -2.41962713054793 4.77957537206581 L -2.14509125529628 4.9089215423425 L -1.85528645245237 5.02561735628758 L -1.5507632219809 5.12777174259374 L -1.23233499240113 5.21346823709818 L -0.90109762078565 5.28080623277991 L -0.558441499902431 5.32794758689968 L -0.206055415357463 5.35316869242515 L 0.154080204404826 5.35491597802739 L 0.519711395243266 5.33186247950577 L 0.88834194303222 5.28296312549874 L 1.2572770979445 5.20750402319494 L 1.62367853873354 5.10514499404475 L 1.98462940844355 4.97594989518695 L 2.33720749297621 4.8204033337333 L 2.67855979251447 4.63941152391141 L 3.00597945008906 4.43428760849421 L 3.31697582300256 4.20671940880204 L 3.60933748282536 3.95872421041981 L 3.88118364396378 3.69259079891504 L 4.13100069937203 3.41081313841351 L 4.3576641848365 3.11601944303239 L 4.56044467183255 2.81090028402771 L 4.73899930323931 2.49814012551303 L 4.89335025762677 2.18035421732064 L 5.02385260640075 1.86003459500502 L 5.13115488523393 1.53950561555997 L 5.21615366549739 1.22089042170648 L 5.27994705426358 0.906088334751318 L 5.32378787288072 0.596762104587856 L 5.34903876411857 0.294334052553455 L 5.35713104931391 -9.96428507529393E-06 " />
  </g>
</svg>