<?xml version="1.0" encoding="UTF-8"?>
<svg viewBox="-15.0000006984918 -15.7496318599053 30 31.4992707047284" xmlns="http://www.w3.org/2000/svg" xmlns:xlink="http://www.w3.org/1999/xlink" xmlns:gmsvgsym="http://www.intergraph.com/GeoMedia/svgsym">
  <!-- Creator: SVG Document for Symbols-->
  <path id="LineString2d_1592" style=" stroke-width: 0.000749999842140857;stroke: #000000; fill: none; " d="M -5.17499891077191E-06 13.6472471025424 L -0.573248879343205 14.2946139662853 L -0.779082586019553 14.5487720377904 L -0.983302443035582 14.7670788418415 L -1.20161067208631 14.971296223858 L -1.45576904359133 15.1771261055352 L -1.77879150060192 15.3945989847617 L -2.21899595794817 15.6144554384866 L -2.80534748453354 15.7496370600337 L -3.36976631573529 15.5625646744085 L -3.55685122635786 14.9981531182052 L -3.42167560480948 14.4117993416203 L -3.20181960108453 13.9715898592751 L -2.98434529685828 13.6485632022654 L -2.77851294018165 13.3944009307612 L -2.57429263316571 13.1760891767112 L -2.3559824541154 12.9718663196958 L -2.10182040761115 12.76603006302 L -1.77879150060192 12.548549683795 L -1.33857639325791 12.3286852800719 L -1.21748216874569 12.2844694893784 L -1.36945328675898 12.001326623974 L -2.16669539395633 9.6855189614026 L -2.55028168821951 7.75622664247793 L -2.74142552298777 6.34759163896588 L -2.84512425116137 5.30714145795869 L -2.90585286337928 4.50515680175954 L -2.94348080545939 3.85791623799003 L -2.96760605038154 3.31265255275653 L -2.98319299710081 2.8349834282958 L -2.99293069505123 2.40125799458585 L -2.99828666892391 1.99403665529735 L -2.99988994358646 1.50035315920731 L -13.124987487467 2.70424735581299 L -13.610271285325 2.64036191925952 L -14.0624857901434 2.45305275868415 L -14.4508131334087 2.15508382140032 L -14.748789195691 1.76676052813418 L -14.9361065312647 1.31454609831578 L -14.9999990178167 0.82925817545865 L -14.9361119312636 0.343969427601693 L -14.7487984956891 -0.108248977215874 L -14.4508239334064 -0.496577670480877 L -14.0624950901415 -0.794551932763582 L -10.1018840737665 -2.66179796474769 L -10.0655260314191 -3.02172836398993 L -9.99089144712814 -3.40392055854654 L -9.83508085492298 -3.87065963530781 L -9.51605207207181 -4.38086540292026 L -8.98466218391817 -4.64768699675995 L -8.45327207076458 -4.38086622792009 L -8.13424298791347 -3.8706606103076 L -8.04319203207777 -3.6293680360946 L -2.99999734356385 -5.99963236220397 L -2.99999734356385 -12.7496654414644 L -2.8977674150811 -13.5261154530381 L -2.59806290316257 -14.2496490757495 L -2.12130885350924 -14.8709598199767 L -1.49999488428272 -15.3477081696312 L -0.776461261571286 -15.6474060815512 L -1.37249971111777E-05 -15.7496303100351 L 0.776435836576638 -15.6474140315495 L 1.49997523428686 -15.3477218946284 L 2.1212971535117 -14.8709756449734 L 2.59805915316336 -14.2496628007466 L 2.89776944008067 -13.5261233280364 L 3.000001393563 -12.7496654414644 L 2.99999554356423 -5.99963236220397 L 8.04319488207717 -3.62936586109506 L 8.13424868791227 -3.87066556030656 L 8.45327934576305 -4.38087020291925 L 8.98467028391646 -4.64768699675995 L 9.51605897207036 -4.380861877921 L 9.83508610492188 -3.87065573530863 L 9.99089564712726 -3.40391770854714 L 10.0655298564183 -3.02172686399025 L 10.1018878237657 -2.66179541474822 L 14.0624922401421 -0.794552532763455 L 14.4508219834069 -0.496577745480861 L 14.7487971456894 -0.108248152216048 L 14.9361105812638 0.343971227601314 L 14.9999972178171 0.829260875458082 L 14.9361039062653 1.3145493233151 L 14.7487855206918 1.76676382813349 L 14.4508085584097 2.15508667139972 L 14.0624806151445 2.45305470868374 L 13.6102661103261 2.64036289425932 L 13.124982762468 2.70424735581299 L 2.96933270001811 1.49668040998035 L 2.99828486892429 1.99403673029734 L 2.99292889505161 2.40125799458585 L 2.98319119710119 2.83498365329575 L 2.9676043253819 3.31265255275653 L 2.94347900545977 3.85791668798993 L 2.90585106337966 4.50515680175954 L 2.84512237616177 5.30714213295855 L 2.74142372298815 6.34759163896588 L 2.55027973821992 7.75622769247771 L 2.1666936689567 9.6855189614026 L 1.36945111175943 12.0013275239738 L 1.21748029374608 12.2844694143784 L 1.33857459325829 12.3286852800719 L 1.7787897006023 12.548549683795 L 2.10181860761153 12.76603006302 L 2.35598065411578 12.9718663196958 L 2.57429083316609 13.1760891767112 L 2.77851121518201 13.3944009307612 L 2.98434357185864 13.6485632022654 L 3.2018178010849 13.9715898592751 L 3.42167380480985 14.4117993416203 L 3.55684942635824 14.9981531182052 L 3.36976451573567 15.5625646744085 L 2.80534575953391 15.7496370600337 L 2.21899423294853 15.6144554384866 L 1.7787897006023 15.3945989847617 L 1.45576724359171 15.1771261055352 L 1.20160894708667 14.971296223858 L 0.98330064303596 14.7670788418415 L 0.779080786019932 14.5487720377904 L 0.573247079343584 14.2946139662853 L -5.17499891077191E-06 13.6472471025424 " xmlns="http://www.w3.org/2000/svg" />
  <g id="ComplexString2d_1593" style=" fill-rule: evenodd; stroke-width: 0;stroke: #000000; fill: #000000; " xmlns="http://www.w3.org/2000/svg">
    <path d="M -5.17499891077191E-06 13.6472471025424 L -0.573248879343205 14.2946139662853 L -0.779082586019553 14.5487720377904 L -0.983302443035582 14.7670788418415 L -1.20161067208631 14.971296223858 L -1.45576904359133 15.1771261055352 L -1.77879150060192 15.3945989847617 L -2.21899595794817 15.6144554384866 L -2.80534748453354 15.7496370600337 L -3.36976631573529 15.5625646744085 L -3.55685122635786 14.9981531182052 L -3.42167560480948 14.4117993416203 L -3.20181960108453 13.9715898592751 L -2.98434529685828 13.6485632022654 L -2.77851294018165 13.3944009307612 L -2.57429263316571 13.1760891767112 L -2.3559824541154 12.9718663196958 L -2.10182040761115 12.76603006302 L -1.77879150060192 12.548549683795 L -1.33857639325791 12.3286852800719 L -1.21748216874569 12.2844694893784 L -1.36945328675898 12.001326623974 L -2.16669539395633 9.6855189614026 L -2.55028168821951 7.75622664247793 L -2.74142552298777 6.34759163896588 L -2.84512425116137 5.30714145795869 L -2.90585286337928 4.50515680175954 L -2.94348080545939 3.85791623799003 L -2.96760605038154 3.31265255275653 L -2.98319299710081 2.8349834282958 L -2.99293069505123 2.40125799458585 L -2.99828666892391 1.99403665529735 L -2.99988994358646 1.50035315920731 L -13.124987487467 2.70424735581299 L -13.610271285325 2.64036191925952 L -14.0624857901434 2.45305275868415 L -14.4508131334087 2.15508382140032 L -14.748789195691 1.76676052813418 L -14.9361065312647 1.31454609831578 L -14.9999990178167 0.82925817545865 L -14.9361119312636 0.343969427601693 L -14.7487984956891 -0.108248977215874 L -14.4508239334064 -0.496577670480877 L -14.0624950901415 -0.794551932763582 L -10.1018840737665 -2.66179796474769 L -10.0655260314191 -3.02172836398993 L -9.99089144712814 -3.40392055854654 L -9.83508085492298 -3.87065963530781 L -9.51605207207181 -4.38086540292026 L -8.98466218391817 -4.64768699675995 L -8.45327207076458 -4.38086622792009 L -8.13424298791347 -3.8706606103076 L -8.04319203207777 -3.6293680360946 L -2.99999734356385 -5.99963236220397 L -2.99999734356385 -12.7496654414644 L -2.8977674150811 -13.5261154530381 L -2.59806290316257 -14.2496490757495 L -2.12130885350924 -14.8709598199767 L -1.49999488428272 -15.3477081696312 L -0.776461261571286 -15.6474060815512 L -1.37249971111777E-05 -15.7496303100351 L 0.776435836576638 -15.6474140315495 L 1.49997523428686 -15.3477218946284 L 2.1212971535117 -14.8709756449734 L 2.59805915316336 -14.2496628007466 L 2.89776944008067 -13.5261233280364 L 3.000001393563 -12.7496654414644 L 2.99999554356423 -5.99963236220397 L 8.04319488207717 -3.62936586109506 L 8.13424868791227 -3.87066556030656 L 8.45327934576305 -4.38087020291925 L 8.98467028391646 -4.64768699675995 L 9.51605897207036 -4.380861877921 L 9.83508610492188 -3.87065573530863 L 9.99089564712726 -3.40391770854714 L 10.0655298564183 -3.02172686399025 L 10.1018878237657 -2.66179541474822 L 14.0624922401421 -0.794552532763455 L 14.4508219834069 -0.496577745480861 L 14.7487971456894 -0.108248152216048 L 14.9361105812638 0.343971227601314 L 14.9999972178171 0.829260875458082 L 14.9361039062653 1.3145493233151 L 14.7487855206918 1.76676382813349 L 14.4508085584097 2.15508667139972 L 14.0624806151445 2.45305470868374 L 13.6102661103261 2.64036289425932 L 13.124982762468 2.70424735581299 L 2.96933270001811 1.49668040998035 L 2.99828486892429 1.99403673029734 L 2.99292889505161 2.40125799458585 L 2.98319119710119 2.83498365329575 L 2.9676043253819 3.31265255275653 L 2.94347900545977 3.85791668798993 L 2.90585106337966 4.50515680175954 L 2.84512237616177 5.30714213295855 L 2.74142372298815 6.34759163896588 L 2.55027973821992 7.75622769247771 L 2.1666936689567 9.6855189614026 L 1.36945111175943 12.0013275239738 L 1.21748029374608 12.2844694143784 L 1.33857459325829 12.3286852800719 L 1.7787897006023 12.548549683795 L 2.10181860761153 12.76603006302 L 2.35598065411578 12.9718663196958 L 2.57429083316609 13.1760891767112 L 2.77851121518201 13.3944009307612 L 2.98434357185864 13.6485632022654 L 3.2018178010849 13.9715898592751 L 3.42167380480985 14.4117993416203 L 3.55684942635824 14.9981531182052 L 3.36976451573567 15.5625646744085 L 2.80534575953391 15.7496370600337 L 2.21899423294853 15.6144554384866 L 1.7787897006023 15.3945989847617 L 1.45576724359171 15.1771261055352 L 1.20160894708667 14.971296223858 L 0.98330064303596 14.7670788418415 L 0.779080786019932 14.5487720377904 L 0.573247079343584 14.2946139662853 L -5.17499891077191E-06 13.6472471025424 " />
  </g>
</svg>