<?xml version="1.0" encoding="UTF-8"?>
<svg viewBox="-15 -32.2319768754182 30 37.5027062860638" xmlns="http://www.w3.org/2000/svg" xmlns:xlink="http://www.w3.org/1999/xlink" xmlns:gmsvgsym="http://www.intergraph.com/GeoMedia/svgsym">
  <!-- Creator: SVG Document for Symbols-->
  <path id="LineString2d_1716" style=" stroke-width: 0.00132536033494338;stroke: #ffffff; fill: none; " d="M 0.801263952710406 5.07466105343788 L 0.411163488380713 5.22131403000383 L 1.32536033494338E-07 5.27072876473186 L -0.413250930908249 5.22296874238201 L -0.801263687638339 5.07466105343788 L -14.9999984565325 -6.81706722353655 L -9.88844719099578 -12.9087766640016 L -3.97608100483013 -7.94771237740775 L -3.97608100483013 -20.3037298864288 L -4.68586275563727 -20.9193210614882 L -5.73898360743663 -22.2917782084698 L -6.40100175742101 -23.8900373933238 L -6.62680246993308 -25.6051775879319 L -6.40099844402018 -27.3203188428282 L -5.73897777585116 -28.9185753769615 L -4.68585599629956 -30.2910293430784 L -3.31340176511068 -31.3441503274138 L -1.71514509844129 -32.0061702003666 L -4.37368910531314E-06 -32.2319734310633 L 1.71513688120721 -32.006171923335 L 3.31339487323693 -31.3441533757425 L 4.68585095993029 -30.2910329215513 L 5.73897446245032 -28.9185785578264 L 6.40099645597967 -27.3203205657966 L 6.62680087950068 -25.6051775879319 L 6.40099976938051 -23.8900355378194 L 5.73898029403579 -22.291775160141 L 4.685857719268 -20.9193174830153 L 3.97608100483013 -20.303730946717 L 3.97608100483013 -7.94771224487172 L 9.88844745606785 -12.9087766640016 L 14.9999987216046 -6.81706722353655 L 0.801263952710406 5.07466105343788 " xmlns="http://www.w3.org/2000/svg" />
  <g id="ComplexString2d_1717" style=" fill-rule: evenodd; stroke-width: 0;stroke: #ffffff; fill: #ffffff; " xmlns="http://www.w3.org/2000/svg">
    <path d="M 0.801263952710406 5.07466105343788 L 0.411163488380713 5.22131403000383 L 1.32536033494338E-07 5.27072876473186 L -0.413250930908249 5.22296874238201 L -0.801263687638339 5.07466105343788 L -14.9999984565325 -6.81706722353655 L -9.88844719099578 -12.9087766640016 L -3.97608100483013 -7.94771237740775 L -3.97608100483013 -20.3037298864288 L -4.68586275563727 -20.9193210614882 L -5.73898360743663 -22.2917782084698 L -6.40100175742101 -23.8900373933238 L -6.62680246993308 -25.6051775879319 L -6.40099844402018 -27.3203188428282 L -5.73897777585116 -28.9185753769615 L -4.68585599629956 -30.2910293430784 L -3.31340176511068 -31.3441503274138 L -1.71514509844129 -32.0061702003666 L -4.37368910531314E-06 -32.2319734310633 L 1.71513688120721 -32.006171923335 L 3.31339487323693 -31.3441533757425 L 4.68585095993029 -30.2910329215513 L 5.73897446245032 -28.9185785578264 L 6.40099645597967 -27.3203205657966 L 6.62680087950068 -25.6051775879319 L 6.40099976938051 -23.8900355378194 L 5.73898029403579 -22.291775160141 L 4.685857719268 -20.9193174830153 L 3.97608100483013 -20.303730946717 L 3.97608100483013 -7.94771224487172 L 9.88844745606785 -12.9087766640016 L 14.9999987216046 -6.81706722353655 L 0.801263952710406 5.07466105343788 " />
  </g>
</svg>