<?xml version="1.0" encoding="UTF-8"?>
<svg viewBox="-15 -15 30 30" xmlns="http://www.w3.org/2000/svg" xmlns:xlink="http://www.w3.org/1999/xlink" xmlns:gmsvgsym="http://www.intergraph.com/GeoMedia/svgsym">
  <!-- Creator: SVG Document for Symbols-->
  <polyline points="14.9999975413088,0 14.977338897964,-0.824163041379739 14.9066365860236,-1.67096160846099 14.7838823414387,-2.53707505472923 14.6052607824818,-3.41852079260195 14.3672642038454,-4.31064317578346 14.0668179589747,-5.20812426396897 13.7014112247519,-6.10501902872117 13.2692285602981,-6.99481941228328 12.769275730482,-7.8705478569755 12.2014905294316,-8.72488136399815 11.5668328687542,-9.5503037875244 10.867345130468,-10.3392811582009 10.1061759905275,-11.0844545654693 9.28756321294388,-11.7788409810622 8.41677364979506,-12.4160318766185 7.4999987706544,-12.9903789589463 6.54421216261415,-13.4971557288202 5.55699394207889,-13.9326862162548 4.54633134303352,-14.2944324216658 3.52040757001906,-14.5810375511582 2.48738923934396,-14.7923230165258 1.45522361441144,-14.9292414940831 0.4314564881023,-14.9937910717379 -0.576923023082006,-14.9888987784222 -1.56360397899945,-14.9182796723505 -2.52304105702958,-14.7862838410451 -3.45050564030041,-14.597737401362 -4.34210452356772,-14.3577872053988 -5.19476967792266,-14.0717551640478 -6.00622304491509,-13.7450067764296 -6.77492333068,-13.3828374828526 -7.4999987706544,-12.9903789589463 -8.20241556728402,-12.5586745297081 -8.90041345287326,-12.0740451679686 -9.58911266351607,-11.5346801093186 -10.2631561706788,-10.9392665010321 -10.9167586517803,-10.2870942255786 -11.5437769019452,-9.57815957707613 -12.1378071575172,-8.8132606436293 -12.6923056254513,-7.99407936613887 -13.2007322185843,-7.12324330299767 -13.6567141438431,-6.20436004184967 -14.0542221963335,-5.24201922900139 -14.3877527004871,-4.24175639295724 -14.6525072453257,-3.20997776796129 -14.8445571550228,-2.15384523519255 -14.9609858124092,-1.08112385220176 -14.9999975413088,0 -14.9609858124092,1.08112385220176 -14.8445571550228,2.15384523519255 -14.6525072453257,3.20997776796129 -14.3877527004871,4.24175639295724 -14.0542221963335,5.24201922900139 -13.6567141438431,6.20436004184967 -13.2007322185843,7.12324330299767 -12.6923056254513,7.99407936613887 -12.1378071575172,8.8132606436293 -11.5437769019452,9.57815957707613 -10.9167586517803,10.2870942255786 -10.2631561706788,10.9392665010321 -9.58911266351607,11.5346801093186 -8.90041345287326,12.0740451679686 -8.20241556728402,12.5586745297081 -7.4999987706544,12.9903789589463 -6.77492333068,13.3828374828526 -6.00622304491509,13.7450067764296 -5.19476967792266,14.0717551640478 -4.34210452356772,14.3577872053988 -3.45050564030041,14.597737401362 -2.52304105702958,14.7862838410451 -1.56360397899945,14.9182796723505 -0.576923023082006,14.9888987784222 0.4314564881023,14.9937910717379 1.45522361441144,14.9292414940831 2.48738923934396,14.7923230165258 3.52040757001906,14.5810375511582 4.54633134303352,14.2944324216658 5.55699394207889,13.9326862162548 6.54421216261415,13.4971557288202 7.4999987706544,12.9903789589463 8.41677364979506,12.4160318766185 9.28756321294388,11.7788409810622 10.1061759905275,11.0844545654693 10.867345130468,10.3392811582009 11.5668328687542,9.5503037875244 12.2014905294316,8.72488136399815 12.769275730482,7.8705478569755 13.2692285602981,6.99481941228328 13.7014112247519,6.10501902872117 14.0668179589747,5.20812426396897 14.3672642038454,4.31064317578346 14.6052607824818,3.41852079260195 14.7838823414387,2.53707505472923 14.9066365860236,1.67096160846099 14.977338897964,0.824163041379739 14.9999975413088,0" style=" stroke-width: 0.000882352796547577;stroke: #ffffff; fill: none; " xmlns="http://www.w3.org/2000/svg" />
  <g id="ComplexString2d_1706" style=" fill-rule: evenodd; stroke-width: 0;stroke: #ffffff; fill: #ffffff; " xmlns="http://www.w3.org/2000/svg">
    <path d="M 14.9999975413088 0 L 14.977338897964 -0.824163041379739 L 14.9066365860236 -1.67096160846099 L 14.7838823414387 -2.53707505472923 L 14.6052607824818 -3.41852079260195 L 14.3672642038454 -4.31064317578346 L 14.0668179589747 -5.20812426396897 L 13.7014112247519 -6.10501902872117 L 13.2692285602981 -6.99481941228328 L 12.769275730482 -7.8705478569755 L 12.2014905294316 -8.72488136399815 L 11.5668328687542 -9.5503037875244 L 10.867345130468 -10.3392811582009 L 10.1061759905275 -11.0844545654693 L 9.28756321294388 -11.7788409810622 L 8.41677364979506 -12.4160318766185 L 7.4999987706544 -12.9903789589463 L 6.54421216261415 -13.4971557288202 L 5.55699394207889 -13.9326862162548 L 4.54633134303352 -14.2944324216658 L 3.52040757001906 -14.5810375511582 L 2.48738923934396 -14.7923230165258 L 1.45522361441144 -14.9292414940831 L 0.4314564881023 -14.9937910717379 L -0.576923023082006 -14.9888987784222 L -1.56360397899945 -14.9182796723505 L -2.52304105702958 -14.7862838410451 L -3.45050564030041 -14.597737401362 L -4.34210452356772 -14.3577872053988 L -5.19476967792266 -14.0717551640478 L -6.00622304491509 -13.7450067764296 L -6.77492333068 -13.3828374828526 L -7.4999987706544 -12.9903789589463 L -8.20241556728402 -12.5586745297081 L -8.90041345287326 -12.0740451679686 L -9.58911266351607 -11.5346801093186 L -10.2631561706788 -10.9392665010321 L -10.9167586517803 -10.2870942255786 L -11.5437769019452 -9.57815957707613 L -12.1378071575172 -8.8132606436293 L -12.6923056254513 -7.99407936613887 L -13.2007322185843 -7.12324330299767 L -13.6567141438431 -6.20436004184967 L -14.0542221963335 -5.24201922900139 L -14.3877527004871 -4.24175639295724 L -14.6525072453257 -3.20997776796129 L -14.8445571550228 -2.15384523519255 L -14.9609858124092 -1.08112385220176 L -14.9999975413088 0 L -14.9609858124092 1.08112385220176 L -14.8445571550228 2.15384523519255 L -14.6525072453257 3.20997776796129 L -14.3877527004871 4.24175639295724 L -14.0542221963335 5.24201922900139 L -13.6567141438431 6.20436004184967 L -13.2007322185843 7.12324330299767 L -12.6923056254513 7.99407936613887 L -12.1378071575172 8.8132606436293 L -11.5437769019452 9.57815957707613 L -10.9167586517803 10.2870942255786 L -10.2631561706788 10.9392665010321 L -9.58911266351607 11.5346801093186 L -8.90041345287326 12.0740451679686 L -8.20241556728402 12.5586745297081 L -7.4999987706544 12.9903789589463 L -6.77492333068 13.3828374828526 L -6.00622304491509 13.7450067764296 L -5.19476967792266 14.0717551640478 L -4.34210452356772 14.3577872053988 L -3.45050564030041 14.597737401362 L -2.52304105702958 14.7862838410451 L -1.56360397899945 14.9182796723505 L -0.576923023082006 14.9888987784222 L 0.4314564881023 14.9937910717379 L 1.45522361441144 14.9292414940831 L 2.48738923934396 14.7923230165258 L 3.52040757001906 14.5810375511582 L 4.54633134303352 14.2944324216658 L 5.55699394207889 13.9326862162548 L 6.54421216261415 13.4971557288202 L 7.4999987706544 12.9903789589463 L 8.41677364979506 12.4160318766185 L 9.28756321294388 11.7788409810622 L 10.1061759905275 11.0844545654693 L 10.867345130468 10.3392811582009 L 11.5668328687542 9.5503037875244 L 12.2014905294316 8.72488136399815 L 12.769275730482 7.8705478569755 L 13.2692285602981 6.99481941228328 L 13.7014112247519 6.10501902872117 L 14.0668179589747 5.20812426396897 L 14.3672642038454 4.31064317578346 L 14.6052607824818 3.41852079260195 L 14.7838823414387 2.53707505472923 L 14.9066365860236 1.67096160846099 L 14.977338897964 0.824163041379739 L 14.9999975413088 0 " />
  </g>
</svg>