<?xml version="1.0" encoding="UTF-8"?>
<svg viewBox="-15 -68.333318673627 30 83.333318673627" xmlns="http://www.w3.org/2000/svg" xmlns:xlink="http://www.w3.org/1999/xlink" xmlns:gmsvgsym="http://www.intergraph.com/GeoMedia/svgsym">
  <!-- Creator: SVG Document for Symbols-->
  <path id="LineString2d_1658" style=" stroke-width: 0.00333333313189172;stroke: #000000; fill: none; " d="M -14.9999990935127 14.9999990935127 L -14.9999990935127 -14.9999990935127 L -8.33333282972931 -14.9999990935127 L -8.33333282972931 -36.6996464488158 L 4.99999969783758 -34.0329849433021 L 4.99999969783758 -54.0081677361521 L 2.95857248787277 -48.3993920751044 L -0.173736322834015 -49.5394593395406 L 6.66666626378344 -68.3333105371148 L 13.5070688504009 -49.5394593395406 L 10.3747600396941 -48.3993920751044 L 8.33333282972931 -54.0081677361521 L 8.33333282972931 -29.9669731890213 L -4.99999969783758 -32.633634694535 L -4.99999969783758 -14.9999990935127 L 14.9999990935127 -14.9999990935127 L 14.9999990935127 14.9999990935127 L -14.9999990935127 14.9999990935127 " xmlns="http://www.w3.org/2000/svg" />
  <g id="ComplexString2d_1659" style=" fill-rule: evenodd; stroke-width: 0;stroke: #000000; fill: #000000; " xmlns="http://www.w3.org/2000/svg">
    <path d="M -14.9999990935127 14.9999990935127 L -14.9999990935127 -14.9999990935127 L -8.33333282972931 -14.9999990935127 L -8.33333282972931 -36.6996464488158 L 4.99999969783758 -34.0329849433021 L 4.99999969783758 -54.0081677361521 L 2.95857248787277 -48.3993920751044 L -0.173736322834015 -49.5394593395406 L 6.66666626378344 -68.3333105371148 L 13.5070688504009 -49.5394593395406 L 10.3747600396941 -48.3993920751044 L 8.33333282972931 -54.0081677361521 L 8.33333282972931 -29.9669731890213 L -4.99999969783758 -32.633634694535 L -4.99999969783758 -14.9999990935127 L 14.9999990935127 -14.9999990935127 L 14.9999990935127 14.9999990935127 L -14.9999990935127 14.9999990935127 " />
  </g>
  <polyline points="-11.666689294953,-11.666655294955 -11.666689294953,11.666676628287" style="  stroke-width: 0.00333333313189172; stroke-linecap: round;stroke: #ffffff; fill: none; " xmlns="http://www.w3.org/2000/svg" />
  <polyline points="-11.666689294953,11.666676628287 11.6666426282891,11.666676628287" style="  stroke-width: 0.00333333313189172; stroke-linecap: round;stroke: #ffffff; fill: none; " xmlns="http://www.w3.org/2000/svg" />
  <polyline points="11.6666426282891,11.666676628287 11.6666426282891,-11.666655294955" style="  stroke-width: 0.00333333313189172; stroke-linecap: round;stroke: #ffffff; fill: none; " xmlns="http://www.w3.org/2000/svg" />
  <polyline points="11.6666426282891,-11.666655294955 -11.666689294953,-11.666655294955" style="  stroke-width: 0.00333333313189172; stroke-linecap: round;stroke: #ffffff; fill: none; " xmlns="http://www.w3.org/2000/svg" />
  <g id="ComplexString2d_1660" style=" fill-rule: evenodd; stroke-width: 0;stroke: #ffffff; fill: #ffffff; " xmlns="http://www.w3.org/2000/svg">
    <path d="M -11.666689294953 11.666676628287 L 11.6666426282891 11.666676628287 L 11.6666426282891 -11.666655294955 L -11.666689294953 -11.666655294955 L -11.666689294953 11.666676628287 " />
  </g>
</svg>