<?xml version="1.0" encoding="UTF-8"?>
<svg viewBox="-15.0000007902533 -45.5470125658182 30 48.9411253365491" xmlns="http://www.w3.org/2000/svg" xmlns:xlink="http://www.w3.org/1999/xlink" xmlns:gmsvgsym="http://www.intergraph.com/GeoMedia/svgsym">
  <!-- Creator: SVG Document for Symbols-->
  <path id="LineString2d_1724" style=" stroke-width: 0.00169705610719628;stroke: #ffffff; fill: none; " d="M -5.09116832158885 3.39411221439257 L -5.09116832158885 -18.2558433156034 L -7.79999994608697 -15.5470118608109 L -14.9999992566615 -22.7470110016798 L -7.20000032880818 -30.5470099295331 L -14.9999999354839 -38.3470095362089 L -7.80000062490941 -45.5470088467834 L -1.01823366431777E-06 -37.7470092401076 L 7.79999858844208 -45.5470088467834 L 14.9999978990166 -38.3470095362089 L 7.19999829234085 -30.5470099295331 L 14.9999970504885 -22.7470110016798 L 7.79999773991403 -15.5470118608109 L 5.09116832158885 -18.2558412791361 L 5.09116832158885 3.39411221439257 L -5.09116832158885 3.39411221439257 " xmlns="http://www.w3.org/2000/svg" />
  <g id="ComplexString2d_1725" style=" fill-rule: evenodd; stroke-width: 0;stroke: #ffffff; fill: #ffffff; " xmlns="http://www.w3.org/2000/svg">
    <path d="M -5.09116832158885 3.39411221439257 L -5.09116832158885 -18.2558433156034 L -7.79999994608697 -15.5470118608109 L -14.9999992566615 -22.7470110016798 L -7.20000032880818 -30.5470099295331 L -14.9999999354839 -38.3470095362089 L -7.80000062490941 -45.5470088467834 L -1.01823366431777E-06 -37.7470092401076 L 7.79999858844208 -45.5470088467834 L 14.9999978990166 -38.3470095362089 L 7.19999829234085 -30.5470099295331 L 14.9999970504885 -22.7470110016798 L 7.79999773991403 -15.5470118608109 L 5.09116832158885 -18.2558412791361 L 5.09116832158885 3.39411221439257 L -5.09116832158885 3.39411221439257 " />
  </g>
</svg>