<?xml version="1.0" encoding="UTF-8"?>
<svg viewBox="-15 -32.0833405338361 30 36.6666855949345" xmlns="http://www.w3.org/2000/svg" xmlns:xlink="http://www.w3.org/1999/xlink" xmlns:gmsvgsym="http://www.intergraph.com/GeoMedia/svgsym">
  <!-- Creator: SVG Document for Symbols-->
  <path id="LineString2d_1714" style=" stroke-width: 0.00166666656594586;stroke: #ffffff; fill: none; " d="M 0 4.58334472301708 L -3.8822854320505 4.07223208723822 L -7.49999954675637 2.57372584446335 L -10.6066010256834 0.189946655187718 L -12.990380214959 -2.9166548237393 L -14.4888864577339 -6.53436893844517 L -14.9999990935127 -10.4166723704946 L -14.9999990935127 -13.7500055023863 L -5.83333298081051 -13.7500055023863 L -5.83333298081051 -10.4166723704946 L -5.63456782615572 -8.9068764617353 L -5.05181602803953 -7.49998704675713 L -4.58337922301499 -6.80827075522593 L -4.58337922301499 -20.5754360899086 L -5.77355415108976 -22.083337165449 L -6.43955694417489 -23.6912100682813 L -6.66671809711364 -25.4166702973407 L -6.43955711084155 -27.1421296930669 L -5.77355465108973 -28.7500027625658 L -4.71409721511538 -30.1307148457926 L -3.33338529855524 -31.1901724484336 L -1.72551222905634 -31.8561754081854 L -5.18333302009163E-05 -32.0833365611242 L 1.72540856239594 -31.8561754081854 L 3.33328179856149 -31.1901724484336 L 4.71399354845498 -30.1307148457926 L 5.77345098442933 -28.7500027625658 L 6.4394536108478 -27.1421296930669 L 6.66661443045324 -25.4166702973407 L 6.43945327751449 -23.6912100682813 L 5.77345048442936 -22.083337165449 L 4.58328688968724 -20.5754469232412 L 4.58328688968724 -6.80815358856635 L 5.05181602803953 -7.49998704675713 L 5.63456782615572 -8.9068764617353 L 5.83333298081051 -10.4166510371625 L 5.83333298081051 -13.7500055023863 L 14.9999990935127 -13.7500055023863 L 14.9999990935127 -10.4166723704946 L 14.4888864577339 -6.53436893844517 L 12.990380214959 -2.9166548237393 L 10.6066010256834 0.189946655187718 L 7.49999954675637 2.57372584446335 L 3.8822854320505 4.07223208723822 L 0 4.58334472301708 " xmlns="http://www.w3.org/2000/svg" />
  <g id="ComplexString2d_1715" style=" fill-rule: evenodd; stroke-width: 0;stroke: #ffffff; fill: #ffffff; " xmlns="http://www.w3.org/2000/svg">
    <path d="M 0 4.58334472301708 L -3.8822854320505 4.07223208723822 L -7.49999954675637 2.57372584446335 L -10.6066010256834 0.189946655187718 L -12.990380214959 -2.9166548237393 L -14.4888864577339 -6.53436893844517 L -14.9999990935127 -10.4166723704946 L -14.9999990935127 -13.7500055023863 L -5.83333298081051 -13.7500055023863 L -5.83333298081051 -10.4166723704946 L -5.63456782615572 -8.9068764617353 L -5.05181602803953 -7.49998704675713 L -4.58337922301499 -6.80827075522593 L -4.58337922301499 -20.5754360899086 L -5.77355415108976 -22.083337165449 L -6.43955694417489 -23.6912100682813 L -6.66671809711364 -25.4166702973407 L -6.43955711084155 -27.1421296930669 L -5.77355465108973 -28.7500027625658 L -4.71409721511538 -30.1307148457926 L -3.33338529855524 -31.1901724484336 L -1.72551222905634 -31.8561754081854 L -5.18333302009163E-05 -32.0833365611242 L 1.72540856239594 -31.8561754081854 L 3.33328179856149 -31.1901724484336 L 4.71399354845498 -30.1307148457926 L 5.77345098442933 -28.7500027625658 L 6.4394536108478 -27.1421296930669 L 6.66661443045324 -25.4166702973407 L 6.43945327751449 -23.6912100682813 L 5.77345048442936 -22.083337165449 L 4.58328688968724 -20.5754469232412 L 4.58328688968724 -6.80815358856635 L 5.05181602803953 -7.49998704675713 L 5.63456782615572 -8.9068764617353 L 5.83333298081051 -10.4166510371625 L 5.83333298081051 -13.7500055023863 L 14.9999990935127 -13.7500055023863 L 14.9999990935127 -10.4166723704946 L 14.4888864577339 -6.53436893844517 L 12.990380214959 -2.9166548237393 L 10.6066010256834 0.189946655187718 L 7.49999954675637 2.57372584446335 L 3.8822854320505 4.07223208723822 L 0 4.58334472301708 " />
  </g>
</svg>