<?xml version="1.0" encoding="UTF-8"?>
<svg viewBox="-15.0000093132281 -43.3333388522833 30 48.3333385935825" xmlns="http://www.w3.org/2000/svg" xmlns:xlink="http://www.w3.org/1999/xlink" xmlns:gmsvgsym="http://www.intergraph.com/GeoMedia/svgsym">
  <!-- Creator: SVG Document for Symbols-->
  <path id="LineString2d_1720" style=" stroke-width: 0.00166666708334739;stroke: #ffffff; fill: none; " d="M -4.99999925004167 4.99999925004167 L -4.99999925004167 -5.95925582319718 L -7.50000970839854 -7.1110142778131 L -10.6066113184083 -9.49479404044466 L -12.9903902477063 -12.6013961504545 L -14.4888961223453 -16.2191107215801 L -15.0000079167942 -20.1013936921834 L -13.9874073303023 -23.8493056291927 L -12.3281669154783 -27.2190588049926 L -10.7232208475616 -30.8246053730761 L -10.554175805299 -31.3386860016005 L -9.72422293113713 -34.1666667086194 L -8.93177423301833 -36.2285532241082 L -7.93857715137741 -38.7499996878243 L -6.48182295384333 -40.6484794957935 L -4.58334347920757 -42.1052345266611 L -2.37251709314913 -43.020988922274 L -8.16666870840221E-06 -43.33333566703 L 2.37250075981172 -43.020988922274 L 4.58332714587015 -42.1052345266611 L 6.48180662050592 -40.6484794957935 L 7.93856081803999 -38.7499996878243 L 8.85431454698609 -36.5391734684326 L 9.72421309780134 -34.1666667086194 L 10.5541664719633 -31.3386841682667 L 10.7232088475586 -30.8246115397443 L 12.328155082142 -27.2190624716601 L 13.9873964969662 -23.8493076291932 L 14.999989750123 -20.1013936921834 L 14.4888777890074 -16.2191107215801 L 12.9903720810351 -12.6013961504545 L 10.6065929850704 -9.49479404044466 L 7.49999137506063 -7.1110142778131 L 4.99999925004167 -5.95926215653209 L 4.99999925004167 -4.99999925004167 L 10.0000045000848 -4.99999925004167 L 10.0000045000848 4.99999925004167 L -4.99999925004167 4.99999925004167 " xmlns="http://www.w3.org/2000/svg" />
  <g id="ComplexString2d_1721" style=" fill-rule: evenodd; stroke-width: 0;stroke: #ffffff; fill: #ffffff; " xmlns="http://www.w3.org/2000/svg">
    <path d="M -4.99999925004167 4.99999925004167 L -4.99999925004167 -5.95925582319718 L -7.50000970839854 -7.1110142778131 L -10.6066113184083 -9.49479404044466 L -12.9903902477063 -12.6013961504545 L -14.4888961223453 -16.2191107215801 L -15.0000079167942 -20.1013936921834 L -13.9874073303023 -23.8493056291927 L -12.3281669154783 -27.2190588049926 L -10.7232208475616 -30.8246053730761 L -10.554175805299 -31.3386860016005 L -9.72422293113713 -34.1666667086194 L -8.93177423301833 -36.2285532241082 L -7.93857715137741 -38.7499996878243 L -6.48182295384333 -40.6484794957935 L -4.58334347920757 -42.1052345266611 L -2.37251709314913 -43.020988922274 L -8.16666870840221E-06 -43.33333566703 L 2.37250075981172 -43.020988922274 L 4.58332714587015 -42.1052345266611 L 6.48180662050592 -40.6484794957935 L 7.93856081803999 -38.7499996878243 L 8.85431454698609 -36.5391734684326 L 9.72421309780134 -34.1666667086194 L 10.5541664719633 -31.3386841682667 L 10.7232088475586 -30.8246115397443 L 12.328155082142 -27.2190624716601 L 13.9873964969662 -23.8493076291932 L 14.999989750123 -20.1013936921834 L 14.4888777890074 -16.2191107215801 L 12.9903720810351 -12.6013961504545 L 10.6065929850704 -9.49479404044466 L 7.49999137506063 -7.1110142778131 L 4.99999925004167 -5.95926215653209 L 4.99999925004167 -4.99999925004167 L 10.0000045000848 -4.99999925004167 L 10.0000045000848 4.99999925004167 L -4.99999925004167 4.99999925004167 " />
  </g>
</svg>