<?xml version="1.0" encoding="UTF-8"?>
<svg viewBox="-14.9999993015081 -12.7500017811544 30 31.4999736668548" xmlns="http://www.w3.org/2000/svg" xmlns:xlink="http://www.w3.org/1999/xlink" xmlns:gmsvgsym="http://www.intergraph.com/GeoMedia/svgsym">
  <!-- Creator: SVG Document for Symbols-->
  <path id="LineString2d_1596" style=" stroke-width: 0.00149999996367842;stroke: #000000; fill: none; " d="M 7.4999998183921E-07 18.7499710459809 L -0.53334283708543 18.3011155568497 L -0.874208828831569 17.512565575944 L -1.19911557096415 16.3269014046541 L -1.3500032673105 15.5999750222562 L -1.4432000650538 15.0832034347695 L -1.51329221335656 14.6554566951271 L -1.57467476187022 14.2499726549456 L -1.63614956038164 13.8115675155614 L -1.70651755867772 13.2647138788031 L -1.80000175641406 12.4499701485316 L -1.94855830281686 10.8749695866693 L -2.06424310001562 9.26644582561869 L -2.20860099652008 6.00735915453548 L -2.24772639557268 3.70766061022127 L -3.42654861702823 3.65084541159702 L -6.35293949616746 3.3970589177423 L -7.91047660845266 3.18614527284945 L -8.94331703344306 3.01057582710075 L -9.74999841390976 2.84975348099497 L -10.4695683464858 2.68547168497295 L -11.1915610790032 2.49685988954007 L -11.9999986594274 2.25000024551762 L -12.9945011853461 1.87321465464126 L -14.2158281557724 1.19661552102469 L -14.7656231424595 0.660320084010754 L -14.9999982867842 0 L -14.7656246424595 -0.660318134010801 L -14.2158298057724 -1.19661432102472 L -12.9945028353461 -1.87321390464127 L -11.9999998594274 -2.24999994551763 L -11.1915619790032 -2.49685958954008 L -10.4695687964858 -2.68547153497295 L -9.74999841390976 -2.84975348099497 L -8.94331658344307 -3.01057597710075 L -7.91047555845268 -3.18614542284944 L -6.35293769616751 -3.3970590677423 L -3.4265456170283 -3.65084556159701 L -2.03523400071806 -3.71531976003581 L -1.94855545281692 -4.87500303195479 L -1.79999830641414 -6.45000239381715 L -1.70651380867781 -7.26474477408866 L -1.63614551038174 -7.81159736084696 L -1.57467041187032 -8.24999980023131 L -1.51328801335666 -8.65548429041275 L -1.4431955650539 -9.08322953005517 L -1.34999876731061 -9.59999916754191 L -1.19911092096426 -10.3269220999399 L -0.874204628831671 -11.51257832123 L -0.533339387085514 -12.3011217021359 L 7.4999998183921E-07 -12.7499996912666 L 0.53334118708547 -12.3011230521358 L 0.874206578831624 -11.5125804212299 L 1.19911317096421 -10.3269235999399 L 1.35000116731055 -9.60000036754188 L 1.44319811505384 -9.08323028005515 L 1.5132905633566 -8.65548459041275 L 1.57467296187026 -8.24999980023131 L 1.63614821038167 -7.81159691084697 L 1.70651650867775 -7.26474402408868 L 1.80000115641408 -6.45000089381718 L 1.94855845281685 -4.87500048195485 L 2.035236550718 -3.71532186003576 L 3.42654711702826 -3.65084541159702 L 6.35293919616747 -3.3970589177423 L 7.91047705845265 -3.18614527284945 L 8.94331808344304 -3.01057567710076 L 9.74999976390973 -2.84975318099497 L 10.4695699964858 -2.68547123497296 L 11.1915630290032 -2.49685928954008 L 12.0000009094273 -2.24999949551764 L 12.9945035853461 -1.87321360464128 L 14.2158301057724 -1.19661402102473 L 14.7656246424595 -0.660317984010805 L 14.9999996367842 1.64999996004626E-06 L 14.7656225424595 0.660320834010736 L 14.2158286057724 1.1966152210247 L 12.9945020853461 1.87321420464127 L 11.9999997094274 2.24999994551763 L 11.1915622790032 2.49685958954008 L 10.4695696964858 2.68547138497296 L 9.74999976390973 2.84975318099497 L 8.94331853344302 3.01057552710076 L 7.91047810845262 3.18614512284945 L 6.35294099616743 3.3970587677423 L 3.42655026702819 3.65084526159702 L 2.24773329557252 3.70765836022133 L 2.20860369652002 6.00735375453561 L 2.06424595001555 9.26644207561879 L 1.94856115281679 10.8749670366693 L 1.80000460641399 12.4499687985316 L 1.70652040867765 13.2647131288031 L 1.63615226038158 13.8115672155614 L 1.57467746187015 14.2499726549456 L 1.51329491335649 14.6554569951271 L 1.44320261505373 15.0832040347695 L 1.35000581731044 15.5999762222561 L 1.1991178209641 16.3269029046541 L 0.874210778831522 17.5125676759439 L 0.533344337085394 18.3011178068497 L 7.4999998183921E-07 18.7499710459809 " xmlns="http://www.w3.org/2000/svg" />
  <g id="ComplexString2d_1597" style=" fill-rule: evenodd; stroke-width: 0;stroke: #000000; fill: #000000; " xmlns="http://www.w3.org/2000/svg">
    <path d="M 7.4999998183921E-07 18.7499710459809 L -0.53334283708543 18.3011155568497 L -0.874208828831569 17.512565575944 L -1.19911557096415 16.3269014046541 L -1.3500032673105 15.5999750222562 L -1.4432000650538 15.0832034347695 L -1.51329221335656 14.6554566951271 L -1.57467476187022 14.2499726549456 L -1.63614956038164 13.8115675155614 L -1.70651755867772 13.2647138788031 L -1.80000175641406 12.4499701485316 L -1.94855830281686 10.8749695866693 L -2.06424310001562 9.26644582561869 L -2.20860099652008 6.00735915453548 L -2.24772639557268 3.70766061022127 L -3.42654861702823 3.65084541159702 L -6.35293949616746 3.3970589177423 L -7.91047660845266 3.18614527284945 L -8.94331703344306 3.01057582710075 L -9.74999841390976 2.84975348099497 L -10.4695683464858 2.68547168497295 L -11.1915610790032 2.49685988954007 L -11.9999986594274 2.25000024551762 L -12.9945011853461 1.87321465464126 L -14.2158281557724 1.19661552102469 L -14.7656231424595 0.660320084010754 L -14.9999982867842 0 L -14.7656246424595 -0.660318134010801 L -14.2158298057724 -1.19661432102472 L -12.9945028353461 -1.87321390464127 L -11.9999998594274 -2.24999994551763 L -11.1915619790032 -2.49685958954008 L -10.4695687964858 -2.68547153497295 L -9.74999841390976 -2.84975348099497 L -8.94331658344307 -3.01057597710075 L -7.91047555845268 -3.18614542284944 L -6.35293769616751 -3.3970590677423 L -3.4265456170283 -3.65084556159701 L -2.03523400071806 -3.71531976003581 L -1.94855545281692 -4.87500303195479 L -1.79999830641414 -6.45000239381715 L -1.70651380867781 -7.26474477408866 L -1.63614551038174 -7.81159736084696 L -1.57467041187032 -8.24999980023131 L -1.51328801335666 -8.65548429041275 L -1.4431955650539 -9.08322953005517 L -1.34999876731061 -9.59999916754191 L -1.19911092096426 -10.3269220999399 L -0.874204628831671 -11.51257832123 L -0.533339387085514 -12.3011217021359 L 7.4999998183921E-07 -12.7499996912666 L 0.53334118708547 -12.3011230521358 L 0.874206578831624 -11.5125804212299 L 1.19911317096421 -10.3269235999399 L 1.35000116731055 -9.60000036754188 L 1.44319811505384 -9.08323028005515 L 1.5132905633566 -8.65548459041275 L 1.57467296187026 -8.24999980023131 L 1.63614821038167 -7.81159691084697 L 1.70651650867775 -7.26474402408868 L 1.80000115641408 -6.45000089381718 L 1.94855845281685 -4.87500048195485 L 2.035236550718 -3.71532186003576 L 3.42654711702826 -3.65084541159702 L 6.35293919616747 -3.3970589177423 L 7.91047705845265 -3.18614527284945 L 8.94331808344304 -3.01057567710076 L 9.74999976390973 -2.84975318099497 L 10.4695699964858 -2.68547123497296 L 11.1915630290032 -2.49685928954008 L 12.0000009094273 -2.24999949551764 L 12.9945035853461 -1.87321360464128 L 14.2158301057724 -1.19661402102473 L 14.7656246424595 -0.660317984010805 L 14.9999996367842 1.64999996004626E-06 L 14.7656225424595 0.660320834010736 L 14.2158286057724 1.1966152210247 L 12.9945020853461 1.87321420464127 L 11.9999997094274 2.24999994551763 L 11.1915622790032 2.49685958954008 L 10.4695696964858 2.68547138497296 L 9.74999976390973 2.84975318099497 L 8.94331853344302 3.01057552710076 L 7.91047810845262 3.18614512284945 L 6.35294099616743 3.3970587677423 L 3.42655026702819 3.65084526159702 L 2.24773329557252 3.70765836022133 L 2.20860369652002 6.00735375453561 L 2.06424595001555 9.26644207561879 L 1.94856115281679 10.8749670366693 L 1.80000460641399 12.4499687985316 L 1.70652040867765 13.2647131288031 L 1.63615226038158 13.8115672155614 L 1.57467746187015 14.2499726549456 L 1.51329491335649 14.6554569951271 L 1.44320261505373 15.0832040347695 L 1.35000581731044 15.5999762222561 L 1.1991178209641 16.3269029046541 L 0.874210778831522 17.5125676759439 L 0.533344337085394 18.3011178068497 L 7.4999998183921E-07 18.7499710459809 " />
  </g>
</svg>