<?xml version="1.0" encoding="UTF-8"?>
<svg viewBox="-14.9999980950208 -17.111715812661 30 31.3163088868762" xmlns="http://www.w3.org/2000/svg" xmlns:xlink="http://www.w3.org/1999/xlink" xmlns:gmsvgsym="http://www.intergraph.com/GeoMedia/svgsym">
  <!-- Creator: SVG Document for Symbols-->
  <path id="LineString2d_1704" style=" stroke-width: 0.000681818618462508;stroke: #ffffff; fill: none; " d="M 3.27272936862004E-06 13.0275956157463 L -0.402982689892837 13.3741456104081 L -0.955856112141025 13.7389887986032 L -1.61708019468729 14.0360230115546 L -2.40306215258445 14.2045917558715 L -3.26513459102899 14.1257809554002 L -4.02766396572503 13.6818508301933 L -4.47160002275395 12.9193248645903 L -4.55041573231933 12.0572519488727 L -4.38184937436754 11.2712675364286 L -4.08481536596179 10.6100399084255 L -3.71997095049313 10.0571630089023 L -3.30450027533012 9.58384745578572 L -2.83118649494192 9.16837378062079 L -2.6742985990146 9.05296875216866 L -3.15138454090944 7.63184895570389 L -3.51743516169602 6.11610821227916 L -3.73501657376488 4.89129831426074 L -3.86977700097607 3.89350626617256 L -3.95628546546798 3.05949284569733 L -4.01304154726976 2.34065836262036 L -4.05026952565643 1.70140363505261 L -4.060849850614 1.46752928073138 L -11.5205690597204 2.36418103677545 L -11.9318126639946 2.39186648632371 L -12.7259170589116 2.2873206466441 L -13.4659045555352 1.9808077912589 L -14.1013462124792 1.49321625172706 L -14.588937752011 0.857774594783062 L -14.8954506073962 0.117787098159458 L -14.9999964470758 -0.676316819484549 L -14.89545074376 -1.47042128258345 L -14.5889379565566 -2.21040884738892 L -14.1013464170248 -2.84585064069664 L -13.4659047600808 -3.3334423165922 L -10.4090899615531 -4.78074544800689 L -10.3803877840809 -4.88730381170262 L -10.1228653009788 -5.56489822291444 L -9.68628538502449 -6.23987008699221 L -9.02097645895316 -6.79371946441086 L -8.16787736716434 -7.01899894959148 L -7.31477936628532 -6.79371537349915 L -6.85106559204506 -6.45299063256792 L -4.0909085744094 -7.75024403152543 L -4.0909085744094 -13.011181718871 L -3.95152541696504 -14.0796090849221 L -3.54284163251207 -15.066259057693 L -2.89271960253023 -15.9135146230123 L -2.04546403721095 -16.5636366529941 L -1.05881406444009 -16.9723204374471 L -8.1818234215501E-06 -17.1117149130805 L 1.05879770079325 -16.9723204374471 L 2.0454476735641 -16.5636366529941 L 2.89270323888339 -15.9135146230123 L 3.54282526886522 -15.066259057693 L 3.95150912150006 -14.0796090849221 L 4.09090352895163 -13.0208032023055 L 4.09091484714069 -7.75024150879654 L 6.85106559204506 -6.45299104165909 L 7.31479327538513 -6.79372389623188 L 8.16789332172002 -7.01900044959244 L 9.02099070896229 -6.79371380531633 L 9.68629554412191 -6.23986088244086 L 10.1228715055283 -5.5648893592724 L 10.3803911249922 -4.88729733442574 L 10.4090915297359 -4.78074510709758 L 13.4659091237199 -3.33343986204518 L 14.1013508488458 -2.84584818614961 L 14.5889423883776 -2.21040639284189 L 14.8954551073991 -1.47041875985456 L 15.000000810715 -0.676314364937522 L 14.8954549710354 0.117789484524622 L 14.5889421156502 0.857776981148227 L 14.1013505761184 1.49321863809222 L 13.4659089191744 1.98081017762407 L 12.7259214225508 2.28732303300926 L 11.9318170276337 2.39186887268887 L 11.5203626732246 2.36415492312236 L 4.0608503960689 1.46752805345787 L 4.05027013929318 1.70140118050558 L 4.0130423654521 2.34065474898168 L 3.95628642001404 3.05948855024003 L 3.86977822824958 3.89350040253244 L 3.73501814194771 4.89129183698387 L 3.51743741169746 6.11609989409202 L 3.15138754091137 7.63184029660744 L 2.67429996265183 9.05296677489466 L 2.83119338130996 9.16837398516638 L 3.30450716169817 9.58384766033131 L 3.71997770049746 10.0571631452661 L 4.08482204778425 10.6100399766073 L 4.38185605619 11.2712675364286 L 4.55042234595993 12.057251812509 L 4.47160670457641 12.9193246600447 L 4.02767085209307 13.6818506256477 L 3.26514154557889 14.1257808872183 L 2.40306924349808 14.2045918240534 L 1.61708721741906 14.0360231479183 L 0.955863134872796 13.7389890031488 L 0.402989576260884 13.3741458831355 L 3.27272936862004E-06 13.0275956157463 " xmlns="http://www.w3.org/2000/svg" />
  <g id="ComplexString2d_1705" style=" fill-rule: evenodd; stroke-width: 0;stroke: #ffffff; fill: #ffffff; " xmlns="http://www.w3.org/2000/svg">
    <path d="M 3.27272936862004E-06 13.0275956157463 L -0.402982689892837 13.3741456104081 L -0.955856112141025 13.7389887986032 L -1.61708019468729 14.0360230115546 L -2.40306215258445 14.2045917558715 L -3.26513459102899 14.1257809554002 L -4.02766396572503 13.6818508301933 L -4.47160002275395 12.9193248645903 L -4.55041573231933 12.0572519488727 L -4.38184937436754 11.2712675364286 L -4.08481536596179 10.6100399084255 L -3.71997095049313 10.0571630089023 L -3.30450027533012 9.58384745578572 L -2.83118649494192 9.16837378062079 L -2.6742985990146 9.05296875216866 L -3.15138454090944 7.63184895570389 L -3.51743516169602 6.11610821227916 L -3.73501657376488 4.89129831426074 L -3.86977700097607 3.89350626617256 L -3.95628546546798 3.05949284569733 L -4.01304154726976 2.34065836262036 L -4.05026952565643 1.70140363505261 L -4.060849850614 1.46752928073138 L -11.5205690597204 2.36418103677545 L -11.9318126639946 2.39186648632371 L -12.7259170589116 2.2873206466441 L -13.4659045555352 1.9808077912589 L -14.1013462124792 1.49321625172706 L -14.588937752011 0.857774594783062 L -14.8954506073962 0.117787098159458 L -14.9999964470758 -0.676316819484549 L -14.89545074376 -1.47042128258345 L -14.5889379565566 -2.21040884738892 L -14.1013464170248 -2.84585064069664 L -13.4659047600808 -3.3334423165922 L -10.4090899615531 -4.78074544800689 L -10.3803877840809 -4.88730381170262 L -10.1228653009788 -5.56489822291444 L -9.68628538502449 -6.23987008699221 L -9.02097645895316 -6.79371946441086 L -8.16787736716434 -7.01899894959148 L -7.31477936628532 -6.79371537349915 L -6.85106559204506 -6.45299063256792 L -4.0909085744094 -7.75024403152543 L -4.0909085744094 -13.011181718871 L -3.95152541696504 -14.0796090849221 L -3.54284163251207 -15.066259057693 L -2.89271960253023 -15.9135146230123 L -2.04546403721095 -16.5636366529941 L -1.05881406444009 -16.9723204374471 L -8.1818234215501E-06 -17.1117149130805 L 1.05879770079325 -16.9723204374471 L 2.0454476735641 -16.5636366529941 L 2.89270323888339 -15.9135146230123 L 3.54282526886522 -15.066259057693 L 3.95150912150006 -14.0796090849221 L 4.09090352895163 -13.0208032023055 L 4.09091484714069 -7.75024150879654 L 6.85106559204506 -6.45299104165909 L 7.31479327538513 -6.79372389623188 L 8.16789332172002 -7.01900044959244 L 9.02099070896229 -6.79371380531633 L 9.68629554412191 -6.23986088244086 L 10.1228715055283 -5.5648893592724 L 10.3803911249922 -4.88729733442574 L 10.4090915297359 -4.78074510709758 L 13.4659091237199 -3.33343986204518 L 14.1013508488458 -2.84584818614961 L 14.5889423883776 -2.21040639284189 L 14.8954551073991 -1.47041875985456 L 15.000000810715 -0.676314364937522 L 14.8954549710354 0.117789484524622 L 14.5889421156502 0.857776981148227 L 14.1013505761184 1.49321863809222 L 13.4659089191744 1.98081017762407 L 12.7259214225508 2.28732303300926 L 11.9318170276337 2.39186887268887 L 11.5203626732246 2.36415492312236 L 4.0608503960689 1.46752805345787 L 4.05027013929318 1.70140118050558 L 4.0130423654521 2.34065474898168 L 3.95628642001404 3.05948855024003 L 3.86977822824958 3.89350040253244 L 3.73501814194771 4.89129183698387 L 3.51743741169746 6.11609989409202 L 3.15138754091137 7.63184029660744 L 2.67429996265183 9.05296677489466 L 2.83119338130996 9.16837398516638 L 3.30450716169817 9.58384766033131 L 3.71997770049746 10.0571631452661 L 4.08482204778425 10.6100399766073 L 4.38185605619 11.2712675364286 L 4.55042234595993 12.057251812509 L 4.47160670457641 12.9193246600447 L 4.02767085209307 13.6818506256477 L 3.26514154557889 14.1257808872183 L 2.40306924349808 14.2045918240534 L 1.61708721741906 14.0360231479183 L 0.955863134872796 13.7389890031488 L 0.402989576260884 13.3741458831355 L 3.27272936862004E-06 13.0275956157463 " />
  </g>
</svg>